<svg width="143" height="40" viewBox="0 0 143 40" fill="none" xmlns="http://www.w3.org/2000/svg">
<g clip-path="url(#clip0_485_764)">
<path d="M10.2662 12.17C10.5662 12.17 10.7762 12.23 10.9062 12.34C11.0562 12.49 11.1662 12.67 11.2162 12.87L15.8062 26.87C15.9062 27.17 15.9062 27.39 15.7862 27.57C15.6662 27.73 15.4762 27.82 15.2062 27.82H11.8362C11.3262 27.82 10.9962 27.57 10.8662 27.09L10.3762 25.39H6.15615L5.68615 27.09C5.55615 27.57 5.23615 27.82 4.71615 27.82H1.33615C1.07615 27.82 0.876151 27.73 0.766151 27.56C0.646151 27.39 0.636151 27.16 0.736151 26.86L5.32615 12.87C5.37615 12.67 5.48615 12.49 5.63615 12.34C5.76615 12.23 5.98615 12.17 6.27615 12.17H10.2762H10.2662ZM9.57615 21.45L8.31615 16.9H8.24615L6.89615 21.45H9.57615ZM58.2262 12.17C59.1862 12.16 60.1361 12.25 61.0761 12.45C61.8374 12.6088 62.5543 12.9331 63.1762 13.4C63.7562 13.8567 64.2076 14.4563 64.4862 15.14C64.7862 15.86 64.9361 16.74 64.9361 17.78C64.9822 18.8121 64.7137 19.8339 64.1661 20.71C63.6512 21.4647 62.9385 22.0632 62.1062 22.44L64.7561 26.83C64.9261 27.09 64.9562 27.33 64.8762 27.53C64.7762 27.73 64.5962 27.83 64.3162 27.83H61.0862C60.8462 27.83 60.6162 27.78 60.4062 27.66C60.2267 27.5365 60.0793 27.3719 59.9762 27.18L57.6962 23.18H56.5662V27.03C56.5662 27.56 56.3062 27.83 55.7662 27.83H52.5761C52.0461 27.83 51.7761 27.56 51.7761 27.03V12.96C51.7761 12.43 52.0461 12.16 52.5761 12.16H58.2262V12.17ZM58.1562 19.42C58.8662 19.42 59.3761 19.28 59.6661 19.02C59.9661 18.75 60.1161 18.34 60.1161 17.78C60.1161 17.13 59.9661 16.7 59.6661 16.48C59.3661 16.26 58.8661 16.15 58.1661 16.15H56.5662V19.42H58.1661H58.1562ZM74.5061 11.9C75.5161 11.89 76.5262 12.04 77.4762 12.37C78.374 12.6732 79.1845 13.1903 79.8379 13.8768C80.4912 14.5632 80.9677 15.3983 81.2262 16.31C81.5662 17.34 81.7362 18.56 81.7262 19.99C81.7262 21.42 81.5662 22.65 81.2262 23.67C80.9699 24.5839 80.4943 25.4215 79.8408 26.1098C79.1873 26.7982 78.3755 27.3166 77.4762 27.62C75.5462 28.24 73.4762 28.24 71.5462 27.62C70.6463 27.3174 69.8342 26.7992 69.1806 26.1107C68.5269 25.4222 68.0517 24.5843 67.7962 23.67C67.4312 22.4783 67.2591 21.236 67.2861 19.99C67.2861 18.56 67.4562 17.33 67.7962 16.31C68.0524 15.3961 68.528 14.5585 69.1815 13.8702C69.835 13.1818 70.6468 12.6634 71.5462 12.36C72.5001 12.0418 73.5007 11.8863 74.5061 11.9ZM74.5061 23.97C75.2761 23.97 75.8561 23.67 76.2461 23.07C76.6461 22.46 76.8362 21.43 76.8462 19.99C76.8462 18.55 76.6461 17.52 76.2461 16.92C75.8561 16.32 75.2761 16.02 74.5061 16.02C73.7461 16.02 73.1662 16.32 72.7662 16.92C72.3762 17.52 72.1861 18.55 72.1861 19.99C72.1861 21.43 72.3862 22.46 72.7662 23.06C73.1662 23.66 73.7461 23.97 74.5061 23.97ZM90.7861 11.9C91.7961 11.89 92.8061 12.04 93.7561 12.37C94.6521 12.6746 95.4607 13.1923 96.1122 13.8787C96.7637 14.565 97.2386 15.3994 97.4961 16.31C97.8361 17.34 98.0061 18.56 98.0061 19.99C98.0061 21.42 97.8361 22.65 97.5061 23.67C97.2484 24.5821 96.7722 25.4176 96.1188 26.1041C95.4654 26.7907 94.6544 27.3076 93.7561 27.61C91.8261 28.24 89.7562 28.24 87.8162 27.61C86.9198 27.3062 86.1108 26.7887 85.4592 26.1022C84.8076 25.4158 84.3329 24.581 84.0761 23.67C83.7089 22.4821 83.5334 21.2432 83.5562 20C83.5562 18.57 83.7262 17.34 84.0562 16.32C84.3132 15.4065 84.7891 14.5693 85.4425 13.8811C86.0959 13.1928 86.9072 12.6742 87.8062 12.37C88.7632 12.0507 89.7673 11.8952 90.7762 11.91M90.7762 23.98C91.5462 23.98 92.1262 23.68 92.5162 23.08C92.9162 22.47 93.1161 21.44 93.1061 20C93.1061 18.56 92.9062 17.53 92.5162 16.93C92.1262 16.33 91.5462 16.03 90.7762 16.03C90.0162 16.03 89.4361 16.33 89.0361 16.93C88.6461 17.53 88.4562 18.56 88.4562 20C88.4562 21.44 88.6561 22.47 89.0361 23.07C89.4361 23.67 90.0062 23.98 90.7762 23.98ZM37.8562 20.63C37.7431 20.4507 37.6822 20.2434 37.6805 20.0314C37.6787 19.8194 37.7361 19.6112 37.8461 19.43L39.7262 16.52V12.96C39.7262 12.43 39.4562 12.16 38.9262 12.16H35.6962C35.1662 12.16 34.8962 12.43 34.8962 12.96V27.02C34.8962 27.55 35.1662 27.82 35.6962 27.82H38.9262C39.4562 27.82 39.7262 27.55 39.7262 27.02V23.43L37.8562 20.63Z" fill="white"/>
<path d="M48.2375 12.17C48.5075 12.17 48.6775 12.27 48.7575 12.47C48.8375 12.68 48.7975 12.91 48.6175 13.17L44.0775 19.99L48.7275 26.82C48.8875 27.08 48.9275 27.3 48.8375 27.51C48.7475 27.71 48.5775 27.81 48.2975 27.81H44.8475C44.6075 27.83 44.3775 27.77 44.1775 27.63C43.9936 27.4786 43.8378 27.2958 43.7175 27.09L39.1975 20.34C39.1449 20.2488 39.1172 20.1454 39.1172 20.04C39.1172 19.9347 39.1449 19.8312 39.1975 19.74L43.6075 12.9C43.7575 12.7 43.9175 12.52 44.1075 12.37C44.3075 12.23 44.5475 12.16 44.7875 12.17H48.2475M21.1875 20.63C21.0745 20.4507 21.0136 20.2434 21.0119 20.0315C21.0101 19.8195 21.0675 19.6112 21.1775 19.43L23.0575 16.52V12.96C23.0575 12.43 22.7875 12.16 22.2575 12.16H19.0275C18.4875 12.16 18.2275 12.43 18.2275 12.96V27.02C18.2275 27.55 18.4875 27.82 19.0275 27.82H22.2575C22.7875 27.82 23.0575 27.55 23.0575 27.02V23.43L21.1875 20.63Z" fill="white"/>
<path d="M31.5679 12.17C31.8279 12.17 32.0079 12.27 32.0879 12.47C32.1679 12.68 32.1179 12.91 31.9379 13.17L27.3979 19.99L32.0579 26.82C32.2179 27.08 32.2579 27.3 32.1579 27.51C32.0779 27.71 31.8979 27.81 31.6379 27.81H28.1679C27.9279 27.83 27.6979 27.77 27.4979 27.63C27.3142 27.4783 27.1585 27.2955 27.0379 27.09L22.5179 20.34C22.4652 20.2488 22.4375 20.1453 22.4375 20.04C22.4375 19.9347 22.4652 19.8312 22.5179 19.74L26.9279 12.9C27.0679 12.7 27.2379 12.52 27.4279 12.37C27.6279 12.23 27.8579 12.16 28.1079 12.17H31.5579" fill="white"/>
<path d="M132.608 23.56L142.308 37.8H142.298C142.648 38.35 142.728 38.85 142.528 39.3C142.338 39.75 141.948 39.97 141.368 39.97H133.808C133.188 39.97 132.708 39.84 132.348 39.57C131.938 39.23 131.598 38.83 131.338 38.38L121.448 23.6C121.208 23.19 121.208 22.69 121.448 22.27L131.088 7.33001C131.398 6.89001 131.768 6.50001 132.188 6.17001C132.558 5.88001 133.048 5.73001 133.668 5.73001H141.238C141.818 5.73001 142.198 5.96001 142.378 6.41001C142.558 6.86001 142.448 7.36001 142.058 7.91001L132.608 22.13C132.308 22.56 132.308 23.13 132.608 23.56Z" fill="white"/>
<path d="M120.488 7.33001L110.838 22.27H110.848C110.608 22.68 110.608 23.19 110.848 23.6L115.978 31.26L114.778 35.6C114.458 36.76 113.688 37.34 112.448 37.34H104.418C103.788 37.34 103.328 37.14 103.048 36.74C102.768 36.33 102.748 35.78 102.998 35.08L113.928 1.70001C114.108 1.13001 114.358 0.71001 114.668 0.43001C114.988 0.15001 115.508 0.0100098 116.208 0.0100098H125.718C126.428 0.0100098 126.938 0.15001 127.248 0.43001C127.604 0.778979 127.86 1.21776 127.988 1.70001L129.288 5.73001H123.058C122.448 5.73001 121.948 5.87001 121.588 6.17001C121.168 6.50001 120.798 6.90001 120.488 7.33001Z" fill="white"/>
</g>
<defs>
<clipPath id="clip0_485_764">
<rect width="142" height="40" fill="white" transform="translate(0.667969)"/>
</clipPath>
</defs>
</svg>
