<svg width="48" height="48" viewBox="0 0 48 48" fill="none" xmlns="http://www.w3.org/2000/svg">
<path d="M16 16L12.001 12" stroke="#F99E00" stroke-width="1.5" stroke-linecap="round"/>
<path d="M14 24H8" stroke="#F99E00" stroke-width="1.5" stroke-linecap="round"/>
<path d="M24 14L24 8" stroke="#F99E00" stroke-width="1.5" stroke-linecap="round"/>
<path d="M32.002 16L36.001 12M12.001 36L16.002 31.999" stroke="#F99E00" stroke-width="1.5" stroke-linecap="round"/>
<path d="M23.961 35.7268L22.3771 24.6399C22.2043 23.4299 22.1179 22.825 22.4714 22.4714C22.825 22.1179 23.4299 22.2043 24.6399 22.3771L35.6948 23.9564C38.281 24.3259 39.5741 24.5106 39.6928 25.2351C39.8115 25.9595 38.6449 26.5472 36.3117 27.7225L31.2425 30.2759L31.2425 30.2759C30.9517 30.4224 30.8063 30.4957 30.693 30.6086C30.5797 30.7216 30.506 30.8668 30.3587 31.1572L30.3587 31.1572L27.7244 36.3489C26.5476 38.6684 25.9591 39.8281 25.2359 39.7086C24.5127 39.5891 24.3288 38.3016 23.961 35.7268Z" stroke="#1F0A38" stroke-width="1.5" stroke-linecap="round" stroke-linejoin="round"/>
</svg>
