<svg width="48" height="48" viewBox="0 0 48 48" fill="none" xmlns="http://www.w3.org/2000/svg">
<rect x="8" y="8" width="32" height="32" rx="3" stroke="#1F0A38" stroke-width="1.5"/>
<path d="M18 28L22 20L26 28" stroke="#F99E00" stroke-width="1.5" stroke-linecap="round" stroke-linejoin="round"/>
<path d="M29.25 28C29.25 28.4142 29.5858 28.75 30 28.75C30.4142 28.75 30.75 28.4142 30.75 28H29.25ZM30.75 20C30.75 19.5858 30.4142 19.25 30 19.25C29.5858 19.25 29.25 19.5858 29.25 20H30.75ZM30 28H30.75V20H30H29.25V28H30Z" fill="#F99E00"/>
<path d="M24 26.75C24.4142 26.75 24.75 26.4142 24.75 26C24.75 25.5858 24.4142 25.25 24 25.25V26.75ZM20 25.25C19.5858 25.25 19.25 25.5858 19.25 26C19.25 26.4142 19.5858 26.75 20 26.75V25.25ZM24 26V25.25H20V26V26.75H24V26Z" fill="#F99E00"/>
</svg>
