<svg width="201" height="48" viewBox="0 0 201 48" fill="none" xmlns="http://www.w3.org/2000/svg">
<g clip-path="url(#clip0_1108_50)">
<path d="M132.216 20.7256C131.529 20.7256 130.906 20.9458 130.36 21.3774C129.814 21.8091 129.438 22.4051 129.236 23.1539L129.162 23.145V20.937H127.906V32.8435H129.162V26.4248C129.162 24.9596 129.447 23.8233 130.011 23.0482C130.56 22.317 131.259 21.95 132.084 21.95C132.513 21.95 132.932 22.0146 133.329 22.1438L133.449 20.9076L133.323 20.8841C133.056 20.7843 132.683 20.7315 132.21 20.7315L132.216 20.7256Z" fill="#242C2F"/>
<path d="M171.333 20.9316H170.079V32.8381H171.333V20.9316Z" fill="#242C2F"/>
<path d="M107.801 15.0977L101.694 30.3661L101.662 30.281L95.6158 15.0977H94.0889L92.3066 32.8384H93.6133L95.0667 17.3791L95.1372 17.3703L101.667 33.1467H101.747L108.253 17.3967L108.324 17.4055L109.827 32.8384H111.134L109.352 15.0977H107.801Z" fill="#242C2F"/>
<path d="M118.777 20.7256C117.37 20.7256 116.055 21.1249 114.866 21.9148L115.341 22.8279C115.603 22.6283 116.043 22.4198 116.645 22.2055C117.309 21.9471 118.046 21.8149 118.83 21.8149C119.822 21.8149 120.638 22.1086 121.258 22.6899C121.875 23.2713 122.189 24.0935 122.189 25.13V25.8112L118.909 25.9404C117.391 26.0079 116.216 26.3573 115.418 26.9769C114.622 27.5964 114.22 28.4508 114.22 29.5167C114.22 30.518 114.593 31.3783 115.333 32.0712C116.055 32.7495 117 33.093 118.143 33.093C119.708 33.093 121.047 32.4471 122.127 31.1698L122.192 31.0935V32.8347H123.472V25.773C123.472 24.1551 123.087 22.9043 122.333 22.0528C121.511 21.169 120.315 20.7227 118.783 20.7227L118.777 20.7256ZM122.186 29.7868L122.18 29.7956C121.787 30.4328 121.258 30.9672 120.609 31.3812C119.96 31.7952 119.211 32.0066 118.392 32.0066C117.503 32.0066 116.783 31.7688 116.261 31.299C115.735 30.8292 115.468 30.2302 115.468 29.5167C115.468 27.9693 116.581 27.1149 118.771 26.9769L122.183 26.7684V29.7868H122.186Z" fill="#242C2F"/>
<path d="M152.893 20.7256C151.31 20.7256 149.945 21.3128 148.832 22.4697C147.737 23.6266 147.182 25.1123 147.182 26.8858C147.182 28.6593 147.705 30.239 148.732 31.3783C149.76 32.5175 151.134 33.096 152.82 33.096C154.505 33.096 155.876 32.6996 156.989 31.9156C157.356 31.6572 157.597 31.4575 157.705 31.3254L157.104 30.4269L156.675 30.7881C156.331 31.0817 155.809 31.3548 155.119 31.5956C154.429 31.8363 153.698 31.9596 152.949 31.9596C151.633 31.9596 150.57 31.531 149.792 30.6824C149.014 29.8367 148.586 28.6652 148.518 27.2V27.1618H158.152L158.225 26.2927C158.225 24.7101 157.711 23.3741 156.701 22.317C155.709 21.2629 154.429 20.7285 152.896 20.7285L152.893 20.7256ZM156.939 26.0695H148.559V26.0314C148.612 25.0125 149.002 24.0494 149.719 23.1715C150.438 22.273 151.481 21.8149 152.814 21.8149C153.721 21.8149 154.514 22.0645 155.174 22.5578C155.832 23.0511 156.296 23.6119 156.554 24.2256C156.81 24.8393 156.939 25.4471 156.939 26.0343V26.0695Z" fill="#242C2F"/>
<path d="M140.355 25.4391L145.141 20.932H143.588L137.839 26.3758V15.0977H136.582V32.8384H137.839V27.7734L139.489 26.2348L139.516 26.2701L144.357 32.8384H145.925L140.329 25.4597L140.355 25.4391Z" fill="#242C2F"/>
<path d="M181.389 20.7256C180.549 20.7256 179.768 20.9487 179.07 21.3921C178.374 21.8326 177.875 22.4198 177.59 23.1304L177.519 23.1157V20.9311H176.263V32.8376H177.519V26.9357C177.519 25.403 177.857 24.1551 178.523 23.2214C179.193 22.2847 180.138 21.812 181.336 21.812C182.534 21.812 183.374 22.2436 183.771 23.0981C184.094 23.7705 184.261 24.6719 184.261 25.773V32.8347H185.541V25.7201C185.541 24.0494 185.221 22.7839 184.59 21.9618C183.961 21.1396 182.884 20.7227 181.386 20.7227L181.389 20.7256Z" fill="#242C2F"/>
<path d="M166.573 31.6926C166.229 31.8658 165.845 31.9539 165.434 31.9539C164.67 31.9539 164.159 31.6251 163.919 30.9761C163.748 30.4388 163.66 29.784 163.66 29.0265V22.1234H166.676V20.9841H163.687V17.1641H162.406V20.9841H160.618V22.1234H162.406V28.2278C162.406 29.2878 162.433 30.0688 162.483 30.5475C162.533 30.9908 162.653 31.4195 162.838 31.8277C163.287 32.6704 164.033 33.0961 165.052 33.0961C165.78 33.0961 166.367 32.9728 166.802 32.7261L166.682 31.6397L166.576 31.6926H166.573Z" fill="#242C2F"/>
<path d="M50.2773 23.4601V23.3896C51.0436 23.1694 51.7072 22.6878 52.2475 21.9567C52.7672 21.2256 53.0315 20.4093 53.0315 19.5255C53.0315 18.031 52.4765 16.8418 51.3842 15.9903C50.5944 15.3972 49.2261 15.0947 47.3175 15.0947H43.4711V32.8355H48.1602C50.151 32.8355 51.6221 32.4479 52.5323 31.6816C53.7626 30.695 54.3851 29.4001 54.3851 27.838C54.3851 26.6665 54.018 25.6828 53.2957 24.9194C52.5734 24.156 51.5575 23.6627 50.2773 23.4601ZM44.7806 16.2898H47.4497C48.677 16.2898 49.6284 16.4748 50.2773 16.8359C51.2227 17.3233 51.7014 18.2453 51.7014 19.5784C51.7014 20.7734 51.2227 21.7218 50.2802 22.3972C49.6988 22.8288 48.6594 23.049 47.1942 23.049H44.7806V16.2898ZM51.4283 30.9152C50.7441 31.3997 49.4904 31.6434 47.7022 31.6434H44.7777V24.2118H47.7022C49.4199 24.2118 50.6737 24.4643 51.4283 24.9664C52.456 25.6946 52.9786 26.6841 52.9786 27.9144C52.9786 29.1446 52.4589 30.187 51.4312 30.9123L51.4283 30.9152Z" fill="#242C2F"/>
<path d="M199.603 20.9311V23.3065L199.535 23.1832C199.115 22.4345 198.513 21.8326 197.747 21.3892C196.981 20.9458 196.088 20.7227 195.096 20.7227C193.513 20.7227 192.136 21.2835 191.008 22.3904C189.896 23.4974 189.332 24.9743 189.332 26.7801C189.332 28.5859 189.896 30.0628 191.008 31.1698C192.136 32.2768 193.513 32.8376 195.096 32.8376C197.098 32.8376 198.593 31.9831 199.535 30.3007L199.603 30.1774V31.1962C199.603 32.9668 199.256 34.3468 198.575 35.2982C197.82 36.3376 196.608 36.8632 194.969 36.8632C194.118 36.8632 193.252 36.6811 192.4 36.317C191.619 35.997 191.023 35.6417 190.63 35.2541L189.91 36.226L190.445 36.6694C190.879 36.9894 191.487 37.2831 192.247 37.5414C193.075 37.8498 193.948 38.0054 194.843 38.0054C197.151 38.0054 198.86 37.1421 199.923 35.442C200.563 34.385 200.889 32.6555 200.889 30.2977V20.937H199.609L199.603 20.9311ZM198.496 30.2889C197.691 31.2227 196.573 31.6954 195.172 31.6954C193.771 31.6954 192.653 31.2227 191.848 30.2889C191.061 29.3758 190.665 28.1836 190.665 26.7537C190.665 25.3237 191.064 24.1404 191.848 23.2449C192.653 22.3112 193.768 21.8384 195.172 21.8384C196.575 21.8384 197.691 22.3112 198.496 23.2449C199.283 24.1434 199.679 25.3237 199.679 26.7537C199.679 28.1836 199.28 29.3728 198.496 30.2889Z" fill="#242C2F"/>
<path d="M63.9426 26.5222L64.4271 26.0582C64.7295 25.7705 64.9526 25.5444 65.0877 25.3888C65.7807 24.6195 66.2534 24.0234 66.4883 23.6124C67.3486 22.3145 67.7509 21.1166 67.6833 20.0448C67.6833 18.4769 67.1636 17.2084 66.136 16.2747C65.0907 15.3204 63.7576 14.8389 62.175 14.8389C60.6922 14.8389 59.4736 15.2969 58.5458 16.1954C57.7941 16.9383 57.2274 17.7223 56.8545 18.5297L57.8146 19.1346C58.1729 18.3565 58.7014 17.6371 59.3885 16.9941C60.1255 16.3364 61.0621 16.0016 62.172 16.0016C63.4375 16.0016 64.4594 16.3833 65.214 17.135C65.9657 17.8867 66.3474 18.8821 66.3474 20.0918C66.3474 20.8171 66.1565 21.5687 65.7807 22.3292C65.3901 23.1044 65.0172 23.7034 64.6766 24.1174C64.3214 24.5285 63.8721 25.0071 63.3465 25.5385L56.9749 31.8485L57.2186 32.8322H68.3939V31.6136H58.7601L63.9338 26.5163L63.9426 26.5222Z" fill="#242C2F"/>
<path d="M78.7324 23.4601V23.3896C79.4987 23.1694 80.1623 22.6878 80.7026 21.9567C81.2223 21.2256 81.4865 20.4093 81.4865 19.5255C81.4865 18.031 80.9316 16.8418 79.8393 15.9903C79.0495 15.3972 77.6812 15.0947 75.7726 15.0947H71.9261V32.8355H76.6153C78.6061 32.8355 80.0772 32.4479 80.9874 31.6816C82.2177 30.695 82.8402 29.4001 82.8402 27.838C82.8402 26.6665 82.4731 25.6828 81.7508 24.9194C81.0285 24.156 80.0126 23.6627 78.7324 23.4601ZM73.2357 16.2898H75.9048C77.1321 16.2898 78.0834 16.4748 78.7324 16.8359C79.6778 17.3233 80.1564 18.2453 80.1564 19.5784C80.1564 20.7734 79.6778 21.7218 78.7353 22.3972C78.1539 22.8288 77.1145 23.049 75.6493 23.049H73.2357V16.2898ZM79.8834 30.9152C79.1992 31.3997 77.9454 31.6434 76.1573 31.6434H73.2328V24.2118H76.1573C77.875 24.2118 79.1287 24.4643 79.8834 24.9664C80.911 25.6946 81.4337 26.6841 81.4337 27.9144C81.4337 29.1446 80.914 30.187 79.8863 30.9123L79.8834 30.9152Z" fill="#242C2F"/>
<path d="M5.22488 27.5615C7.20973 27.2393 8.55759 25.369 8.23541 23.3842C7.91322 21.3993 6.04299 20.0515 4.05813 20.3737C2.07328 20.6958 0.725418 22.5661 1.04761 24.5509C1.36979 26.5358 3.24002 27.8836 5.22488 27.5615Z" fill="#EC6608"/>
<path d="M8.98375 18.2749C10.4903 18.2749 11.7115 17.0536 11.7115 15.5471C11.7115 14.0406 10.4903 12.8193 8.98375 12.8193C7.47725 12.8193 6.25598 14.0406 6.25598 15.5471C6.25598 17.0536 7.47725 18.2749 8.98375 18.2749Z" fill="#EC6608"/>
<path d="M17.9358 13.0255C18.6284 12.3329 18.6284 11.21 17.9358 10.5174C17.2433 9.82485 16.1203 9.82485 15.4278 10.5174C14.7352 11.21 14.7352 12.3329 15.4278 13.0255C16.1203 13.7181 17.2433 13.7181 17.9358 13.0255Z" fill="#EC6608"/>
<path d="M16.6561 26.7311C18.182 26.7311 19.4191 25.494 19.4191 23.9681C19.4191 22.4421 18.182 21.2051 16.6561 21.2051C15.1301 21.2051 13.8931 22.4421 13.8931 23.9681C13.8931 25.494 15.1301 26.7311 16.6561 26.7311Z" fill="#EC6608"/>
<path d="M28.9119 22.7959C28.2659 22.7959 27.7404 23.3215 27.7404 23.9675C27.7404 24.6134 28.2659 25.139 28.9119 25.139C29.5579 25.139 30.0835 24.6134 30.0835 23.9675C30.0835 23.3215 29.5579 22.7959 28.9119 22.7959Z" fill="#EC6608"/>
<path d="M25.0508 14.4043C24.4107 14.4043 23.8939 14.924 23.8939 15.5612C23.8939 16.1983 24.4136 16.7181 25.0508 16.7181C25.688 16.7181 26.2077 16.1983 26.2077 15.5612C26.2077 14.924 25.688 14.4043 25.0508 14.4043Z" fill="#EC6608"/>
<path d="M8.98375 35.1137C10.4903 35.1137 11.7115 33.8925 11.7115 32.386C11.7115 30.8795 10.4903 29.6582 8.98375 29.6582C7.47725 29.6582 6.25598 30.8795 6.25598 32.386C6.25598 33.8925 7.47725 35.1137 8.98375 35.1137Z" fill="#EC6608"/>
<path d="M17.9365 37.4152C18.629 36.7226 18.629 35.5997 17.9365 34.9071C17.2439 34.2145 16.121 34.2145 15.4284 34.9071C14.7358 35.5997 14.7358 36.7226 15.4284 37.4152C16.121 38.1078 17.2439 38.1078 17.9365 37.4152Z" fill="#EC6608"/>
<path d="M25.0508 31.2148C24.4107 31.2148 23.8939 31.7346 23.8939 32.3717C23.8939 33.0089 24.4136 33.5286 25.0508 33.5286C25.688 33.5286 26.2077 33.0089 26.2077 32.3717C26.2077 31.7346 25.688 31.2148 25.0508 31.2148Z" fill="#EC6608"/>
<path d="M172.447 15.8845C172.25 15.6702 172.001 15.5615 171.707 15.5615C171.414 15.5615 171.155 15.6702 170.941 15.8874C170.744 16.0871 170.644 16.3367 170.644 16.6362C170.644 16.9357 170.744 17.197 170.941 17.4114C171.152 17.6081 171.411 17.7079 171.707 17.7079C172.004 17.7079 172.25 17.6081 172.447 17.4084C172.661 17.1941 172.767 16.9327 172.767 16.6333C172.767 16.3338 172.659 16.0842 172.447 15.8845Z" fill="#EC6608"/>
</g>
<defs>
<clipPath id="clip0_1108_50">
<rect width="200.536" height="48" fill="white" transform="translate(0.464233)"/>
</clipPath>
</defs>
</svg>
