<svg width="1396" height="1268" viewBox="0 0 1396 1268" fill="none" xmlns="http://www.w3.org/2000/svg">
<g opacity="0.5" filter="url(#filter0_f_55150_8851)">
<path d="M571.926 531.829C597.783 578.976 732.141 553.653 872.11 475.301C1007.2 399.671 1098.04 302.266 1081.01 253.175C1080.04 250.356 1076.72 249.189 1074.13 250.599L571.975 531.781L571.926 531.829Z" fill="#DB5311"/>
<path d="M571.927 531.83C579.342 585.198 713.798 610.23 872.208 587.775C1025.15 566.048 1144.49 508.062 1146 456.054C1146.09 453.089 1143.41 450.756 1140.48 451.145L571.975 531.781L571.927 531.83Z" fill="#DB5311"/>
<path d="M571.926 531.828C542.117 576.496 625.396 686.004 758.046 776.459C886.062 863.754 1013.15 901.326 1048.72 863.705C1050.77 861.567 1050.28 858.018 1047.84 856.317L571.926 531.828Z" fill="#10B5A8"/>
<path d="M571.928 531.828C528.215 562.741 567.196 695.142 658.914 827.591C747.462 955.423 852.792 1036.59 899.334 1014.33C902.017 1013.07 902.847 1009.57 901.139 1007.14L571.928 531.828Z" fill="#175773"/>
<path d="M571.926 531.828L724.921 752.691C611.931 667.631 544.704 572.657 571.926 531.828Z" fill="#027B77"/>
<path d="M571.925 531.828C559.924 584.322 676.524 656.404 832.396 692.809C988.269 729.214 1114.87 717.014 1134.68 668.992C1135.8 666.222 1134.14 663.111 1131.26 662.431L571.925 531.828Z" fill="#F3A900"/>
<path d="M571.926 531.828L831.86 592.488C691.599 605.66 578.707 580.579 571.926 531.828Z" fill="#C0450C"/>
<path d="M531.873 536.22C524.299 540.522 258.294 689.248 258.294 689.248C252.584 692.424 247.095 684.799 251.746 680.203C251.746 680.203 434.485 504.05 451.303 492.562C468.121 481.074 497.649 472.554 522.268 502.597C522.268 502.597 531.537 514.342 535.382 519.312C539.227 524.283 539.447 531.918 531.873 536.22Z" fill="#175773"/>
</g>
<defs>
<filter id="filter0_f_55150_8851" x="0" y="0" width="1396" height="1268" filterUnits="userSpaceOnUse" color-interpolation-filters="sRGB">
<feFlood flood-opacity="0" result="BackgroundImageFix"/>
<feBlend mode="normal" in="SourceGraphic" in2="BackgroundImageFix" result="shape"/>
<feGaussianBlur stdDeviation="125" result="effect1_foregroundBlur_55150_8851"/>
</filter>
</defs>
</svg>
