<svg width="1666" height="1663" viewBox="0 0 1666 1663" fill="none" xmlns="http://www.w3.org/2000/svg">
<g clip-path="url(#clip0_195_93)">
<g opacity="0.1" filter="url(#filter0_f_195_93)">
<path d="M1015.7 1525.25L881.401 1449.74C880.695 1449.34 879.78 1449.69 879.591 1450.44C872.949 1476.93 905.562 1508.25 923.83 1521.43C924.081 1521.62 923.912 1521.99 923.592 1521.96L886.351 1518.39C885.729 1518.33 885.15 1518.71 885.033 1519.29C880.995 1539.28 910.474 1563.66 954.96 1563.66C998.854 1563.66 1014.11 1539.92 1016.57 1527C1016.71 1526.3 1016.34 1525.61 1015.7 1525.25Z" fill="#DB5311"/>
</g>
<g opacity="0.1" filter="url(#filter1_f_195_93)">
<path d="M695.051 1321.44L632.858 1356.52C632.152 1356.92 631.236 1356.58 631.093 1355.82C628.81 1343.65 643.179 1329.59 651.707 1323.28C651.956 1323.1 651.794 1322.72 651.478 1322.75L635.035 1324.33C634.412 1324.39 633.828 1324.01 633.748 1323.42C632.453 1314.05 646.258 1302.91 666.894 1302.91C686.987 1302.91 694.384 1313.47 695.891 1319.7C696.058 1320.39 695.694 1321.08 695.051 1321.44Z" fill="#DB5311"/>
</g>
<g opacity="0.2" filter="url(#filter2_f_195_93)">
<path d="M665.398 1462.91L742.198 1481.27C742.708 1481.4 743.265 1481.21 743.475 1480.75C746.314 1474.62 729.872 1467.54 719.259 1464.08C718.913 1463.97 719.013 1463.47 719.379 1463.48L739.227 1464.29C739.694 1464.31 740.164 1464.09 740.274 1463.66C741.509 1458.8 724.599 1453.1 699.438 1453.1C677.078 1453.1 667.492 1457.6 664.49 1460.87C663.785 1461.63 664.355 1462.66 665.398 1462.91Z" fill="#F3A900"/>
</g>
<g opacity="0.1" filter="url(#filter3_f_195_93)">
<path d="M328.213 1443.23C345.242 1433.35 361.251 1433.95 366.946 1438.61C367.684 1439.21 367.186 1440.22 366.218 1440.33C344.393 1442.76 320.292 1456.47 301.284 1477.51C300.643 1478.22 299.52 1478 299.53 1477.07C299.614 1469.3 311.996 1451.99 328.213 1443.23Z" fill="#10B5A8"/>
</g>
<g style="mix-blend-mode:multiply" opacity="0.1" filter="url(#filter4_f_195_93)">
<path d="M303.321 1473.18L380.723 1463.39C381.366 1463.3 381.877 1462.78 381.694 1462.2C379.246 1454.39 346.963 1457 334.206 1457.83C333.83 1457.85 333.731 1457.37 334.082 1457.25L367.947 1445.27C368.479 1445.09 368.844 1444.59 368.684 1444.08C366.801 1438.06 348.744 1438.34 326.997 1448.39C306.911 1457.68 301.679 1466.98 301.414 1471.75C301.362 1472.7 302.316 1473.31 303.321 1473.18Z" fill="#10B5A8"/>
</g>
<g opacity="0.25" filter="url(#filter5_f_195_93)">
<path d="M508.729 1446.74C559.452 1438.47 588.134 1410.69 587.544 1393.8C587.513 1392.91 586.442 1392.49 585.672 1393.01C541.09 1423.18 471.13 1435.27 398.152 1424.93C397.204 1424.79 396.46 1425.63 396.946 1426.41C406.22 1441.2 461.666 1455.83 508.729 1446.74Z" fill="#175773"/>
</g>
<g style="mix-blend-mode:multiply" opacity="0.25" filter="url(#filter6_f_195_93)">
<path d="M397.613 1426.34L556.847 1326.76C557.364 1326.43 558.078 1326.52 558.439 1327C571.736 1344.47 501.627 1392.12 478.844 1408.65C478.559 1408.85 478.834 1409.25 479.171 1409.13L564.519 1378.97C565.03 1378.79 565.619 1378.94 565.919 1379.37C575.229 1392.7 542.042 1420.15 484.334 1434.69C428.581 1448.74 403.676 1437.2 397.091 1428.59C396.524 1427.85 396.804 1426.85 397.613 1426.34Z" fill="#10B5A8"/>
</g>
<g style="mix-blend-mode:multiply" opacity="0.2" filter="url(#filter7_f_195_93)">
<path d="M886.964 1538.16C901.876 1549.7 906.366 1563.54 903.727 1569.95C903.355 1570.86 902.107 1570.73 901.655 1569.86C892.399 1551.9 871.492 1535.45 845.042 1525.55C844.061 1525.18 843.917 1524.06 844.931 1523.78C852.733 1521.61 873.383 1526.97 886.964 1538.16Z" fill="#10B5A8"/>
<path d="M844.414 1525.42L878.135 1588.42C878.443 1589 879.186 1589.3 879.742 1588.92C886.49 1584.27 874.089 1557.88 869.255 1547.14C869.101 1546.8 869.583 1546.54 869.837 1546.82L892.075 1571.9C892.461 1572.34 893.126 1572.51 893.616 1572.18C898.859 1568.61 892.929 1553.31 876.27 1537.88C860.983 1523.71 850.212 1521.99 845.323 1523.17C844.276 1523.42 843.933 1524.52 844.414 1525.42Z" fill="#10B5A8"/>
</g>
<g opacity="0.15" filter="url(#filter8_f_195_93)">
<path d="M765.89 1362.4L827.726 1376.05C828.214 1376.16 828.751 1375.99 828.94 1375.55C830.876 1371.09 818.348 1365.99 809.807 1363.37C809.456 1363.26 809.553 1362.74 809.923 1362.76L825.315 1363.34C825.765 1363.35 826.234 1363.15 826.307 1362.73C826.931 1359.11 813.282 1354.94 793.097 1354.94C775.802 1354.94 767.914 1358 765.091 1360.41C764.269 1361.11 764.812 1362.17 765.89 1362.4Z" fill="#175773"/>
</g>
</g>
<g opacity="0.1" filter="url(#filter9_f_195_93)">
<path d="M841.21 809.525L956.991 887.009C958.819 888.233 961.202 887.192 961.491 884.851C964.772 858.205 938.876 827.829 922.954 813.685C922.316 813.118 922.75 811.963 923.564 812.056L953.103 815.427C954.719 815.611 956.239 814.447 956.383 812.66C958.067 791.826 932.162 767.516 893.687 767.516C856.505 767.516 842.339 790.221 839.1 804.281C838.625 806.345 839.562 808.421 841.21 809.525Z" fill="#DB5311"/>
</g>
<g opacity="0.2" filter="url(#filter10_f_195_93)">
<path d="M887.611 1176.19L744.996 1141.43C743.715 1141.11 742.66 1139.95 742.811 1138.52C744.192 1125.42 775.272 1126.55 795.781 1129.46C796.711 1129.6 797.102 1128.1 796.244 1127.68L764.307 1112.16C763.233 1111.64 762.398 1110.46 762.792 1109.25C765.911 1099.67 798.701 1104.54 840.187 1127.02C875.611 1146.22 888.542 1162.64 891.799 1171.91C892.8 1174.76 890.326 1176.85 887.611 1176.19Z" fill="#10B5A8"/>
</g>
<g opacity="0.1" filter="url(#filter11_f_195_93)">
<path d="M1578.85 1096.65C1570.15 1057.71 1548.47 1035.33 1533.87 1032.91C1531.36 1032.5 1530.29 1035.49 1531.84 1037.63C1557.43 1073.12 1570.2 1128.38 1566.06 1187.43C1565.87 1190.15 1568.3 1191.8 1569.95 1189.71C1580.62 1176.18 1588.07 1132.85 1578.85 1096.65Z" fill="#10B5A8"/>
</g>
<g style="mix-blend-mode:multiply" opacity="0.1" filter="url(#filter12_f_195_93)">
<path d="M1567.26 1177.92L1479.85 1050.63C1478.87 1049.21 1478.97 1047.09 1480.46 1046.4C1495.05 1039.69 1532.06 1088.03 1548.06 1108.45C1548.67 1109.23 1549.75 1108.43 1549.37 1107.49L1522.39 1041.01C1521.81 1039.58 1522.11 1037.81 1523.41 1037.17C1534.68 1031.66 1557.67 1058.48 1571.91 1105.37C1584.77 1147.73 1579.39 1169.91 1573.21 1178.51C1571.63 1180.7 1568.79 1180.14 1567.26 1177.92Z" fill="#10B5A8"/>
</g>
<g opacity="0.25" filter="url(#filter13_f_195_93)">
<path d="M1200.79 1105.34C1103.54 1086.67 1048.02 1024.51 1047.74 985.756C1047.72 983.052 1050.48 981.786 1052.48 983.359C1138.81 1051.48 1273.52 1078.84 1414.14 1055.69C1416.59 1055.29 1418.48 1057.84 1417.11 1060.12C1397.14 1093.51 1291.03 1125.87 1200.79 1105.34Z" fill="#DB5311"/>
</g>
<g style="mix-blend-mode:multiply" opacity="0.25" filter="url(#filter14_f_195_93)">
<path d="M1405.79 1055.96L1104.22 832.64C1102.91 831.67 1101.1 831.923 1100.24 833.387C1076.9 872.937 1206.82 977.962 1251.02 1015.82C1251.75 1016.44 1251.12 1017.69 1250.26 1017.33L1089.59 950.095C1088.3 949.554 1086.8 950 1086.08 951.311C1069.42 981.537 1132.48 1042.86 1241.65 1075.43C1346 1106.56 1393.56 1081.93 1407.03 1062.65C1408.54 1060.49 1407.84 1057.47 1405.79 1055.96Z" fill="#F3A900"/>
</g>
<g opacity="0.15" filter="url(#filter15_f_195_93)">
<path d="M623.943 910.326L515.579 937.344C514.347 937.65 512.947 937.168 512.617 935.822C510.544 927.379 530.146 917.964 544.902 912.617C545.814 912.286 545.567 910.668 544.608 910.709L519.849 911.762C518.708 911.81 517.443 911.175 517.503 909.914C517.843 902.762 541.891 894.816 576.968 894.816C605.347 894.816 619.573 900.017 625.636 904.634C628.026 906.454 626.774 909.621 623.943 910.326Z" fill="#F3A900"/>
</g>
<g opacity="0.5" filter="url(#filter16_f_195_93)">
<path d="M447.61 364.818C463.482 384.018 545.956 373.705 631.875 341.798C714.798 311 770.559 271.334 760.105 251.343C759.51 250.195 757.472 249.72 755.882 250.294L447.64 364.799L447.61 364.818Z" fill="#DB5311"/>
<path d="M447.61 364.819C452.162 386.552 534.696 396.745 631.934 387.601C725.816 378.753 799.071 355.14 799.998 333.961C800.053 332.753 798.408 331.803 796.61 331.962L447.64 364.799L447.61 364.819Z" fill="#DB5311"/>
<path d="M447.61 364.817C429.312 383.007 480.432 427.602 561.857 464.438C640.438 499.986 718.45 515.287 740.284 499.967C741.542 499.096 741.242 497.651 739.744 496.958L447.61 364.817Z" fill="#10B5A8"/>
<path d="M447.611 364.817C420.778 377.406 444.706 431.323 501.006 485.26C555.36 537.317 620.016 570.37 648.585 561.305C650.232 560.792 650.742 559.367 649.693 558.377L447.611 364.817Z" fill="#175773"/>
<path d="M447.61 364.817L541.524 454.759C472.167 420.12 430.9 381.444 447.61 364.817Z" fill="#027B77"/>
<path d="M447.61 364.817C440.244 386.194 511.817 415.548 607.497 430.373C703.178 445.198 780.89 440.23 793.051 420.674C793.738 419.546 792.719 418.279 790.951 418.002L447.61 364.817Z" fill="#F3A900"/>
<path d="M447.61 364.817L607.168 389.52C521.07 394.884 451.773 384.67 447.61 364.817Z" fill="#C0450C"/>
<path d="M423.024 366.606C418.375 368.358 255.091 428.923 255.091 428.923C251.586 430.217 248.217 427.111 251.072 425.24C251.072 425.24 363.244 353.506 373.567 348.827C383.891 344.149 402.016 340.68 417.128 352.914C417.128 352.914 422.818 357.697 425.178 359.721C427.538 361.745 427.673 364.854 423.024 366.606Z" fill="#175773"/>
</g>
<defs>
<filter id="filter0_f_195_93" x="833.713" y="1404.57" width="227.889" height="204.089" filterUnits="userSpaceOnUse" color-interpolation-filters="sRGB">
<feFlood flood-opacity="0" result="BackgroundImageFix"/>
<feBlend mode="normal" in="SourceGraphic" in2="BackgroundImageFix" result="shape"/>
<feGaussianBlur stdDeviation="22.5" result="effect1_foregroundBlur_195_93"/>
</filter>
<filter id="filter1_f_195_93" x="620.851" y="1292.91" width="85.0811" height="73.7764" filterUnits="userSpaceOnUse" color-interpolation-filters="sRGB">
<feFlood flood-opacity="0" result="BackgroundImageFix"/>
<feBlend mode="normal" in="SourceGraphic" in2="BackgroundImageFix" result="shape"/>
<feGaussianBlur stdDeviation="5" result="effect1_foregroundBlur_195_93"/>
</filter>
<filter id="filter2_f_195_93" x="660.178" y="1449.1" width="87.6221" height="36.2148" filterUnits="userSpaceOnUse" color-interpolation-filters="sRGB">
<feFlood flood-opacity="0" result="BackgroundImageFix"/>
<feBlend mode="normal" in="SourceGraphic" in2="BackgroundImageFix" result="shape"/>
<feGaussianBlur stdDeviation="2" result="effect1_foregroundBlur_195_93"/>
</filter>
<filter id="filter3_f_195_93" x="295.53" y="1431.36" width="75.7695" height="50.5713" filterUnits="userSpaceOnUse" color-interpolation-filters="sRGB">
<feFlood flood-opacity="0" result="BackgroundImageFix"/>
<feBlend mode="normal" in="SourceGraphic" in2="BackgroundImageFix" result="shape"/>
<feGaussianBlur stdDeviation="2" result="effect1_foregroundBlur_195_93"/>
</filter>
<filter id="filter4_f_195_93" x="297.412" y="1436.09" width="88.3193" height="41.1113" filterUnits="userSpaceOnUse" color-interpolation-filters="sRGB">
<feFlood flood-opacity="0" result="BackgroundImageFix"/>
<feBlend mode="normal" in="SourceGraphic" in2="BackgroundImageFix" result="shape"/>
<feGaussianBlur stdDeviation="2" result="effect1_foregroundBlur_195_93"/>
</filter>
<filter id="filter5_f_195_93" x="351.793" y="1347.79" width="280.76" height="146.762" filterUnits="userSpaceOnUse" color-interpolation-filters="sRGB">
<feFlood flood-opacity="0" result="BackgroundImageFix"/>
<feBlend mode="normal" in="SourceGraphic" in2="BackgroundImageFix" result="shape"/>
<feGaussianBlur stdDeviation="22.5" result="effect1_foregroundBlur_195_93"/>
</filter>
<filter id="filter6_f_195_93" x="351.793" y="1281.56" width="260.68" height="204.706" filterUnits="userSpaceOnUse" color-interpolation-filters="sRGB">
<feFlood flood-opacity="0" result="BackgroundImageFix"/>
<feBlend mode="normal" in="SourceGraphic" in2="BackgroundImageFix" result="shape"/>
<feGaussianBlur stdDeviation="22.5" result="effect1_foregroundBlur_195_93"/>
</filter>
<filter id="filter7_f_195_93" x="834.2" y="1512.87" width="80.2402" height="86.2227" filterUnits="userSpaceOnUse" color-interpolation-filters="sRGB">
<feFlood flood-opacity="0" result="BackgroundImageFix"/>
<feBlend mode="normal" in="SourceGraphic" in2="BackgroundImageFix" result="shape"/>
<feGaussianBlur stdDeviation="5" result="effect1_foregroundBlur_195_93"/>
</filter>
<filter id="filter8_f_195_93" x="760.693" y="1350.94" width="72.4473" height="29.1396" filterUnits="userSpaceOnUse" color-interpolation-filters="sRGB">
<feFlood flood-opacity="0" result="BackgroundImageFix"/>
<feBlend mode="normal" in="SourceGraphic" in2="BackgroundImageFix" result="shape"/>
<feGaussianBlur stdDeviation="2" result="effect1_foregroundBlur_195_93"/>
</filter>
<filter id="filter9_f_195_93" x="828.977" y="757.516" width="142.799" height="140.011" filterUnits="userSpaceOnUse" color-interpolation-filters="sRGB">
<feFlood flood-opacity="0" result="BackgroundImageFix"/>
<feBlend mode="normal" in="SourceGraphic" in2="BackgroundImageFix" result="shape"/>
<feGaussianBlur stdDeviation="5" result="effect1_foregroundBlur_195_93"/>
</filter>
<filter id="filter10_f_195_93" x="738.797" y="1100.59" width="157.229" height="79.7188" filterUnits="userSpaceOnUse" color-interpolation-filters="sRGB">
<feFlood flood-opacity="0" result="BackgroundImageFix"/>
<feBlend mode="normal" in="SourceGraphic" in2="BackgroundImageFix" result="shape"/>
<feGaussianBlur stdDeviation="2" result="effect1_foregroundBlur_195_93"/>
</filter>
<filter id="filter11_f_195_93" x="1527.12" y="1028.88" width="59.9053" height="165.78" filterUnits="userSpaceOnUse" color-interpolation-filters="sRGB">
<feFlood flood-opacity="0" result="BackgroundImageFix"/>
<feBlend mode="normal" in="SourceGraphic" in2="BackgroundImageFix" result="shape"/>
<feGaussianBlur stdDeviation="2" result="effect1_foregroundBlur_195_93"/>
</filter>
<filter id="filter12_f_195_93" x="1475.21" y="1032.46" width="108.568" height="151.438" filterUnits="userSpaceOnUse" color-interpolation-filters="sRGB">
<feFlood flood-opacity="0" result="BackgroundImageFix"/>
<feBlend mode="normal" in="SourceGraphic" in2="BackgroundImageFix" result="shape"/>
<feGaussianBlur stdDeviation="2" result="effect1_foregroundBlur_195_93"/>
</filter>
<filter id="filter13_f_195_93" x="1002.74" y="937.672" width="459.829" height="219.094" filterUnits="userSpaceOnUse" color-interpolation-filters="sRGB">
<feFlood flood-opacity="0" result="BackgroundImageFix"/>
<feBlend mode="normal" in="SourceGraphic" in2="BackgroundImageFix" result="shape"/>
<feGaussianBlur stdDeviation="22.5" result="effect1_foregroundBlur_195_93"/>
</filter>
<filter id="filter14_f_195_93" x="1038.43" y="787.062" width="414.411" height="348.188" filterUnits="userSpaceOnUse" color-interpolation-filters="sRGB">
<feFlood flood-opacity="0" result="BackgroundImageFix"/>
<feBlend mode="normal" in="SourceGraphic" in2="BackgroundImageFix" result="shape"/>
<feGaussianBlur stdDeviation="22.5" result="effect1_foregroundBlur_195_93"/>
</filter>
<filter id="filter15_f_195_93" x="508.465" y="890.816" width="122.434" height="50.6162" filterUnits="userSpaceOnUse" color-interpolation-filters="sRGB">
<feFlood flood-opacity="0" result="BackgroundImageFix"/>
<feBlend mode="normal" in="SourceGraphic" in2="BackgroundImageFix" result="shape"/>
<feGaussianBlur stdDeviation="2" result="effect1_foregroundBlur_195_93"/>
</filter>
<filter id="filter16_f_195_93" x="0" y="0.0498047" width="1050" height="812.749" filterUnits="userSpaceOnUse" color-interpolation-filters="sRGB">
<feFlood flood-opacity="0" result="BackgroundImageFix"/>
<feBlend mode="normal" in="SourceGraphic" in2="BackgroundImageFix" result="shape"/>
<feGaussianBlur stdDeviation="125" result="effect1_foregroundBlur_195_93"/>
</filter>
<clipPath id="clip0_195_93">
<rect width="753" height="298" fill="white" transform="translate(292 1297)"/>
</clipPath>
</defs>
</svg>
