<svg width="1666" height="2298" viewBox="0 0 1666 2298" fill="none" xmlns="http://www.w3.org/2000/svg">
<g opacity="0.1" filter="url(#filter0_f_195_93)">
<path d="M1619.31 1874.03L1405.28 1746.33C1404.16 1745.66 1402.7 1746.23 1402.4 1747.51C1391.82 1792.32 1443.79 1845.28 1472.9 1867.58C1473.3 1867.89 1473.03 1868.52 1472.52 1868.47L1413.17 1862.43C1412.18 1862.33 1411.26 1862.98 1411.07 1863.95C1404.64 1897.76 1451.62 1939 1522.51 1939C1592.46 1939 1616.77 1898.85 1620.7 1876.99C1620.91 1875.81 1620.33 1874.65 1619.31 1874.03Z" fill="#DB5311"/>
</g>
<g opacity="0.1" filter="url(#filter1_f_195_93)">
<path d="M1108.31 1529.34L1009.2 1588.67C1008.07 1589.34 1006.61 1588.77 1006.39 1587.47C1002.75 1566.9 1025.65 1543.11 1039.24 1532.45C1039.63 1532.14 1039.38 1531.49 1038.87 1531.54L1012.67 1534.22C1011.68 1534.32 1010.75 1533.67 1010.62 1532.69C1008.55 1516.83 1030.55 1498 1063.44 1498C1095.46 1498 1107.25 1515.85 1109.65 1526.4C1109.92 1527.56 1109.34 1528.73 1108.31 1529.34Z" fill="#DB5311"/>
</g>
<g opacity="0.2" filter="url(#filter2_f_195_93)">
<path d="M1061.06 1768.6L1183.45 1799.66C1184.26 1799.86 1185.15 1799.55 1185.48 1798.78C1190.01 1788.4 1163.8 1776.42 1146.89 1770.58C1146.34 1770.39 1146.5 1769.54 1147.08 1769.57L1178.71 1770.94C1179.46 1770.97 1180.21 1770.59 1180.38 1769.86C1182.35 1761.64 1155.4 1752 1115.3 1752C1079.67 1752 1064.39 1759.61 1059.61 1765.14C1058.49 1766.44 1059.39 1768.18 1061.06 1768.6Z" fill="#F3A900"/>
</g>
<g opacity="0.1" filter="url(#filter3_f_195_93)">
<path d="M523.71 1735.31C550.848 1718.6 576.359 1719.61 585.435 1727.5C586.611 1728.52 585.818 1730.22 584.275 1730.41C549.495 1734.51 511.087 1757.71 480.794 1793.29C479.773 1794.49 477.984 1794.12 478 1792.54C478.133 1779.4 497.866 1750.13 523.71 1735.31Z" fill="#10B5A8"/>
</g>
<g style="mix-blend-mode:multiply" opacity="0.1" filter="url(#filter4_f_195_93)">
<path d="M484.043 1785.97L607.392 1769.4C608.417 1769.27 609.231 1768.38 608.94 1767.4C605.038 1754.19 553.591 1758.61 533.261 1760C532.663 1760.05 532.504 1759.23 533.064 1759.02L587.031 1738.77C587.88 1738.45 588.461 1737.61 588.206 1736.75C585.206 1726.58 556.43 1727.05 521.773 1744.05C489.763 1759.75 481.425 1775.47 481.003 1783.55C480.92 1785.15 482.441 1786.19 484.043 1785.97Z" fill="#10B5A8"/>
</g>
<g opacity="0.25" filter="url(#filter5_f_195_93)">
<path d="M811.385 1741.25C892.218 1727.26 937.926 1680.28 936.986 1651.71C936.936 1650.21 935.229 1649.51 934.002 1650.39C862.956 1701.4 751.466 1721.85 635.166 1704.36C633.655 1704.13 632.47 1705.55 633.244 1706.87C648.024 1731.89 736.384 1756.63 811.385 1741.25Z" fill="#175773"/>
</g>
<g style="mix-blend-mode:multiply" opacity="0.25" filter="url(#filter6_f_195_93)">
<path d="M634.307 1706.76L888.067 1538.32C888.891 1537.78 890.028 1537.93 890.604 1538.73C911.794 1568.29 800.066 1648.87 763.759 1676.83C763.305 1677.17 763.743 1677.85 764.28 1677.65L900.293 1626.63C901.107 1626.33 902.045 1626.58 902.523 1627.31C917.361 1649.85 864.473 1696.28 772.508 1720.88C683.659 1744.64 643.969 1725.12 633.475 1710.56C632.571 1709.3 633.018 1707.61 634.307 1706.76Z" fill="#10B5A8"/>
</g>
<g style="mix-blend-mode:multiply" opacity="0.2" filter="url(#filter7_f_195_93)">
<path d="M1414.15 1895.87C1437.91 1915.39 1445.07 1938.79 1440.86 1949.64C1440.27 1951.17 1438.28 1950.96 1437.56 1949.48C1422.81 1919.11 1389.49 1891.28 1347.34 1874.54C1345.78 1873.92 1345.55 1872.02 1347.16 1871.54C1359.6 1867.88 1392.51 1876.94 1414.15 1895.87Z" fill="#10B5A8"/>
<path d="M1346.34 1874.32L1400.08 1980.88C1400.57 1981.85 1401.75 1982.36 1402.64 1981.71C1413.39 1973.84 1393.63 1929.22 1385.93 1911.06C1385.68 1910.48 1386.45 1910.03 1386.86 1910.52L1422.29 1952.93C1422.91 1953.67 1423.97 1953.96 1424.75 1953.4C1433.11 1947.37 1423.66 1921.49 1397.11 1895.39C1372.75 1871.43 1355.58 1868.52 1347.79 1870.51C1346.12 1870.94 1345.57 1872.8 1346.34 1874.32Z" fill="#10B5A8"/>
</g>
<g opacity="0.15" filter="url(#filter8_f_195_93)">
<path d="M1221.2 1598.62L1319.75 1621.7C1320.52 1621.88 1321.38 1621.59 1321.68 1620.85C1324.77 1613.3 1304.8 1604.69 1291.19 1600.25C1290.63 1600.07 1290.79 1599.19 1291.37 1599.22L1315.9 1600.19C1316.62 1600.22 1317.37 1599.87 1317.48 1599.16C1318.48 1593.05 1296.73 1586 1264.56 1586C1237 1586 1224.43 1591.18 1219.93 1595.25C1218.62 1596.43 1219.48 1598.22 1221.2 1598.62Z" fill="#175773"/>
</g>
<g opacity="0.1" filter="url(#filter9_f_195_93)">
<path d="M843.21 916.525L958.991 994.009C960.819 995.233 963.202 994.192 963.491 991.851C966.772 965.205 940.876 934.829 924.954 920.685C924.316 920.118 924.75 918.963 925.564 919.056L955.103 922.427C956.719 922.611 958.239 921.447 958.383 919.66C960.067 898.826 934.162 874.516 895.687 874.516C858.505 874.516 844.339 897.221 841.1 911.281C840.625 913.345 841.562 915.421 843.21 916.525Z" fill="#DB5311"/>
</g>
<g opacity="0.2" filter="url(#filter10_f_195_93)">
<path d="M889.611 1283.19L746.996 1248.43C745.715 1248.11 744.66 1246.95 744.811 1245.52C746.192 1232.42 777.272 1233.55 797.781 1236.46C798.711 1236.6 799.102 1235.1 798.244 1234.68L766.307 1219.16C765.233 1218.64 764.398 1217.46 764.792 1216.25C767.911 1206.67 800.701 1211.54 842.187 1234.02C877.611 1253.22 890.542 1269.64 893.799 1278.91C894.8 1281.76 892.326 1283.85 889.611 1283.19Z" fill="#10B5A8"/>
</g>
<g opacity="0.1" filter="url(#filter11_f_195_93)">
<path d="M1580.85 1203.65C1572.15 1164.71 1550.47 1142.33 1535.87 1139.91C1533.36 1139.5 1532.29 1142.49 1533.84 1144.63C1559.43 1180.12 1572.2 1235.38 1568.06 1294.43C1567.87 1297.15 1570.3 1298.8 1571.95 1296.71C1582.62 1283.18 1590.07 1239.85 1580.85 1203.65Z" fill="#10B5A8"/>
</g>
<g style="mix-blend-mode:multiply" opacity="0.1" filter="url(#filter12_f_195_93)">
<path d="M1569.26 1284.92L1481.85 1157.63C1480.87 1156.21 1480.97 1154.09 1482.46 1153.4C1497.05 1146.69 1534.06 1195.03 1550.06 1215.45C1550.67 1216.23 1551.75 1215.43 1551.37 1214.49L1524.39 1148.01C1523.81 1146.58 1524.11 1144.81 1525.41 1144.17C1536.68 1138.66 1559.67 1165.48 1573.91 1212.37C1586.77 1254.73 1581.39 1276.91 1575.21 1285.51C1573.63 1287.7 1570.79 1287.14 1569.26 1284.92Z" fill="#10B5A8"/>
</g>
<g opacity="0.25" filter="url(#filter13_f_195_93)">
<path d="M1202.79 1212.34C1105.54 1193.67 1050.02 1131.51 1049.74 1092.76C1049.72 1090.05 1052.48 1088.79 1054.48 1090.36C1140.81 1158.48 1275.52 1185.84 1416.14 1162.69C1418.59 1162.29 1420.48 1164.84 1419.11 1167.12C1399.14 1200.51 1293.03 1232.87 1202.79 1212.34Z" fill="#DB5311"/>
</g>
<g style="mix-blend-mode:multiply" opacity="0.25" filter="url(#filter14_f_195_93)">
<path d="M1407.79 1162.96L1106.22 939.64C1104.91 938.67 1103.1 938.923 1102.24 940.387C1078.9 979.937 1208.82 1084.96 1253.02 1122.82C1253.75 1123.44 1253.12 1124.69 1252.26 1124.33L1091.59 1057.1C1090.3 1056.55 1088.8 1057 1088.08 1058.31C1071.42 1088.54 1134.48 1149.86 1243.65 1182.43C1348 1213.56 1395.56 1188.93 1409.03 1169.65C1410.54 1167.49 1409.84 1164.47 1407.79 1162.96Z" fill="#F3A900"/>
</g>
<g opacity="0.15" filter="url(#filter15_f_195_93)">
<path d="M625.943 1017.33L517.579 1044.34C516.347 1044.65 514.947 1044.17 514.617 1042.82C512.544 1034.38 532.146 1024.96 546.902 1019.62C547.814 1019.29 547.567 1017.67 546.608 1017.71L521.849 1018.76C520.708 1018.81 519.443 1018.18 519.503 1016.91C519.843 1009.76 543.891 1001.82 578.968 1001.82C607.347 1001.82 621.573 1007.02 627.636 1011.63C630.026 1013.45 628.774 1016.62 625.943 1017.33Z" fill="#F3A900"/>
</g>
<g opacity="0.5" filter="url(#filter16_f_195_93)">
<path d="M447.61 467.802C463.482 494.87 545.956 480.332 631.875 435.349C714.798 391.928 770.559 336.007 760.105 307.823C759.51 306.204 757.472 305.534 755.882 306.344L447.64 467.775L447.61 467.802Z" fill="#DB5311"/>
<path d="M447.61 467.803C452.162 498.442 534.696 512.813 631.934 499.922C725.816 487.448 799.071 454.157 799.998 424.299C800.053 422.597 798.408 421.257 796.61 421.48L447.64 467.775L447.61 467.803Z" fill="#DB5311"/>
<path d="M447.61 467.802C429.312 493.446 480.432 556.316 561.857 608.248C640.438 658.365 718.45 679.936 740.284 658.337C741.542 657.11 741.242 655.072 739.744 654.096L447.61 467.802Z" fill="#10B5A8"/>
<path d="M447.611 467.802C420.778 485.549 444.706 561.563 501.006 637.604C555.36 710.994 620.016 757.593 648.585 744.813C650.232 744.09 650.742 742.08 649.693 740.685L447.611 467.802Z" fill="#175773"/>
<path d="M447.61 467.802L541.524 594.602C472.167 545.768 430.9 491.242 447.61 467.802Z" fill="#027B77"/>
<path d="M447.61 467.802C440.244 497.939 511.817 539.323 607.497 560.223C703.178 581.124 780.89 574.12 793.051 546.55C793.738 544.959 792.719 543.173 790.951 542.783L447.61 467.802Z" fill="#F3A900"/>
<path d="M447.61 467.802L607.168 502.628C521.07 510.19 451.773 495.79 447.61 467.802Z" fill="#C0450C"/>
<path d="M423.024 470.323C418.375 472.793 255.091 558.178 255.091 558.178C251.586 560.002 248.217 555.624 251.072 552.985C251.072 552.985 363.244 451.853 373.567 445.258C383.891 438.663 402.016 433.771 417.128 451.019C417.128 451.019 422.818 457.762 425.178 460.616C427.538 463.47 427.673 467.853 423.024 470.323Z" fill="#175773"/>
</g>
<defs>
<filter id="filter0_f_195_93" x="1356" y="1701.04" width="309.743" height="282.956" filterUnits="userSpaceOnUse" color-interpolation-filters="sRGB">
<feFlood flood-opacity="0" result="BackgroundImageFix"/>
<feBlend mode="normal" in="SourceGraphic" in2="BackgroundImageFix" result="shape"/>
<feGaussianBlur stdDeviation="22.5" result="effect1_foregroundBlur_195_93"/>
</filter>
<filter id="filter1_f_195_93" x="996" y="1488" width="123.714" height="110.951" filterUnits="userSpaceOnUse" color-interpolation-filters="sRGB">
<feFlood flood-opacity="0" result="BackgroundImageFix"/>
<feBlend mode="normal" in="SourceGraphic" in2="BackgroundImageFix" result="shape"/>
<feGaussianBlur stdDeviation="5" result="effect1_foregroundBlur_195_93"/>
</filter>
<filter id="filter2_f_195_93" x="1055.11" y="1748" width="134.887" height="55.7188" filterUnits="userSpaceOnUse" color-interpolation-filters="sRGB">
<feFlood flood-opacity="0" result="BackgroundImageFix"/>
<feBlend mode="normal" in="SourceGraphic" in2="BackgroundImageFix" result="shape"/>
<feGaussianBlur stdDeviation="2" result="effect1_foregroundBlur_195_93"/>
</filter>
<filter id="filter3_f_195_93" x="474" y="1718" width="116" height="80" filterUnits="userSpaceOnUse" color-interpolation-filters="sRGB">
<feFlood flood-opacity="0" result="BackgroundImageFix"/>
<feBlend mode="normal" in="SourceGraphic" in2="BackgroundImageFix" result="shape"/>
<feGaussianBlur stdDeviation="2" result="effect1_foregroundBlur_195_93"/>
</filter>
<filter id="filter4_f_195_93" x="477" y="1726" width="136" height="64" filterUnits="userSpaceOnUse" color-interpolation-filters="sRGB">
<feFlood flood-opacity="0" result="BackgroundImageFix"/>
<feBlend mode="normal" in="SourceGraphic" in2="BackgroundImageFix" result="shape"/>
<feGaussianBlur stdDeviation="2" result="effect1_foregroundBlur_195_93"/>
</filter>
<filter id="filter5_f_195_93" x="588" y="1605" width="394" height="186" filterUnits="userSpaceOnUse" color-interpolation-filters="sRGB">
<feFlood flood-opacity="0" result="BackgroundImageFix"/>
<feBlend mode="normal" in="SourceGraphic" in2="BackgroundImageFix" result="shape"/>
<feGaussianBlur stdDeviation="22.5" result="effect1_foregroundBlur_195_93"/>
</filter>
<filter id="filter6_f_195_93" x="588" y="1493" width="362" height="284" filterUnits="userSpaceOnUse" color-interpolation-filters="sRGB">
<feFlood flood-opacity="0" result="BackgroundImageFix"/>
<feBlend mode="normal" in="SourceGraphic" in2="BackgroundImageFix" result="shape"/>
<feGaussianBlur stdDeviation="22.5" result="effect1_foregroundBlur_195_93"/>
</filter>
<filter id="filter7_f_195_93" x="1336" y="1860" width="116" height="132" filterUnits="userSpaceOnUse" color-interpolation-filters="sRGB">
<feFlood flood-opacity="0" result="BackgroundImageFix"/>
<feBlend mode="normal" in="SourceGraphic" in2="BackgroundImageFix" result="shape"/>
<feGaussianBlur stdDeviation="5" result="effect1_foregroundBlur_195_93"/>
</filter>
<filter id="filter8_f_195_93" x="1215.3" y="1582" width="110.705" height="43.7529" filterUnits="userSpaceOnUse" color-interpolation-filters="sRGB">
<feFlood flood-opacity="0" result="BackgroundImageFix"/>
<feBlend mode="normal" in="SourceGraphic" in2="BackgroundImageFix" result="shape"/>
<feGaussianBlur stdDeviation="2" result="effect1_foregroundBlur_195_93"/>
</filter>
<filter id="filter9_f_195_93" x="830.977" y="864.516" width="142.799" height="140.011" filterUnits="userSpaceOnUse" color-interpolation-filters="sRGB">
<feFlood flood-opacity="0" result="BackgroundImageFix"/>
<feBlend mode="normal" in="SourceGraphic" in2="BackgroundImageFix" result="shape"/>
<feGaussianBlur stdDeviation="5" result="effect1_foregroundBlur_195_93"/>
</filter>
<filter id="filter10_f_195_93" x="740.797" y="1207.59" width="157.229" height="79.7188" filterUnits="userSpaceOnUse" color-interpolation-filters="sRGB">
<feFlood flood-opacity="0" result="BackgroundImageFix"/>
<feBlend mode="normal" in="SourceGraphic" in2="BackgroundImageFix" result="shape"/>
<feGaussianBlur stdDeviation="2" result="effect1_foregroundBlur_195_93"/>
</filter>
<filter id="filter11_f_195_93" x="1529.12" y="1135.88" width="59.9053" height="165.78" filterUnits="userSpaceOnUse" color-interpolation-filters="sRGB">
<feFlood flood-opacity="0" result="BackgroundImageFix"/>
<feBlend mode="normal" in="SourceGraphic" in2="BackgroundImageFix" result="shape"/>
<feGaussianBlur stdDeviation="2" result="effect1_foregroundBlur_195_93"/>
</filter>
<filter id="filter12_f_195_93" x="1477.21" y="1139.46" width="108.568" height="151.438" filterUnits="userSpaceOnUse" color-interpolation-filters="sRGB">
<feFlood flood-opacity="0" result="BackgroundImageFix"/>
<feBlend mode="normal" in="SourceGraphic" in2="BackgroundImageFix" result="shape"/>
<feGaussianBlur stdDeviation="2" result="effect1_foregroundBlur_195_93"/>
</filter>
<filter id="filter13_f_195_93" x="1004.74" y="1044.67" width="459.829" height="219.094" filterUnits="userSpaceOnUse" color-interpolation-filters="sRGB">
<feFlood flood-opacity="0" result="BackgroundImageFix"/>
<feBlend mode="normal" in="SourceGraphic" in2="BackgroundImageFix" result="shape"/>
<feGaussianBlur stdDeviation="22.5" result="effect1_foregroundBlur_195_93"/>
</filter>
<filter id="filter14_f_195_93" x="1040.43" y="894.062" width="414.411" height="348.188" filterUnits="userSpaceOnUse" color-interpolation-filters="sRGB">
<feFlood flood-opacity="0" result="BackgroundImageFix"/>
<feBlend mode="normal" in="SourceGraphic" in2="BackgroundImageFix" result="shape"/>
<feGaussianBlur stdDeviation="22.5" result="effect1_foregroundBlur_195_93"/>
</filter>
<filter id="filter15_f_195_93" x="510.465" y="997.816" width="122.434" height="50.6162" filterUnits="userSpaceOnUse" color-interpolation-filters="sRGB">
<feFlood flood-opacity="0" result="BackgroundImageFix"/>
<feBlend mode="normal" in="SourceGraphic" in2="BackgroundImageFix" result="shape"/>
<feGaussianBlur stdDeviation="2" result="effect1_foregroundBlur_195_93"/>
</filter>
<filter id="filter16_f_195_93" x="0" y="56" width="1050" height="940.919" filterUnits="userSpaceOnUse" color-interpolation-filters="sRGB">
<feFlood flood-opacity="0" result="BackgroundImageFix"/>
<feBlend mode="normal" in="SourceGraphic" in2="BackgroundImageFix" result="shape"/>
<feGaussianBlur stdDeviation="125" result="effect1_foregroundBlur_195_93"/>
</filter>
</defs>
</svg>
