<svg width="1666" height="2707" viewBox="0 0 1666 2707" fill="none" xmlns="http://www.w3.org/2000/svg">
<g opacity="0.1" filter="url(#filter0_f_195_93)">
<path d="M1619.31 1818.03L1405.28 1690.33C1404.16 1689.66 1402.7 1690.23 1402.4 1691.51C1391.82 1736.32 1443.79 1789.28 1472.9 1811.58C1473.3 1811.89 1473.03 1812.52 1472.52 1812.47L1413.17 1806.43C1412.18 1806.33 1411.26 1806.98 1411.07 1807.95C1404.64 1841.76 1451.62 1883 1522.51 1883C1592.46 1883 1616.77 1842.85 1620.7 1820.99C1620.91 1819.81 1620.33 1818.65 1619.31 1818.03Z" fill="#DB5311"/>
</g>
<g opacity="0.1" filter="url(#filter1_f_195_93)">
<path d="M1108.31 1473.34L1009.2 1532.67C1008.07 1533.34 1006.61 1532.77 1006.39 1531.47C1002.75 1510.9 1025.65 1487.11 1039.24 1476.45C1039.63 1476.14 1039.38 1475.49 1038.87 1475.54L1012.67 1478.22C1011.68 1478.32 1010.75 1477.67 1010.62 1476.69C1008.55 1460.83 1030.55 1442 1063.44 1442C1095.46 1442 1107.25 1459.85 1109.65 1470.4C1109.92 1471.56 1109.34 1472.73 1108.31 1473.34Z" fill="#DB5311"/>
</g>
<g opacity="0.2" filter="url(#filter2_f_195_93)">
<path d="M1061.06 1712.6L1183.45 1743.66C1184.26 1743.86 1185.15 1743.55 1185.48 1742.78C1190.01 1732.4 1163.8 1720.42 1146.89 1714.58C1146.34 1714.39 1146.5 1713.54 1147.08 1713.57L1178.71 1714.94C1179.46 1714.97 1180.21 1714.59 1180.38 1713.86C1182.35 1705.64 1155.4 1696 1115.3 1696C1079.67 1696 1064.39 1703.61 1059.61 1709.14C1058.49 1710.44 1059.39 1712.18 1061.06 1712.6Z" fill="#F3A900"/>
</g>
<g opacity="0.1" filter="url(#filter3_f_195_93)">
<path d="M523.71 1679.31C550.848 1662.6 576.359 1663.61 585.435 1671.5C586.611 1672.52 585.818 1674.22 584.275 1674.41C549.495 1678.51 511.087 1701.71 480.794 1737.29C479.773 1738.49 477.984 1738.12 478 1736.54C478.133 1723.4 497.866 1694.13 523.71 1679.31Z" fill="#10B5A8"/>
</g>
<g style="mix-blend-mode:multiply" opacity="0.1" filter="url(#filter4_f_195_93)">
<path d="M484.043 1729.97L607.392 1713.4C608.417 1713.27 609.231 1712.38 608.94 1711.4C605.038 1698.19 553.591 1702.61 533.261 1704C532.663 1704.05 532.504 1703.23 533.064 1703.02L587.031 1682.77C587.88 1682.45 588.461 1681.61 588.206 1680.75C585.206 1670.58 556.43 1671.05 521.773 1688.05C489.763 1703.75 481.425 1719.47 481.003 1727.55C480.92 1729.15 482.441 1730.19 484.043 1729.97Z" fill="#10B5A8"/>
</g>
<g opacity="0.25" filter="url(#filter5_f_195_93)">
<path d="M811.385 1685.25C892.218 1671.26 937.926 1624.28 936.986 1595.71C936.936 1594.21 935.229 1593.51 934.002 1594.39C862.956 1645.4 751.466 1665.85 635.166 1648.36C633.655 1648.13 632.47 1649.55 633.244 1650.87C648.024 1675.89 736.384 1700.63 811.385 1685.25Z" fill="#175773"/>
</g>
<g style="mix-blend-mode:multiply" opacity="0.25" filter="url(#filter6_f_195_93)">
<path d="M634.307 1650.76L888.067 1482.32C888.891 1481.78 890.028 1481.93 890.604 1482.73C911.794 1512.29 800.066 1592.87 763.759 1620.83C763.305 1621.17 763.743 1621.85 764.28 1621.65L900.293 1570.63C901.107 1570.33 902.045 1570.58 902.523 1571.31C917.361 1593.85 864.473 1640.28 772.508 1664.88C683.659 1688.64 643.969 1669.12 633.475 1654.56C632.571 1653.3 633.018 1651.61 634.307 1650.76Z" fill="#10B5A8"/>
</g>
<g style="mix-blend-mode:multiply" opacity="0.2" filter="url(#filter7_f_195_93)">
<path d="M1414.15 1839.87C1437.91 1859.39 1445.07 1882.79 1440.86 1893.64C1440.27 1895.17 1438.28 1894.96 1437.56 1893.48C1422.81 1863.11 1389.49 1835.28 1347.34 1818.54C1345.78 1817.92 1345.55 1816.02 1347.16 1815.54C1359.6 1811.88 1392.51 1820.94 1414.15 1839.87Z" fill="#10B5A8"/>
<path d="M1346.34 1818.32L1400.08 1924.88C1400.57 1925.85 1401.75 1926.36 1402.64 1925.71C1413.39 1917.84 1393.63 1873.22 1385.93 1855.06C1385.68 1854.48 1386.45 1854.03 1386.86 1854.52L1422.29 1896.93C1422.91 1897.67 1423.97 1897.96 1424.75 1897.4C1433.11 1891.37 1423.66 1865.49 1397.11 1839.39C1372.75 1815.43 1355.58 1812.52 1347.79 1814.51C1346.12 1814.94 1345.57 1816.8 1346.34 1818.32Z" fill="#10B5A8"/>
</g>
<g opacity="0.15" filter="url(#filter8_f_195_93)">
<path d="M1221.2 1542.62L1319.75 1565.7C1320.52 1565.88 1321.38 1565.59 1321.68 1564.85C1324.77 1557.3 1304.8 1548.69 1291.19 1544.25C1290.63 1544.07 1290.79 1543.19 1291.37 1543.22L1315.9 1544.19C1316.62 1544.22 1317.37 1543.87 1317.48 1543.16C1318.48 1537.05 1296.73 1530 1264.56 1530C1237 1530 1224.43 1535.18 1219.93 1539.25C1218.62 1540.43 1219.48 1542.22 1221.2 1542.62Z" fill="#175773"/>
</g>
<g opacity="0.1" filter="url(#filter9_f_195_93)">
<path d="M843.21 860.525L958.991 938.009C960.819 939.233 963.202 938.192 963.491 935.851C966.772 909.205 940.876 878.829 924.954 864.685C924.316 864.118 924.75 862.963 925.564 863.056L955.103 866.427C956.719 866.611 958.239 865.447 958.383 863.66C960.067 842.826 934.162 818.516 895.687 818.516C858.505 818.516 844.339 841.221 841.1 855.281C840.625 857.345 841.562 859.421 843.21 860.525Z" fill="#DB5311"/>
</g>
<g opacity="0.2" filter="url(#filter10_f_195_93)">
<path d="M889.611 1227.19L746.996 1192.43C745.715 1192.11 744.66 1190.95 744.811 1189.52C746.192 1176.42 777.272 1177.55 797.781 1180.46C798.711 1180.6 799.102 1179.1 798.244 1178.68L766.307 1163.16C765.233 1162.64 764.398 1161.46 764.792 1160.25C767.911 1150.67 800.701 1155.54 842.187 1178.02C877.611 1197.22 890.542 1213.64 893.799 1222.91C894.8 1225.76 892.326 1227.85 889.611 1227.19Z" fill="#10B5A8"/>
</g>
<g opacity="0.1" filter="url(#filter11_f_195_93)">
<path d="M1580.85 1147.65C1572.15 1108.71 1550.47 1086.33 1535.87 1083.91C1533.36 1083.5 1532.29 1086.49 1533.84 1088.63C1559.43 1124.12 1572.2 1179.38 1568.06 1238.43C1567.87 1241.15 1570.3 1242.8 1571.95 1240.71C1582.62 1227.18 1590.07 1183.85 1580.85 1147.65Z" fill="#10B5A8"/>
</g>
<g style="mix-blend-mode:multiply" opacity="0.1" filter="url(#filter12_f_195_93)">
<path d="M1569.26 1228.92L1481.85 1101.63C1480.87 1100.21 1480.97 1098.09 1482.46 1097.4C1497.05 1090.69 1534.06 1139.03 1550.06 1159.45C1550.67 1160.23 1551.75 1159.43 1551.37 1158.49L1524.39 1092.01C1523.81 1090.58 1524.11 1088.81 1525.41 1088.17C1536.68 1082.66 1559.67 1109.48 1573.91 1156.37C1586.77 1198.73 1581.39 1220.91 1575.21 1229.51C1573.63 1231.7 1570.79 1231.14 1569.26 1228.92Z" fill="#10B5A8"/>
</g>
<g opacity="0.25" filter="url(#filter13_f_195_93)">
<path d="M1202.79 1156.34C1105.54 1137.67 1050.02 1075.51 1049.74 1036.76C1049.72 1034.05 1052.48 1032.79 1054.48 1034.36C1140.81 1102.48 1275.52 1129.84 1416.14 1106.69C1418.59 1106.29 1420.48 1108.84 1419.11 1111.12C1399.14 1144.51 1293.03 1176.87 1202.79 1156.34Z" fill="#DB5311"/>
</g>
<g style="mix-blend-mode:multiply" opacity="0.25" filter="url(#filter14_f_195_93)">
<path d="M1407.79 1106.96L1106.22 883.64C1104.91 882.67 1103.1 882.923 1102.24 884.387C1078.9 923.937 1208.82 1028.96 1253.02 1066.82C1253.75 1067.44 1253.12 1068.69 1252.26 1068.33L1091.59 1001.1C1090.3 1000.55 1088.8 1001 1088.08 1002.31C1071.42 1032.54 1134.48 1093.86 1243.65 1126.43C1348 1157.56 1395.56 1132.93 1409.03 1113.65C1410.54 1111.49 1409.84 1108.47 1407.79 1106.96Z" fill="#F3A900"/>
</g>
<g opacity="0.15" filter="url(#filter15_f_195_93)">
<path d="M625.943 961.326L517.579 988.344C516.347 988.65 514.947 988.168 514.617 986.822C512.544 978.379 532.146 968.964 546.902 963.617C547.814 963.286 547.567 961.668 546.608 961.709L521.849 962.762C520.708 962.81 519.443 962.175 519.503 960.914C519.843 953.762 543.891 945.816 578.968 945.816C607.347 945.816 621.573 951.017 627.636 955.634C630.026 957.454 628.774 960.621 625.943 961.326Z" fill="#F3A900"/>
</g>
<g clip-path="url(#clip0_195_93)">
<mask id="mask0_195_93" style="mask-type:luminance" maskUnits="userSpaceOnUse" x="497" y="2144" width="1138" height="563">
<path d="M1635 2144H497V2707H1635V2144Z" fill="white"/>
</mask>
<g mask="url(#mask0_195_93)">
<g opacity="0.1" filter="url(#filter16_f_195_93)">
<path d="M887.322 2203.04L994.202 2267.75C995.89 2268.77 998.09 2267.9 998.356 2265.95C1001.39 2243.69 977.48 2218.33 962.782 2206.51C962.193 2206.04 962.593 2205.08 963.345 2205.15L990.613 2207.97C992.105 2208.12 993.508 2207.15 993.641 2205.66C995.195 2188.26 971.282 2167.96 935.765 2167.96C901.44 2167.96 888.364 2186.92 885.374 2198.66C884.935 2200.38 885.8 2202.12 887.322 2203.04Z" fill="#DB5311"/>
</g>
<g opacity="0.2" filter="url(#filter17_f_195_93)">
<path d="M935.643 2474.38L799.846 2508.84C798.63 2509.15 797.278 2508.67 796.86 2507.49C792.891 2496.21 820.345 2483.39 839.076 2476.78C839.899 2476.49 839.654 2475.2 838.781 2475.24L805.111 2476.69C803.997 2476.74 802.844 2476.17 802.703 2475.06C801.547 2465.93 831.558 2455.45 875.868 2455.45C914.058 2455.45 931.426 2463.24 937.603 2469.34C939.431 2471.15 938.133 2473.75 935.643 2474.38Z" fill="#F3A900"/>
</g>
<g opacity="0.1" filter="url(#filter18_f_195_93)">
<path d="M1562.64 2428.04C1534.74 2410.36 1508.47 2410.87 1498.13 2418.76C1496.36 2420.1 1497.43 2422.55 1499.61 2422.84C1535.86 2427.67 1575.69 2452.49 1607.34 2490.37C1608.79 2492.1 1611.22 2491.54 1611.03 2489.25C1609.77 2474.38 1589.26 2443.76 1562.64 2428.04Z" fill="#10B5A8"/>
</g>
<g style="mix-blend-mode:multiply" opacity="0.1" filter="url(#filter19_f_195_93)">
<path d="M1606.83 2482.36L1475.52 2464.82C1474.05 2464.63 1472.87 2463.35 1473.43 2461.99C1478.9 2448.81 1531.23 2453.03 1553.57 2454.58C1554.43 2454.64 1554.66 2453.49 1553.85 2453.19L1497.34 2432.1C1496.12 2431.64 1495.27 2430.43 1495.74 2429.23C1499.77 2418.86 1530.4 2419.63 1567.16 2437.56C1600.39 2453.76 1609.95 2469.99 1611.02 2478.9C1611.29 2481.17 1609.12 2482.67 1606.83 2482.36Z" fill="#10B5A8"/>
</g>
<g opacity="0.25" filter="url(#filter20_f_195_93)">
<path d="M1218.28 2438.1C1130.08 2422.51 1079.72 2370.6 1079.48 2338.23C1079.46 2335.98 1081.96 2334.92 1083.77 2336.23C1162.07 2393.13 1284.24 2415.98 1411.78 2396.64C1414 2396.3 1415.71 2398.44 1414.47 2400.34C1396.36 2428.22 1300.12 2455.25 1218.28 2438.1Z" fill="#DB5311"/>
</g>
<g style="mix-blend-mode:multiply" opacity="0.25" filter="url(#filter21_f_195_93)">
<path d="M1414.45 2396.86L1130.5 2210.37C1129.26 2209.56 1127.56 2209.77 1126.75 2210.99C1104.77 2244.02 1227.1 2331.73 1268.73 2363.34C1269.41 2363.86 1268.82 2364.9 1268.01 2364.6L1116.72 2308.45C1115.5 2308 1114.1 2308.37 1113.42 2309.47C1097.73 2334.71 1157.1 2385.92 1259.9 2413.12C1358.15 2439.12 1402.94 2418.55 1415.62 2402.45C1417.04 2400.65 1416.38 2398.13 1414.45 2396.86Z" fill="#F3A900"/>
</g>
<g opacity="0.25" filter="url(#filter22_f_195_93)">
<path d="M548.999 2589.44C525.868 2607.98 518.366 2630.09 521.717 2641.17C522.34 2643.23 524.966 2642.99 525.954 2641.07C540.925 2611.91 573.713 2585.23 615.116 2568.93C617.205 2568.11 617.443 2565.7 615.235 2565.24C601.907 2562.49 570.123 2571.41 548.999 2589.44Z" fill="#10B5A8"/>
</g>
<g style="mix-blend-mode:multiply" opacity="0.2" filter="url(#filter23_f_195_93)">
<path d="M619.323 2568.83L564.688 2681.47C564.015 2682.86 562.363 2683.6 561.258 2682.54C551.509 2673.22 570.404 2628.21 578.512 2608.41C578.85 2607.58 577.794 2606.97 577.237 2607.66L541.854 2651.69C541.011 2652.74 539.539 2653.17 538.543 2652.27C530.702 2645.21 540.572 2617.95 567.462 2590.46C591.568 2565.81 608.836 2561.96 617.281 2563.58C619.605 2564.02 620.373 2566.67 619.323 2568.83Z" fill="#10B5A8"/>
</g>
<g opacity="0.15" filter="url(#filter24_f_195_93)">
<path d="M755.958 2276.8L667.63 2299.21C666.413 2299.52 665.016 2299.04 664.783 2297.81C663.461 2290.81 679.362 2283.06 691.347 2278.64C692.167 2278.34 691.919 2277.02 691.046 2277.06L671.068 2277.93C669.954 2277.97 668.744 2277.37 668.849 2276.26C669.415 2270.32 689.066 2263.79 717.635 2263.79C740.982 2263.79 752.655 2268.15 757.608 2272.02C759.634 2273.6 758.448 2276.16 755.958 2276.8Z" fill="#175773"/>
</g>
</g>
</g>
<g opacity="0.5" filter="url(#filter25_f_195_93)">
<path d="M447.61 422.997C463.482 451.938 545.956 436.394 631.875 388.298C714.798 341.874 770.559 282.083 760.105 251.949C759.51 250.219 757.472 249.502 755.882 250.368L447.64 422.968L447.61 422.997Z" fill="#DB5311"/>
<path d="M447.61 422.998C452.162 455.757 534.696 471.123 631.934 457.339C725.816 444.002 799.071 408.408 799.998 376.484C800.053 374.664 798.408 373.232 796.61 373.47L447.64 422.968L447.61 422.998Z" fill="#DB5311"/>
<path d="M447.61 422.997C429.312 450.416 480.432 517.636 561.857 573.161C640.438 626.746 718.45 649.809 740.284 626.716C741.542 625.403 741.242 623.225 739.744 622.181L447.61 422.997Z" fill="#10B5A8"/>
<path d="M447.611 422.997C420.778 441.973 444.706 523.245 501.006 604.548C555.36 683.016 620.016 732.839 648.585 719.175C650.232 718.402 650.742 716.253 649.693 714.762L447.611 422.997Z" fill="#175773"/>
<path d="M447.61 422.997L541.524 558.571C472.167 506.358 430.9 448.059 447.61 422.997Z" fill="#027B77"/>
<path d="M447.61 422.997C440.244 455.22 511.817 499.467 607.497 521.813C703.178 544.16 780.89 536.671 793.051 507.194C793.738 505.493 792.719 503.584 790.951 503.166L447.61 422.997Z" fill="#F3A900"/>
<path d="M447.61 422.997L607.168 460.232C521.07 468.318 451.773 452.922 447.61 422.997Z" fill="#C0450C"/>
<path d="M423.024 425.692C418.375 428.333 255.091 519.627 255.091 519.627C251.586 521.576 248.217 516.896 251.072 514.075C251.072 514.075 363.244 405.945 373.567 398.893C383.891 391.842 402.016 386.612 417.128 405.053C417.128 405.053 422.818 412.263 425.178 415.314C427.538 418.365 427.673 423.052 423.024 425.692Z" fill="#175773"/>
</g>
<defs>
<filter id="filter0_f_195_93" x="1356" y="1645.04" width="309.743" height="282.956" filterUnits="userSpaceOnUse" color-interpolation-filters="sRGB">
<feFlood flood-opacity="0" result="BackgroundImageFix"/>
<feBlend mode="normal" in="SourceGraphic" in2="BackgroundImageFix" result="shape"/>
<feGaussianBlur stdDeviation="22.5" result="effect1_foregroundBlur_195_93"/>
</filter>
<filter id="filter1_f_195_93" x="996" y="1432" width="123.714" height="110.951" filterUnits="userSpaceOnUse" color-interpolation-filters="sRGB">
<feFlood flood-opacity="0" result="BackgroundImageFix"/>
<feBlend mode="normal" in="SourceGraphic" in2="BackgroundImageFix" result="shape"/>
<feGaussianBlur stdDeviation="5" result="effect1_foregroundBlur_195_93"/>
</filter>
<filter id="filter2_f_195_93" x="1055.11" y="1692" width="134.887" height="55.7188" filterUnits="userSpaceOnUse" color-interpolation-filters="sRGB">
<feFlood flood-opacity="0" result="BackgroundImageFix"/>
<feBlend mode="normal" in="SourceGraphic" in2="BackgroundImageFix" result="shape"/>
<feGaussianBlur stdDeviation="2" result="effect1_foregroundBlur_195_93"/>
</filter>
<filter id="filter3_f_195_93" x="474" y="1662" width="116" height="80" filterUnits="userSpaceOnUse" color-interpolation-filters="sRGB">
<feFlood flood-opacity="0" result="BackgroundImageFix"/>
<feBlend mode="normal" in="SourceGraphic" in2="BackgroundImageFix" result="shape"/>
<feGaussianBlur stdDeviation="2" result="effect1_foregroundBlur_195_93"/>
</filter>
<filter id="filter4_f_195_93" x="477" y="1670" width="136" height="64" filterUnits="userSpaceOnUse" color-interpolation-filters="sRGB">
<feFlood flood-opacity="0" result="BackgroundImageFix"/>
<feBlend mode="normal" in="SourceGraphic" in2="BackgroundImageFix" result="shape"/>
<feGaussianBlur stdDeviation="2" result="effect1_foregroundBlur_195_93"/>
</filter>
<filter id="filter5_f_195_93" x="588" y="1549" width="394" height="186" filterUnits="userSpaceOnUse" color-interpolation-filters="sRGB">
<feFlood flood-opacity="0" result="BackgroundImageFix"/>
<feBlend mode="normal" in="SourceGraphic" in2="BackgroundImageFix" result="shape"/>
<feGaussianBlur stdDeviation="22.5" result="effect1_foregroundBlur_195_93"/>
</filter>
<filter id="filter6_f_195_93" x="588" y="1437" width="362" height="284" filterUnits="userSpaceOnUse" color-interpolation-filters="sRGB">
<feFlood flood-opacity="0" result="BackgroundImageFix"/>
<feBlend mode="normal" in="SourceGraphic" in2="BackgroundImageFix" result="shape"/>
<feGaussianBlur stdDeviation="22.5" result="effect1_foregroundBlur_195_93"/>
</filter>
<filter id="filter7_f_195_93" x="1336" y="1804" width="116" height="132" filterUnits="userSpaceOnUse" color-interpolation-filters="sRGB">
<feFlood flood-opacity="0" result="BackgroundImageFix"/>
<feBlend mode="normal" in="SourceGraphic" in2="BackgroundImageFix" result="shape"/>
<feGaussianBlur stdDeviation="5" result="effect1_foregroundBlur_195_93"/>
</filter>
<filter id="filter8_f_195_93" x="1215.3" y="1526" width="110.705" height="43.7529" filterUnits="userSpaceOnUse" color-interpolation-filters="sRGB">
<feFlood flood-opacity="0" result="BackgroundImageFix"/>
<feBlend mode="normal" in="SourceGraphic" in2="BackgroundImageFix" result="shape"/>
<feGaussianBlur stdDeviation="2" result="effect1_foregroundBlur_195_93"/>
</filter>
<filter id="filter9_f_195_93" x="830.977" y="808.516" width="142.799" height="140.011" filterUnits="userSpaceOnUse" color-interpolation-filters="sRGB">
<feFlood flood-opacity="0" result="BackgroundImageFix"/>
<feBlend mode="normal" in="SourceGraphic" in2="BackgroundImageFix" result="shape"/>
<feGaussianBlur stdDeviation="5" result="effect1_foregroundBlur_195_93"/>
</filter>
<filter id="filter10_f_195_93" x="740.797" y="1151.59" width="157.229" height="79.7188" filterUnits="userSpaceOnUse" color-interpolation-filters="sRGB">
<feFlood flood-opacity="0" result="BackgroundImageFix"/>
<feBlend mode="normal" in="SourceGraphic" in2="BackgroundImageFix" result="shape"/>
<feGaussianBlur stdDeviation="2" result="effect1_foregroundBlur_195_93"/>
</filter>
<filter id="filter11_f_195_93" x="1529.12" y="1079.88" width="59.9053" height="165.78" filterUnits="userSpaceOnUse" color-interpolation-filters="sRGB">
<feFlood flood-opacity="0" result="BackgroundImageFix"/>
<feBlend mode="normal" in="SourceGraphic" in2="BackgroundImageFix" result="shape"/>
<feGaussianBlur stdDeviation="2" result="effect1_foregroundBlur_195_93"/>
</filter>
<filter id="filter12_f_195_93" x="1477.21" y="1083.46" width="108.568" height="151.438" filterUnits="userSpaceOnUse" color-interpolation-filters="sRGB">
<feFlood flood-opacity="0" result="BackgroundImageFix"/>
<feBlend mode="normal" in="SourceGraphic" in2="BackgroundImageFix" result="shape"/>
<feGaussianBlur stdDeviation="2" result="effect1_foregroundBlur_195_93"/>
</filter>
<filter id="filter13_f_195_93" x="1004.74" y="988.672" width="459.829" height="219.094" filterUnits="userSpaceOnUse" color-interpolation-filters="sRGB">
<feFlood flood-opacity="0" result="BackgroundImageFix"/>
<feBlend mode="normal" in="SourceGraphic" in2="BackgroundImageFix" result="shape"/>
<feGaussianBlur stdDeviation="22.5" result="effect1_foregroundBlur_195_93"/>
</filter>
<filter id="filter14_f_195_93" x="1040.43" y="838.062" width="414.411" height="348.188" filterUnits="userSpaceOnUse" color-interpolation-filters="sRGB">
<feFlood flood-opacity="0" result="BackgroundImageFix"/>
<feBlend mode="normal" in="SourceGraphic" in2="BackgroundImageFix" result="shape"/>
<feGaussianBlur stdDeviation="22.5" result="effect1_foregroundBlur_195_93"/>
</filter>
<filter id="filter15_f_195_93" x="510.465" y="941.816" width="122.434" height="50.6162" filterUnits="userSpaceOnUse" color-interpolation-filters="sRGB">
<feFlood flood-opacity="0" result="BackgroundImageFix"/>
<feBlend mode="normal" in="SourceGraphic" in2="BackgroundImageFix" result="shape"/>
<feGaussianBlur stdDeviation="2" result="effect1_foregroundBlur_195_93"/>
</filter>
<filter id="filter16_f_195_93" x="875.26" y="2157.96" width="133.358" height="120.223" filterUnits="userSpaceOnUse" color-interpolation-filters="sRGB">
<feFlood flood-opacity="0" result="BackgroundImageFix"/>
<feBlend mode="normal" in="SourceGraphic" in2="BackgroundImageFix" result="shape"/>
<feGaussianBlur stdDeviation="5" result="effect1_foregroundBlur_195_93"/>
</filter>
<filter id="filter17_f_195_93" x="792.474" y="2451.45" width="149.987" height="61.4824" filterUnits="userSpaceOnUse" color-interpolation-filters="sRGB">
<feFlood flood-opacity="0" result="BackgroundImageFix"/>
<feBlend mode="normal" in="SourceGraphic" in2="BackgroundImageFix" result="shape"/>
<feGaussianBlur stdDeviation="2" result="effect1_foregroundBlur_195_93"/>
</filter>
<filter id="filter18_f_195_93" x="1493.24" y="2409.52" width="121.801" height="85.8623" filterUnits="userSpaceOnUse" color-interpolation-filters="sRGB">
<feFlood flood-opacity="0" result="BackgroundImageFix"/>
<feBlend mode="normal" in="SourceGraphic" in2="BackgroundImageFix" result="shape"/>
<feGaussianBlur stdDeviation="2" result="effect1_foregroundBlur_195_93"/>
</filter>
<filter id="filter19_f_195_93" x="1469.28" y="2418.51" width="145.759" height="67.8926" filterUnits="userSpaceOnUse" color-interpolation-filters="sRGB">
<feFlood flood-opacity="0" result="BackgroundImageFix"/>
<feBlend mode="normal" in="SourceGraphic" in2="BackgroundImageFix" result="shape"/>
<feGaussianBlur stdDeviation="2" result="effect1_foregroundBlur_195_93"/>
</filter>
<filter id="filter20_f_195_93" x="1034.48" y="2290.66" width="425.41" height="197.809" filterUnits="userSpaceOnUse" color-interpolation-filters="sRGB">
<feFlood flood-opacity="0" result="BackgroundImageFix"/>
<feBlend mode="normal" in="SourceGraphic" in2="BackgroundImageFix" result="shape"/>
<feGaussianBlur stdDeviation="22.5" result="effect1_foregroundBlur_195_93"/>
</filter>
<filter id="filter21_f_195_93" x="1065.92" y="2164.88" width="395.463" height="305.616" filterUnits="userSpaceOnUse" color-interpolation-filters="sRGB">
<feFlood flood-opacity="0" result="BackgroundImageFix"/>
<feBlend mode="normal" in="SourceGraphic" in2="BackgroundImageFix" result="shape"/>
<feGaussianBlur stdDeviation="22.5" result="effect1_foregroundBlur_195_93"/>
</filter>
<filter id="filter22_f_195_93" x="510.958" y="2554.75" width="115.832" height="97.8618" filterUnits="userSpaceOnUse" color-interpolation-filters="sRGB">
<feFlood flood-opacity="0" result="BackgroundImageFix"/>
<feBlend mode="normal" in="SourceGraphic" in2="BackgroundImageFix" result="shape"/>
<feGaussianBlur stdDeviation="5" result="effect1_foregroundBlur_195_93"/>
</filter>
<filter id="filter23_f_195_93" x="525.932" y="2553.26" width="103.853" height="139.787" filterUnits="userSpaceOnUse" color-interpolation-filters="sRGB">
<feFlood flood-opacity="0" result="BackgroundImageFix"/>
<feBlend mode="normal" in="SourceGraphic" in2="BackgroundImageFix" result="shape"/>
<feGaussianBlur stdDeviation="5" result="effect1_foregroundBlur_195_93"/>
</filter>
<filter id="filter24_f_195_93" x="660.706" y="2259.79" width="101.931" height="43.5137" filterUnits="userSpaceOnUse" color-interpolation-filters="sRGB">
<feFlood flood-opacity="0" result="BackgroundImageFix"/>
<feBlend mode="normal" in="SourceGraphic" in2="BackgroundImageFix" result="shape"/>
<feGaussianBlur stdDeviation="2" result="effect1_foregroundBlur_195_93"/>
</filter>
<filter id="filter25_f_195_93" x="0" y="0" width="1050" height="971.426" filterUnits="userSpaceOnUse" color-interpolation-filters="sRGB">
<feFlood flood-opacity="0" result="BackgroundImageFix"/>
<feBlend mode="normal" in="SourceGraphic" in2="BackgroundImageFix" result="shape"/>
<feGaussianBlur stdDeviation="125" result="effect1_foregroundBlur_195_93"/>
</filter>
<clipPath id="clip0_195_93">
<rect width="1138" height="563" fill="white" transform="translate(497 2144)"/>
</clipPath>
</defs>
</svg>
