<svg width="1200" height="504" viewBox="0 0 1200 504" fill="none" xmlns="http://www.w3.org/2000/svg">
<g opacity="0.1" filter="url(#filter0_f_54757_8876)">
<path d="M1153.31 386.033L939.283 258.326C938.158 257.655 936.701 258.233 936.4 259.507C925.815 304.315 977.787 357.284 1006.9 379.58C1007.3 379.888 1007.03 380.518 1006.52 380.466L947.173 374.429C946.181 374.328 945.259 374.975 945.072 375.954C938.636 409.763 985.615 451 1056.51 451C1126.46 451 1150.77 410.847 1154.7 388.989C1154.91 387.811 1154.33 386.647 1153.31 386.033Z" fill="#DB5311"/>
</g>
<g opacity="0.1" filter="url(#filter1_f_54757_8876)">
<path d="M642.311 41.3406L543.199 100.668C542.074 101.341 540.615 100.765 540.387 99.4742C536.748 78.9037 559.648 55.1135 573.237 44.454C573.635 44.1415 573.376 43.4933 572.872 43.5447L546.668 46.2189C545.676 46.3202 544.746 45.6745 544.617 44.685C542.554 28.8305 564.554 9.99999 597.44 9.99999C629.461 9.99999 641.248 27.8525 643.65 38.3952C643.916 39.5604 643.337 40.7268 642.311 41.3406Z" fill="#DB5311"/>
</g>
<g opacity="0.2" filter="url(#filter2_f_54757_8876)">
<path d="M595.058 280.6L717.448 311.657C718.261 311.863 719.148 311.547 719.483 310.778C724.007 300.399 697.805 288.423 680.892 282.585C680.34 282.395 680.5 281.543 681.083 281.568L712.713 282.937C713.457 282.969 714.207 282.589 714.381 281.864C716.349 273.642 689.401 264 649.304 264C613.67 264 598.395 271.615 593.61 277.141C592.486 278.438 593.395 280.178 595.058 280.6Z" fill="#F3A900"/>
</g>
<g opacity="0.1" filter="url(#filter3_f_54757_8876)">
<path d="M57.7095 247.307C84.8477 230.598 110.359 231.613 119.435 239.498C120.611 240.52 119.818 242.224 118.275 242.406C83.4948 246.513 45.0868 269.71 14.794 305.29C13.7727 306.49 11.9841 306.121 12.0001 304.542C12.1333 291.403 31.8657 262.127 57.7095 247.307Z" fill="#10B5A8"/>
</g>
<g style="mix-blend-mode:multiply" opacity="0.1" filter="url(#filter4_f_54757_8876)">
<path d="M18.0427 297.972L141.392 281.404C142.417 281.266 143.231 280.383 142.94 279.399C139.038 266.186 87.5912 270.608 67.2606 272.005C66.6627 272.046 66.5038 271.233 67.0643 271.023L121.031 250.772C121.88 250.454 122.461 249.612 122.206 248.749C119.206 238.579 90.43 239.051 55.773 256.049C23.7634 271.748 15.4247 287.475 15.0033 295.551C14.9199 297.15 16.4406 298.187 18.0427 297.972Z" fill="#10B5A8"/>
</g>
<g opacity="0.25" filter="url(#filter5_f_54757_8876)">
<path d="M345.385 253.247C426.218 239.265 471.926 192.285 470.986 163.711C470.936 162.208 469.229 161.506 468.002 162.386C396.956 213.403 285.466 233.85 169.166 216.36C167.655 216.133 166.47 217.555 167.244 218.866C182.024 243.889 270.384 268.628 345.385 253.247Z" fill="#175773"/>
</g>
<g style="mix-blend-mode:multiply" opacity="0.25" filter="url(#filter6_f_54757_8876)">
<path d="M168.307 218.757L422.067 50.3242C422.891 49.7767 424.028 49.9289 424.604 50.7331C445.794 80.2913 334.066 160.871 297.759 188.825C297.305 189.174 297.743 189.847 298.28 189.646L434.293 138.631C435.107 138.326 436.045 138.584 436.523 139.309C451.361 161.851 398.473 208.281 306.508 232.876C217.659 256.639 177.969 237.119 167.475 222.558C166.571 221.303 167.018 219.612 168.307 218.757Z" fill="#10B5A8"/>
</g>
<g style="mix-blend-mode:multiply" opacity="0.2" filter="url(#filter7_f_54757_8876)">
<path d="M948.149 407.871C971.914 427.387 979.069 450.788 974.864 461.638C974.27 463.171 972.282 462.957 971.562 461.477C956.811 431.11 923.493 403.284 881.342 386.541C879.778 385.92 879.549 384.022 881.164 383.545C893.598 379.876 926.507 388.942 948.149 407.871Z" fill="#10B5A8"/>
<path d="M880.34 386.32L934.08 492.875C934.57 493.847 935.754 494.359 936.64 493.711C947.394 485.844 927.632 441.217 919.928 423.059C919.682 422.479 920.45 422.033 920.856 422.518L956.294 464.931C956.909 465.667 957.969 465.962 958.75 465.398C967.106 459.372 957.656 433.49 931.107 407.386C906.745 383.432 889.58 380.524 881.79 382.512C880.121 382.938 879.574 384.801 880.34 386.32Z" fill="#10B5A8"/>
</g>
<g opacity="0.15" filter="url(#filter8_f_54757_8876)">
<path d="M755.203 110.618L853.746 133.7C854.523 133.882 855.379 133.593 855.681 132.855C858.766 125.305 838.801 116.688 825.19 112.25C824.63 112.068 824.785 111.192 825.374 111.216L849.904 112.195C850.621 112.224 851.369 111.872 851.484 111.164C852.479 105.05 830.727 98 798.56 98C770.999 98 758.428 103.175 753.929 107.247C752.62 108.432 753.484 110.216 755.203 110.618Z" fill="#175773"/>
</g>
<defs>
<filter id="filter0_f_54757_8876" x="890" y="213.044" width="309.74" height="282.956" filterUnits="userSpaceOnUse" color-interpolation-filters="sRGB">
<feFlood flood-opacity="0" result="BackgroundImageFix"/>
<feBlend mode="normal" in="SourceGraphic" in2="BackgroundImageFix" result="shape"/>
<feGaussianBlur stdDeviation="22.5" result="effect1_foregroundBlur_54757_8876"/>
</filter>
<filter id="filter1_f_54757_8876" x="530" y="0" width="123.715" height="110.952" filterUnits="userSpaceOnUse" color-interpolation-filters="sRGB">
<feFlood flood-opacity="0" result="BackgroundImageFix"/>
<feBlend mode="normal" in="SourceGraphic" in2="BackgroundImageFix" result="shape"/>
<feGaussianBlur stdDeviation="5" result="effect1_foregroundBlur_54757_8876"/>
</filter>
<filter id="filter2_f_54757_8876" x="589.113" y="260" width="134.887" height="55.7188" filterUnits="userSpaceOnUse" color-interpolation-filters="sRGB">
<feFlood flood-opacity="0" result="BackgroundImageFix"/>
<feBlend mode="normal" in="SourceGraphic" in2="BackgroundImageFix" result="shape"/>
<feGaussianBlur stdDeviation="2" result="effect1_foregroundBlur_54757_8876"/>
</filter>
<filter id="filter3_f_54757_8876" x="8" y="230" width="116" height="80" filterUnits="userSpaceOnUse" color-interpolation-filters="sRGB">
<feFlood flood-opacity="0" result="BackgroundImageFix"/>
<feBlend mode="normal" in="SourceGraphic" in2="BackgroundImageFix" result="shape"/>
<feGaussianBlur stdDeviation="2" result="effect1_foregroundBlur_54757_8876"/>
</filter>
<filter id="filter4_f_54757_8876" x="11" y="238" width="136" height="64" filterUnits="userSpaceOnUse" color-interpolation-filters="sRGB">
<feFlood flood-opacity="0" result="BackgroundImageFix"/>
<feBlend mode="normal" in="SourceGraphic" in2="BackgroundImageFix" result="shape"/>
<feGaussianBlur stdDeviation="2" result="effect1_foregroundBlur_54757_8876"/>
</filter>
<filter id="filter5_f_54757_8876" x="122" y="117" width="394" height="186" filterUnits="userSpaceOnUse" color-interpolation-filters="sRGB">
<feFlood flood-opacity="0" result="BackgroundImageFix"/>
<feBlend mode="normal" in="SourceGraphic" in2="BackgroundImageFix" result="shape"/>
<feGaussianBlur stdDeviation="22.5" result="effect1_foregroundBlur_54757_8876"/>
</filter>
<filter id="filter6_f_54757_8876" x="122" y="5" width="362" height="284" filterUnits="userSpaceOnUse" color-interpolation-filters="sRGB">
<feFlood flood-opacity="0" result="BackgroundImageFix"/>
<feBlend mode="normal" in="SourceGraphic" in2="BackgroundImageFix" result="shape"/>
<feGaussianBlur stdDeviation="22.5" result="effect1_foregroundBlur_54757_8876"/>
</filter>
<filter id="filter7_f_54757_8876" x="870" y="372" width="116" height="132" filterUnits="userSpaceOnUse" color-interpolation-filters="sRGB">
<feFlood flood-opacity="0" result="BackgroundImageFix"/>
<feBlend mode="normal" in="SourceGraphic" in2="BackgroundImageFix" result="shape"/>
<feGaussianBlur stdDeviation="5" result="effect1_foregroundBlur_54757_8876"/>
</filter>
<filter id="filter8_f_54757_8876" x="749.295" y="94" width="110.705" height="43.7529" filterUnits="userSpaceOnUse" color-interpolation-filters="sRGB">
<feFlood flood-opacity="0" result="BackgroundImageFix"/>
<feBlend mode="normal" in="SourceGraphic" in2="BackgroundImageFix" result="shape"/>
<feGaussianBlur stdDeviation="2" result="effect1_foregroundBlur_54757_8876"/>
</filter>
</defs>
</svg>
