<svg width="148" height="28" viewBox="0 0 148 28" fill="none" xmlns="http://www.w3.org/2000/svg">
<g clip-path="url(#clip0_336_394)">
<path d="M20.4537 3.96655H17.1533V22.8333H20.4537V3.96655Z" fill="#3B365E"/>
<path d="M26.6109 8.91382H23.3105V22.8187H26.6109V8.91382Z" fill="#3B365E"/>
<path d="M24.9529 2.97119C23.8577 2.97119 22.9697 3.8933 22.9697 4.96178C22.9697 6.03026 23.8725 6.9231 24.9529 6.9231C26.0629 6.9231 26.9657 6.05954 26.9657 4.96178C26.9657 3.86403 26.0629 2.97119 24.9529 2.97119Z" fill="#3B365E"/>
<path d="M36.7189 14.7977L35.1649 14.5049C33.5073 14.2122 32.2197 13.8024 32.2197 12.6754C32.2197 11.5776 33.2557 10.8897 35.0761 10.8897C36.9853 10.8897 38.2137 11.8557 38.2137 13.4511H41.3809C41.3809 10.3188 38.9833 8.48926 34.9725 8.48926C31.2429 8.48926 28.949 10.1578 28.949 12.7485C28.949 15.6612 31.5389 16.4077 34.0401 16.8761L35.6977 17.1688C37.2813 17.4616 38.5245 17.9007 38.5245 19.057C38.5245 20.184 37.4145 20.8573 35.5497 20.8573C33.2853 20.8573 32.0125 19.9352 31.8941 18.2958H28.5938C28.6973 21.472 31.1542 23.2577 35.4905 23.2577C39.4717 23.2577 41.8101 21.6476 41.8101 18.9252C41.8545 16.0125 39.2645 15.2514 36.7189 14.7977Z" fill="#3B365E"/>
<path d="M51.0012 14.7977L49.4472 14.5049C47.7896 14.2122 46.502 13.8024 46.502 12.6754C46.502 11.5776 47.538 10.8897 49.3584 10.8897C51.2676 10.8897 52.496 11.8557 52.496 13.4511H55.6632C55.6632 10.3188 53.2656 8.48926 49.2548 8.48926C45.5252 8.48926 43.2312 10.1578 43.2312 12.7485C43.2312 15.6612 45.8212 16.4077 48.3224 16.8761L49.98 17.1688C51.5636 17.4616 52.8068 17.9007 52.8068 19.057C52.8068 20.184 51.6968 20.8573 49.832 20.8573C47.5676 20.8573 46.2948 19.9352 46.1764 18.2958H42.876C42.9796 21.472 45.4364 23.2577 49.7728 23.2577C53.754 23.2577 56.0924 21.6476 56.0924 18.9252C56.122 16.0125 53.532 15.2514 51.0012 14.7977Z" fill="#3B365E"/>
<path d="M68.5836 12.1484H68.4801C67.6957 9.83585 65.8308 8.50391 63.3888 8.50391C59.7037 8.50391 57.1729 11.4166 57.1729 15.4856C57.1729 19.5839 59.7037 22.4966 63.3888 22.4966C65.8456 22.4966 67.6957 21.1793 68.4801 18.8521H68.5836V21.9258C68.5836 24.4286 67.3848 25.4532 64.8836 25.4532C62.6784 25.4532 61.4796 24.5604 61.3168 23.3309H58.0165C58.3421 26.2436 60.6805 28 64.8541 28C69.2348 28 71.8544 25.7313 71.8544 21.6916V8.91373H68.7168L68.5836 12.1484ZM68.5836 15.8954C68.5836 18.208 66.9704 20.0669 64.5728 20.0669C62.1456 20.0669 60.5177 18.1202 60.5177 15.4856C60.5177 12.8656 62.1456 10.9336 64.5728 10.9336C66.9704 10.9336 68.5836 12.7925 68.5836 15.1051V15.8954Z" fill="#3B365E"/>
<path d="M78.1886 13.261H78.0554L77.9518 8.92853H74.7402V22.8334H78.0702V17.6081C78.0702 15.2662 78.5586 13.7294 79.6982 12.7633C80.6306 11.9876 82.007 11.6071 84.0346 11.49V8.70898C80.231 8.70898 78.8102 10.1873 78.1886 13.261Z" fill="#3B365E"/>
<path d="M92.1157 8.48926C88.0013 8.48926 84.5381 11.3434 84.5381 15.8222C84.5381 20.4035 88.0013 23.2577 92.1157 23.2577C96.2301 23.2577 99.6637 20.4035 99.6637 15.8222C99.6637 11.3434 96.2301 8.48926 92.1157 8.48926ZM92.1157 20.667C89.5849 20.667 87.9125 18.9399 87.9125 15.8222C87.9125 12.7778 89.5701 11.08 92.1157 11.08C94.6465 11.08 96.3189 12.7778 96.3189 15.8222C96.3189 18.9399 94.6465 20.667 92.1157 20.667Z" fill="#3B365E"/>
<path d="M117.542 12.6901C116.802 14.9002 116.254 16.4664 115.559 18.8814H115.426C114.745 16.3493 114.316 14.8124 113.679 12.6608L112.569 8.91382H109.52L108.41 12.6608C107.789 14.8124 107.345 16.3493 106.664 18.8814H106.531C105.82 16.4517 105.273 14.9002 104.548 12.6901L103.245 8.91382H99.708L104.666 22.8187H108.04L110.986 12.8804H111.089L114.064 22.8187H117.438L122.396 8.91382H118.859L117.542 12.6901Z" fill="#3B365E"/>
<path d="M128.76 5.28394H125.519V8.92847H123.195V11.0362H125.519V18.8229C125.519 21.8673 126.851 23.0236 130.092 23.0236C130.936 23.0236 131.839 22.8626 132.741 22.5991V20.1987C132.001 20.389 131.35 20.4622 130.773 20.4622C129.352 20.4622 128.805 19.9206 128.805 18.4131V11.0215H132.756V8.91384H128.76V5.28394Z" fill="#3B365E"/>
<path d="M142.85 8.48929C140.319 8.48929 138.514 9.83587 137.759 12.2948H137.596V3.96655H134.236V22.8333H137.581V15.6174C137.581 12.8949 139.032 11.1678 141.311 11.1678C143.546 11.1678 144.656 12.4119 144.656 14.666V22.8333H147.986V13.7585C148 10.436 145.736 8.48929 142.85 8.48929Z" fill="#3B365E"/>
<path d="M12.1065 11.2264C11.2777 10.8019 9.81248 10.4653 8.37688 10.4653C7.62208 10.4653 6.51208 10.6116 6.39368 10.114C6.24568 9.4407 7.45928 9.0016 7.81448 8.81132C8.16968 8.62105 9.42768 8.05021 10.1677 7.65502C10.9077 7.25983 13.1869 6.04499 13.1869 3.58602C13.3349 1.49297 11.6181 -0.102425 9.07248 3.18903e-05C3.15248 0.54159 0.473679 6.05962 0.251679 9.45534C0.251679 9.45534 -0.32552 14.2269 0.296079 17.3299C1.22848 20.828 2.82688 23.0821 7.44448 23.0821C12.0621 23.0967 14.9037 19.5839 15.1109 16.6127C15.3773 12.7925 13.4385 11.8997 12.1065 11.2264ZM11.5145 16.0418C11.3665 18.2813 10.6561 22.2185 7.26688 21.999C3.87768 21.7794 3.68528 18.0032 3.61128 15.4564C3.61128 12.9681 3.62608 11.724 3.62608 9.89444C3.89248 3.73239 6.61568 1.21488 8.53968 1.21488C10.0641 1.20024 9.75328 3.04446 9.47208 3.7763C8.34728 6.65973 5.18008 8.70887 5.31328 10.0994C5.55008 12.9681 11.9289 10.0262 11.5145 16.0418Z" fill="#3B365E"/>
</g>
<defs>
<clipPath id="clip0_336_394">
<rect width="148" height="28" fill="white"/>
</clipPath>
</defs>
</svg>
