<svg fill="none" height="24" viewBox="0 0 24 24" width="24" xmlns="http://www.w3.org/2000/svg"><g stroke="#1F0A38" stroke-width="1.5"><path d="m11.1796 8.00808c.5659.05102 1.2507.56466 2.6204 1.59192.9629.7222 1.4444 1.0833 1.6555 1.5056.2815.563.2815 1.2258 0 1.7888-.2111.4223-.6926.7834-1.6555 1.5056-1.3697 1.0273-2.0545 1.5409-2.6204 1.5919-.7545.068-1.48264-.296-1.8809-.9404-.2987-.4833-.2987-1.3394-.2987-3.0515s0-2.56816.2987-3.05146c.39826-.64441 1.1264-1.00849 1.8809-.94046z" stroke-linecap="round" stroke-linejoin="round"/><path d="m12 4c4.4183 0 8 3.58172 8 8 0 4.4183-3.5817 8-8 8-4.41828 0-8-3.5817-8-8 0-4.41828 3.58172-8 8-8z"/></g></svg>