<svg width="48" height="48" viewBox="0 0 48 48" fill="none" xmlns="http://www.w3.org/2000/svg">
<path d="M18 30L18 18" stroke="#1F0A38" stroke-width="1.5" stroke-linecap="round" stroke-linejoin="round"/>
<path d="M24.2568 18.0002C25.1658 18.0111 26.214 19.1012 28.3103 21.2815C29.2786 22.2886 29.7627 22.7921 29.9195 23.3822C30.0268 23.7865 30.0268 24.2135 29.9195 24.6178C29.7627 25.2079 29.2786 25.7114 28.3103 26.7185C26.214 28.8988 25.1658 29.9889 24.2568 29.9998C23.6473 30.0072 23.0614 29.7548 22.6353 29.3013C22 28.6251 22 27.0834 22 24C22 20.9166 22 19.3749 22.6353 18.6987C23.0614 18.2452 23.6473 17.9928 24.2568 18.0002Z" stroke="#10B5A8" stroke-width="1.5" stroke-linecap="round" stroke-linejoin="round"/>
<path d="M24 8C32.8366 8 40 15.1634 40 24C40 32.8366 32.8366 40 24 40C15.1634 40 8 32.8366 8 24C8 15.1634 15.1634 8 24 8Z" stroke="#1F0A38" stroke-width="1.5"/>
</svg>
