<svg width="48" height="48" viewBox="0 0 48 48" fill="none" xmlns="http://www.w3.org/2000/svg">
<path d="M30 34H34C36.8284 34 38.2426 34 39.1213 33.1213C40 32.2426 40 30.8284 40 28V16C40 13.1716 40 11.7574 39.1213 10.8787C38.2426 10 36.8284 10 34 10H14C11.1716 10 9.75736 10 8.87868 10.8787C8 11.7574 8 13.1716 8 16V28C8 30.8284 8 32.2426 8.87868 33.1213C9.75736 34 11.1716 34 14 34H18" stroke="#1F0A38" stroke-width="1.5"/>
<path d="M30 34L25.4142 38.5858C24.7475 39.2525 24.4142 39.5858 24 39.5858C23.5858 39.5858 23.2525 39.2525 22.5858 38.5858L18 34" stroke="#1F0A38" stroke-width="1.5" stroke-linecap="round" stroke-linejoin="round"/>
<path d="M17.2807 23.8482L24 30L30.7193 23.8482C32.4269 22.0528 32.4269 19.1419 30.7193 17.3465C29.0117 15.5512 26.2431 15.5512 24.5355 17.3465L24 18L23.4645 17.3465C21.7569 15.5512 18.9883 15.5512 17.2807 17.3465C15.5731 19.1419 15.5731 22.0528 17.2807 23.8482Z" stroke="#F99E00" stroke-width="1.5" stroke-linecap="round" stroke-linejoin="round"/>
</svg>
