<svg width="48" height="48" viewBox="0 0 48 48" fill="none" xmlns="http://www.w3.org/2000/svg">
<g clip-path="url(#clip0_55773_6999)">
<path d="M35.3139 35.313C41.0834 29.5435 41.5256 20.4641 36.6406 14.1873M12.6865 12.6855C16.8742 8.49788 22.8056 7.11678 28.1435 8.54226M32.4928 6.26502C33.2254 6.26505 33.9553 6.4309 34.6278 6.75014C36.3751 7.58521 37.5009 9.35944 37.4925 11.2648C37.4805 13.8611 35.5551 15.9735 32.9795 16.2163C32.8274 16.2293 32.6745 16.236 32.5209 16.2364L27.5361 16.2214L27.5212 11.2366C27.5317 8.46339 29.7196 6.27553 32.4928 6.26502Z" stroke="#1F0A38" stroke-width="1.5"/>
<path d="M32.4853 23.9991C32.3765 25.8254 31.3917 27.9211 29.6569 29.6559C27.922 31.3908 25.8263 32.3756 24 32.4844" stroke="#10B5A8" stroke-width="1.5" stroke-linecap="round"/>
<path d="M18.3428 26.8281V26.8281C18.3428 25.266 19.6091 23.9997 21.1712 23.9997V23.9997" stroke="#10B5A8" stroke-width="1.5" stroke-linecap="round" stroke-linejoin="round"/>
<path d="M24 21.1719V21.1719C24 19.6098 25.2663 18.3434 26.8284 18.3434V18.3434" stroke="#10B5A8" stroke-width="1.5" stroke-linecap="round" stroke-linejoin="round"/>
<path fill-rule="evenodd" clip-rule="evenodd" d="M32.4928 6.26621C33.2254 6.26625 33.9552 6.43209 34.6277 6.75134C36.3751 7.58641 37.5009 9.36064 37.4925 11.266C37.4805 13.8623 35.5551 15.9747 32.9795 16.2175C32.8273 16.2305 32.6745 16.2372 32.5209 16.2376L27.5361 16.2226L27.5212 11.2378C27.5317 8.46459 29.7196 6.27673 32.4928 6.26621V6.26621Z" stroke="#1F0A38" stroke-width="1.5" stroke-linecap="round" stroke-linejoin="round"/>
<path d="M35.3139 35.313C29.5445 41.0824 20.4651 41.5246 14.1883 36.6396M12.6865 12.6855C8.49885 16.8732 7.11776 22.8047 8.54324 28.1425M6.26599 32.4918C6.26603 33.2244 6.43187 33.9543 6.75112 34.6268C7.58619 36.3741 9.36042 37.4999 11.2657 37.4916C13.862 37.4795 15.9745 35.5541 16.2172 32.9785C16.2303 32.8264 16.237 32.6735 16.2373 32.52L16.2224 27.5351L11.2376 27.5202C8.46437 27.5307 6.2765 29.7186 6.26599 32.4918Z" stroke="#1F0A38" stroke-width="1.5"/>
</g>
<defs>
<clipPath id="clip0_55773_6999">
<rect width="48" height="48" fill="white"/>
</clipPath>
</defs>
</svg>
