<svg width="106" height="48" viewBox="0 0 106 48" fill="none" xmlns="http://www.w3.org/2000/svg">
<g clip-path="url(#clip0_1106_9)">
<path d="M61.3882 15.2371C62.6177 15.2371 63.7161 14.9001 64.6491 14.237C65.5696 13.5832 66.2982 12.6346 66.8131 11.4192L66.8272 11.3865H65.217L65.2108 11.4005C64.8426 12.1728 64.3152 12.786 63.6443 13.2197C62.9672 13.6597 62.1949 13.8812 61.3461 13.8812C60.1494 13.8812 59.1369 13.4974 58.3365 12.7407C57.5361 11.984 57.0852 10.9777 56.9962 9.7498V9.73264H67.1922V9.64215C67.1922 7.78393 66.6524 6.25336 65.5899 5.09412C64.5258 3.93488 63.1326 3.34668 61.4475 3.34668C59.7625 3.34668 58.2959 3.91148 57.1928 5.02547C56.0882 6.13946 55.5281 7.57018 55.5281 9.2755C55.5281 10.9808 56.1007 12.3226 57.2287 13.485C58.3567 14.6473 59.7547 15.2355 61.3867 15.2355L61.3882 15.2371ZM57.0399 8.48447C57.21 7.32523 57.6827 6.39222 58.441 5.7104C59.2008 5.02859 60.1401 4.68222 61.2338 4.68222C62.4086 4.68222 63.376 5.00363 64.1093 5.63863C64.841 6.27364 65.3512 7.23005 65.6242 8.48447L65.6289 8.50319H57.0384L57.0415 8.48603L57.0399 8.48447Z" fill="black"/>
<path d="M61.2852 19.8025H59.1399V16.1484H57.7233V19.8025H55.5764V21.2301H57.7233V31.0672H59.1399V21.2301H61.2852V19.8025Z" fill="black"/>
<path d="M79.4883 20.8291C80.3698 20.8291 81.1405 21.0288 81.7818 21.422C82.4152 21.812 82.9613 22.4205 83.4029 23.2303L83.4091 23.2428H84.9787L84.9662 23.21C84.5028 22.0461 83.8054 21.1287 82.8927 20.4827C81.9643 19.8274 80.8784 19.4951 79.6615 19.4951C78.0373 19.4951 76.6409 20.0786 75.5082 21.2316C74.377 22.3831 73.8029 23.8091 73.8029 25.4661C73.8029 27.123 74.3692 28.4976 75.4879 29.6506C76.605 30.802 77.9952 31.3855 79.6193 31.3855C80.8831 31.3855 81.9955 31.0485 82.927 30.3823C83.8444 29.7254 84.5309 28.7893 84.9662 27.5973L84.9771 27.5661H83.4075L83.4013 27.5802C83.0534 28.3493 82.5401 28.9547 81.8754 29.3806C81.2045 29.8113 80.4213 30.0297 79.546 30.0297C78.3493 30.0297 77.3289 29.5881 76.5161 28.716C75.7032 27.8438 75.2897 26.7439 75.2897 25.4458C75.2897 24.1477 75.7001 23.0415 76.5098 22.16C77.3211 21.2769 78.3212 20.8307 79.4836 20.8307L79.4883 20.8291Z" fill="black"/>
<path d="M71.3237 14.9185H72.6265L77.2213 3.68804L77.2354 3.65527H75.697L72.0414 12.7903L68.4233 3.66932L68.417 3.65527H66.9208L71.3175 14.9044L71.3237 14.9185Z" fill="black"/>
<path d="M73.9214 35.8057H72.3846L68.729 44.9407L65.1093 35.8197L65.1031 35.8057H63.6068L68.0035 47.0548L68.0097 47.0689H69.3141L73.9074 35.8384L73.9214 35.8057Z" fill="black"/>
<path d="M62.7425 35.8057H61.3258V47.0704H62.7425V35.8057Z" fill="black"/>
<path d="M59.1399 32.1494H57.7233V47.0697H59.1399V32.1494Z" fill="black"/>
<path d="M62.7425 32.1494H61.3258V34.4492H62.7425V32.1494Z" fill="black"/>
<path d="M103.731 3.65558V0H102.314V3.65558H100.167V5.08318H102.314V14.9188H103.731V5.08318H105.876V3.65558H103.731Z" fill="black"/>
<path d="M91.4973 19.5778C90.778 19.5778 90.118 19.7088 89.5376 19.9663C88.9572 20.2237 88.4533 20.6138 88.0398 21.1224L88.0117 21.1567V16.1484H86.6154V31.0672H88.0117V25.5893C88.0117 24.6142 88.0476 23.9214 88.1194 23.5283C88.1912 23.1351 88.3175 22.7794 88.4954 22.4704C88.7825 21.9774 89.1804 21.5936 89.6781 21.3299C90.1742 21.0662 90.7593 20.9321 91.4161 20.9321C92.5722 20.9321 93.4101 21.2566 93.9031 21.8978C94.3961 22.5375 94.6458 23.689 94.6458 25.3209V31.0656H96.0422V25.3412C96.0422 23.3145 95.6771 21.8307 94.9563 20.9305C94.237 20.0318 93.0731 19.5762 91.4973 19.5762V19.5778Z" fill="black"/>
<path d="M98.8194 5.20931C98.4465 4.63983 97.9316 4.19517 97.2904 3.89093C96.6491 3.58513 95.9064 3.43066 95.0842 3.43066C94.3369 3.43066 93.6629 3.55392 93.0825 3.79887C92.5021 4.04383 91.9841 4.42608 91.5425 4.93471L91.516 4.96592V3.6569H90.1399V14.9201H91.516V9.44217C91.516 8.46704 91.5519 7.7743 91.6237 7.38113C91.6954 6.98795 91.8218 6.63222 91.9997 6.3233C92.2867 5.83027 92.6846 5.44646 93.1823 5.18279C93.6785 4.91911 94.2635 4.78493 94.9204 4.78493C96.0422 4.78493 96.8707 5.09073 97.3809 5.69454C97.891 6.29678 98.15 7.27815 98.15 8.61058V14.9201H99.5464V9.03183C99.5464 7.97713 99.4887 7.16738 99.3779 6.62754C99.2656 6.08771 99.0784 5.61184 98.8209 5.21087L98.8194 5.20931Z" fill="black"/>
<path d="M88.2848 11.4212L88.2988 11.3884H86.6887L86.6825 11.4025C86.3142 12.1748 85.7869 12.7879 85.116 13.2217C84.4389 13.6617 83.6666 13.8832 82.8178 13.8832C81.6211 13.8832 80.6085 13.4994 79.8081 12.7427C79.0078 11.986 78.5569 10.9796 78.4679 9.75175V9.73459H88.6639V9.6441C88.6639 7.78588 88.1241 6.25531 87.0616 5.09607C85.9975 3.93683 84.6042 3.34863 82.9192 3.34863C81.2342 3.34863 79.7676 3.91343 78.6645 5.02742C77.5599 6.14142 76.9998 7.57213 76.9998 9.27745C76.9998 10.9828 77.5724 12.3245 78.7004 13.4869C79.8284 14.6493 81.2264 15.2375 82.8584 15.2375C84.0878 15.2375 85.1862 14.9005 86.1192 14.2374C87.0397 13.5836 87.7684 12.635 88.2832 11.4196L88.2848 11.4212ZM78.5116 8.48486C78.6817 7.32562 79.1544 6.39261 79.9127 5.7108C80.6709 5.02898 81.6118 4.68262 82.7055 4.68262C83.8803 4.68262 84.8476 5.00402 85.5809 5.63903C86.3127 6.27404 86.8229 7.23045 87.0959 8.48486L87.1006 8.50358H78.51L78.5132 8.48642L78.5116 8.48486Z" fill="black"/>
<path d="M79.6084 35.4967C77.8891 35.4967 76.4568 36.0615 75.3537 37.1755C74.2491 38.2895 73.689 39.7202 73.689 41.4255C73.689 43.1308 74.2616 44.4726 75.3896 45.635C76.5176 46.7973 77.9156 47.3855 79.5476 47.3855C80.777 47.3855 81.8754 47.0485 82.8084 46.3839C83.7289 45.7301 84.4576 44.7815 84.9724 43.5677L84.9865 43.5349H83.3763L83.3701 43.5489C83.0019 44.3213 82.4745 44.9344 81.8036 45.3682C81.1265 45.8081 80.3542 46.0297 79.5054 46.0297C78.3088 46.0297 77.2962 45.6459 76.4958 44.8892C75.6954 44.1325 75.2445 43.1261 75.1556 41.8982V41.8811H85.3516V41.7906C85.3516 39.9324 84.8117 38.4018 83.7492 37.2426C82.6852 36.0833 81.2919 35.4951 79.6069 35.4951L79.6084 35.4967ZM83.7851 40.6516H75.1946L75.1977 40.6345C75.3678 39.4752 75.8405 38.5422 76.5988 37.8604C77.3586 37.1786 78.2978 36.8322 79.3916 36.8322C80.5664 36.8322 81.5337 37.1536 82.267 37.7886C82.9988 38.4236 83.509 39.3801 83.782 40.6345L83.7867 40.6532L83.7851 40.6516Z" fill="black"/>
<path d="M70.3283 30.3848C71.2488 29.7311 71.9774 28.7825 72.4923 27.5686L72.5064 27.5359H70.8962L70.89 27.5499C70.5218 28.3222 69.9944 28.9354 69.3235 29.3691C68.6464 29.8091 67.8741 30.0307 67.0253 30.0307C65.8286 30.0307 64.8161 29.6468 64.0157 28.8901C63.2153 28.1334 62.7644 27.1271 62.6754 25.8992V25.8821H72.8714V25.7916C72.8714 23.9333 72.3316 22.4028 71.2691 21.2435C70.205 20.0843 68.8118 19.4961 67.1267 19.4961C65.4417 19.4961 63.9751 20.0609 62.872 21.1749C61.7674 22.2889 61.2073 23.7196 61.2073 25.4249C61.2073 27.1302 61.7799 28.472 62.9079 29.6344C64.0359 30.7967 65.4339 31.3849 67.0659 31.3849C68.2953 31.3849 69.3937 31.0479 70.3267 30.3848H70.3283ZM62.7191 24.6308C62.8892 23.4715 63.3619 22.5385 64.1202 21.8567C64.8785 21.1749 65.8193 20.8285 66.913 20.8285C68.0878 20.8285 69.0552 21.1499 69.7885 21.7849C70.5202 22.4199 71.0304 23.3763 71.3034 24.6308L71.3081 24.6495H62.7176L62.7207 24.6323L62.7191 24.6308Z" fill="black"/>
<path d="M42.8295 11.6205C38.4655 5.10973 31.1965 1.22168 23.3892 1.22168C10.4924 1.22168 0 11.7141 0 24.6109C0 26.881 0.326085 29.1261 0.968893 31.2823C1.15924 31.9189 1.73028 32.348 2.39337 32.348C2.86611 32.348 3.29829 32.1311 3.58069 31.752C3.86309 31.3728 3.9489 30.8938 3.81316 30.4383C3.25149 28.5535 2.96597 26.5923 2.96597 24.6093C2.96597 13.3477 12.1291 4.18453 23.3907 4.18453C30.1324 4.18453 36.4388 7.52027 40.2582 13.1074C40.8027 13.9031 41.2926 14.7394 41.7139 15.5944C43.1306 18.462 43.8358 21.5466 43.8124 24.7638C43.7718 30.2214 41.586 35.3451 37.6558 39.1895C33.8036 42.959 28.7376 45.0341 23.3907 45.0341C23.2909 45.0341 23.191 45.0341 23.0912 45.0325C16.3994 44.9358 10.1695 41.547 6.4234 35.9677L12.4848 32.4775C13.7049 34.164 15.3213 35.5651 17.1592 36.5309C19.0689 37.5341 21.2236 38.063 23.3907 38.063C30.808 38.063 36.8414 32.0281 36.8414 24.6109C36.8414 24.2957 36.8304 23.979 36.8086 23.6685C36.7555 22.8962 36.1049 22.2924 35.3295 22.2924C34.916 22.2924 34.5338 22.4578 34.253 22.7604C33.9706 23.0631 33.8255 23.475 33.8535 23.89C33.8691 24.1272 33.8785 24.369 33.8785 24.6109C33.8785 30.3946 29.1745 35.0986 23.3923 35.0986C20.1096 35.0986 17.0781 33.6008 15.0732 30.9875L34.3996 19.8569C34.7585 19.6509 35.0128 19.317 35.1173 18.9161C35.2234 18.512 35.1626 18.0907 34.9457 17.7303C34.7132 17.3418 34.4589 16.9611 34.189 16.5976C31.521 13.0122 27.2679 10.9855 22.8103 11.1727C19.4871 11.3131 16.3417 12.6877 13.953 15.0436C11.5643 17.3995 10.1461 20.5247 9.96041 23.8448C9.84339 25.9511 10.2007 27.9872 11.0245 29.9L3.66494 34.1391C2.93164 34.5619 2.68045 35.5058 3.10639 36.2454C3.33418 36.6417 3.57757 37.0364 3.83033 37.4218C5.96626 40.6764 8.90415 43.3709 12.3257 45.215C15.7067 47.0374 19.537 48.0016 23.4017 48.0016C23.5702 48.0016 23.7402 48 23.9072 47.9954C26.9917 47.9283 29.9811 47.2636 32.7942 46.0186C35.512 44.8156 37.9538 43.1244 40.0507 40.9915C42.1476 38.8587 43.7968 36.3874 44.9529 33.6492C46.1496 30.8143 46.7643 27.814 46.7784 24.7294C46.7971 21.0005 45.9592 17.4307 44.2914 14.12C43.8561 13.2572 43.3646 12.4178 42.831 11.6221L42.8295 11.6205ZM12.9077 24.2302C13.1042 18.6945 17.5992 14.2573 23.138 14.1278C23.2207 14.1262 23.3034 14.1247 23.3861 14.1247C26.5876 14.1247 29.5583 15.5507 31.5709 18.0626L13.6098 28.4069C13.0918 27.076 12.8546 25.6718 12.9061 24.2302H12.9077Z" fill="black"/>
</g>
<defs>
<clipPath id="clip0_1106_9">
<rect width="105.876" height="48" fill="white"/>
</clipPath>
</defs>
</svg>
