<svg width="112" height="48" viewBox="0 0 112 48" fill="none" xmlns="http://www.w3.org/2000/svg">
<g clip-path="url(#clip0_1017_1223)">
<path d="M30.5847 10.7671C29.9905 10.9601 29.5907 11.302 29.3353 11.848C29.1965 12.1458 29.1798 12.2395 29.1798 12.7579C29.1798 13.3039 29.1909 13.3645 29.3631 13.7064C30.0017 14.9969 31.8618 15.2506 32.8835 14.1807C33.2556 13.7892 33.3888 13.4197 33.3888 12.7579C33.3888 12.1292 33.2611 11.7432 32.928 11.3627C32.3838 10.7506 31.4121 10.5079 30.5847 10.7671Z" fill="black"/>
<path d="M101.116 14.6603V18.5537L100.772 18.1842C100.161 17.539 99.3614 17.0647 98.3175 16.7339C97.3457 16.425 96.5073 16.3423 95.4633 16.4581C93.6254 16.6567 92.3094 17.2247 91.1655 18.3166C89.7773 19.6456 89.0665 21.5317 89.0665 23.9085C89.0665 28.4085 92.0095 31.3975 96.4517 31.3975C97.9343 31.3975 98.956 31.1107 99.9222 30.4324C100.266 30.1897 100.8 29.6658 100.977 29.3956C101.049 29.2798 101.088 29.2578 101.116 29.3129C101.138 29.3515 101.199 29.7761 101.255 30.2559L101.355 31.1217H103.037H104.725V20.9471V10.7725H102.921H101.116V14.6603ZM97.8122 19.8993C98.2953 20.0317 98.9838 20.3736 99.3669 20.6824C100.028 21.2118 100.544 22.028 100.761 22.8772C100.905 23.4342 100.894 24.4986 100.738 25.0721C100.067 27.5482 97.2569 28.8 94.9136 27.664C94.2084 27.3221 93.5143 26.6493 93.1645 25.9655C92.8147 25.2927 92.6425 24.3938 92.6981 23.5886C92.8369 21.5703 94.0863 20.175 96.0519 19.8166C96.4184 19.7449 97.4179 19.7945 97.8122 19.8993Z" fill="black"/>
<path d="M11.3277 16.1491C10.9556 16.6179 10.6336 17.0149 10.6114 17.026C10.5947 17.037 10.3781 16.9543 10.1283 16.8329C9.29535 16.4304 8.17924 16.2484 6.92987 16.3035C3.28169 16.4745 0.633017 18.7796 0.0721861 22.2704C-0.0444222 23.0204 0 24.7521 0.155478 25.469C0.627464 27.6252 1.82131 29.1749 3.68149 30.0462C4.66433 30.5094 5.57499 30.7024 7.1964 30.7907C7.90716 30.8238 8.30696 30.8734 8.6068 30.9561C10.2005 31.4028 11.0778 32.594 10.8779 34.0388C10.7557 34.9102 10.3615 35.5388 9.63962 36.0186C8.45133 36.8072 6.60781 36.8734 5.24738 36.1785C4.34783 35.7208 3.74257 34.9267 3.5982 34.0223L3.52601 33.6032H1.76578H0V34.0113C0 34.7668 0.244322 35.7208 0.644122 36.4984C1.51591 38.2024 3.15398 39.355 5.40841 39.8458C5.9026 39.9561 6.12471 39.9727 7.32967 39.9727C8.62346 39.9671 8.72341 39.9616 9.35643 39.8182C11.5276 39.3164 13.1268 38.1197 13.943 36.3936C14.6815 34.8219 14.726 32.5719 14.043 31.2153C13.5821 30.3109 12.8547 29.5829 11.8441 29.026L11.6053 28.8936L11.9996 28.6785C12.4549 28.4304 13.1268 27.8182 13.4655 27.344C14.7648 25.5241 14.9592 22.6068 13.9208 20.5499C13.8153 20.3458 13.5876 19.9818 13.4155 19.7447L13.1046 19.3146L13.8708 18.3495C14.2873 17.8201 14.6371 17.3568 14.6427 17.3182C14.6538 17.2686 12.3827 15.5149 12.0773 15.3385C12.0273 15.3054 11.7885 15.5646 11.3277 16.1491ZM8.19035 19.6841C9.46749 19.9929 10.4448 20.969 10.839 22.3366C11.0056 22.9046 11.0167 24.1675 10.8668 24.7245C10.5725 25.7888 9.88394 26.6546 8.9955 27.0848C8.36804 27.3936 7.97934 27.4818 7.29635 27.4818C5.26403 27.4818 3.83142 26.1528 3.59265 24.0462C3.48714 23.0977 3.7037 22.0443 4.17014 21.2778C4.27564 21.1068 4.51441 20.8091 4.69765 20.6216C5.60831 19.7227 6.89655 19.3752 8.19035 19.6841Z" fill="black"/>
<path d="M78.2664 16.4304C74.1462 17.0591 71.6919 20.4396 72.1361 24.8679C72.497 28.469 74.8292 30.8458 78.5163 31.3752C79.4047 31.5021 81.1871 31.458 81.9867 31.287C83.5471 30.9561 85.0075 30.2723 85.957 29.4175L86.2624 29.1418L85.3462 28.2263C84.8409 27.7245 84.3134 27.2061 84.1634 27.0848L83.9025 26.8642L83.6859 27.0572C82.9085 27.7521 81.2205 28.2429 79.7934 28.1822C78.1775 28.1105 76.9781 27.526 76.284 26.4671C76.0841 26.1528 75.8509 25.5462 75.8509 25.3256C75.8509 25.2208 75.9897 25.2208 81.4537 25.2208H87.0564L87.0953 24.4598C87.1453 23.5223 87.0564 22.3863 86.8676 21.526C86.218 18.6087 84.1523 16.7723 81.0983 16.4028C80.4209 16.3201 78.8772 16.3366 78.2664 16.4304ZM81.1094 19.6565C82.4088 19.9488 83.3194 20.8477 83.536 22.0333L83.5748 22.2429H79.7379C77.067 22.2429 75.9065 22.2263 75.9065 22.1822C75.9065 22.0719 76.1508 21.548 76.3673 21.2116C77.2225 19.844 79.1604 19.2043 81.1094 19.6565Z" fill="black"/>
<path d="M23.1495 16.4796C22.6109 16.5788 22.2111 16.7277 21.7724 16.9924C21.3949 17.2185 20.8285 17.7424 20.6119 18.0623C20.5397 18.1781 20.4564 18.2718 20.4342 18.2718C20.4176 18.2718 20.3565 17.9796 20.301 17.6211C20.251 17.2682 20.1955 16.9318 20.1788 16.8766C20.151 16.7884 20.0233 16.7829 18.4852 16.7829H16.8249V23.952V31.1211H18.6296H20.4342V27.0678C20.4342 22.5126 20.4342 22.5237 20.8285 21.6965C21.3671 20.5604 22.4443 19.9704 23.988 19.9648C24.9819 19.9593 25.5539 20.1358 26.2535 20.6542C26.4201 20.7755 26.5645 20.8582 26.5867 20.8417C26.6034 20.8196 26.9754 20.1193 27.4141 19.2755L28.2081 17.7479L28.0582 17.6211C27.5029 17.1523 26.7533 16.7773 25.9204 16.5623C25.3207 16.4023 23.8048 16.3582 23.1495 16.4796Z" fill="black"/>
<path d="M43.3005 16.5624C42.6564 16.6948 42.3177 16.8106 41.7846 17.0753C41.1683 17.3786 40.7407 17.6874 40.2687 18.1838C40.0355 18.4264 39.8578 18.5753 39.8412 18.5367C39.8301 18.4981 39.7801 18.0845 39.7246 17.6213L39.6302 16.783H37.9477H36.2596V26.9301V37.0771H38.0643H39.8689V33.2941V29.5055L40.0522 29.7371C41.035 30.9724 43.4671 31.6727 45.7327 31.3749C48.0149 31.0771 49.7529 29.9687 50.8412 28.1323C51.5853 26.8749 51.9851 25.1488 51.9018 23.5275C51.713 19.8106 49.3031 17.0643 45.7826 16.5349C45.0219 16.4246 43.9114 16.4356 43.3005 16.5624ZM45.1885 20.0146C46.6433 20.3124 47.6872 21.2775 48.1204 22.7113C48.2425 23.1305 48.2703 23.318 48.2703 23.897C48.2758 24.7132 48.1592 25.2095 47.8039 25.8878C46.3379 28.6893 42.0456 28.6452 40.6352 25.8161C40.2798 25.1047 40.2299 24.8566 40.2354 23.897C40.2354 23.1305 40.2521 22.9981 40.3798 22.6176C40.8518 21.2224 41.9346 20.2683 43.3727 19.9871C43.7836 19.9044 44.7276 19.9209 45.1885 20.0146Z" fill="black"/>
<path d="M61.6469 16.5294C60.3031 16.783 59.1037 17.4448 58.3541 18.3437C58.2042 18.5202 58.082 18.647 58.082 18.6194C58.082 18.5477 57.9155 17.1525 57.8821 16.9595L57.8544 16.783H56.1663H54.4727V26.9301V37.0771H56.2774H58.082V33.2885V29.4999L58.3652 29.8143C59.7479 31.3584 62.9407 31.8988 65.5228 31.0275C67.4773 30.3658 69.0377 28.7775 69.7096 26.7646C70.0261 25.8161 70.0982 25.2867 70.1038 23.9797C70.1038 22.9044 70.0871 22.7003 69.9761 22.193C69.6263 20.6488 69.0266 19.5294 67.9993 18.5146C66.9942 17.5165 66.0003 16.9705 64.5788 16.6341C63.8458 16.4632 62.3021 16.408 61.6469 16.5294ZM63.6626 20.0588C65.4839 20.5496 66.6056 22.1599 66.5056 24.1396C66.4168 25.943 65.3229 27.3327 63.6071 27.8235C63.0351 27.9834 61.969 27.9944 61.4137 27.8455C60.181 27.5146 59.1482 26.5992 58.7095 25.4466C58.4208 24.6801 58.3541 23.9852 58.4985 23.158C58.7872 21.5202 59.8867 20.3731 61.5081 20.0146C61.9967 19.9044 63.1906 19.9319 63.6626 20.0588Z" fill="black"/>
<path d="M29.4852 23.8968V31.1211H31.2899H33.0945V23.8968V16.6726H31.2899H29.4852V23.8968Z" fill="black"/>
<path d="M108.185 27.1729C107.613 27.3548 107.207 27.7133 106.952 28.2537C106.824 28.524 106.808 28.6232 106.808 29.1637C106.808 29.7372 106.819 29.7923 106.991 30.1398C107.202 30.5644 107.502 30.8567 107.94 31.0607C108.218 31.1876 108.318 31.2041 108.89 31.2041C109.479 31.2041 109.556 31.1931 109.873 31.0442C110.278 30.8622 110.672 30.4762 110.85 30.0846C110.956 29.864 110.972 29.7262 110.972 29.1637C110.972 28.6012 110.956 28.4633 110.85 28.2427C110.672 27.8512 110.278 27.4651 109.873 27.2831C109.578 27.1453 109.451 27.1232 108.973 27.1122C108.623 27.1012 108.335 27.1232 108.185 27.1729Z" fill="black"/>
</g>
<defs>
<clipPath id="clip0_1017_1223">
<rect width="112" height="48" fill="white"/>
</clipPath>
</defs>
</svg>
