<svg width="112" height="48" viewBox="0 0 112 48" fill="none" xmlns="http://www.w3.org/2000/svg">
<g clip-path="url(#clip0_1028_1031)">
<path fill-rule="evenodd" clip-rule="evenodd" d="M7.13252 8H108.636C110.672 8 112.217 9.84359 111.863 11.8536L108.011 33.7489C107.735 35.3187 106.374 36.4639 104.783 36.4639H96.9432L88.4565 43.6477C87.7463 44.2498 86.6582 43.7418 86.6582 42.8113V36.4639H3.27805C1.24156 36.4639 -0.303286 34.6203 0.0506953 32.6104L3.90516 10.715C4.18049 9.14512 5.54179 8 7.13252 8Z" fill="black"/>
<path d="M29.2654 19.2628C29.5255 17.6929 30.618 13.4824 36.2446 13.4824C41.2287 13.4824 41.4668 16.7645 41.2768 18.6213C41.2046 19.0482 40.9447 19.311 40.5164 19.4051L37.715 20.0006C37.2409 20.0948 37.0028 19.8825 37.0508 19.3832C37.1448 18.2425 36.8608 17.5747 35.5081 17.5747C33.7514 17.5747 33.4433 18.6935 33.1112 20.524L32.5169 23.9484C32.1847 25.781 32.1125 26.8977 33.8694 26.8977C35.6262 26.8977 35.9342 25.7788 36.1484 24.614H34.7718C34.3216 24.614 34.1075 24.3513 34.1775 23.9002L34.5096 21.9976C34.6036 21.5224 34.9138 21.2837 35.364 21.2837H40.1121C40.5863 21.2837 40.7763 21.5224 40.6825 21.9976L40.1362 25.2096C39.8521 26.7795 38.7836 30.9899 33.157 30.9899C27.5305 30.9899 27.9347 26.7795 28.2188 25.2096L29.2633 19.2628H29.2654Z" fill="white"/>
<path d="M13.854 13.4736C14.3281 13.4736 14.5533 13.7495 14.4789 14.2246L13.3798 20.4779C13.3055 20.9531 13.5306 21.229 14.0048 21.229H16.4018C16.9 21.229 17.2016 20.9531 17.2758 20.4779L18.375 14.2246C18.4492 13.7495 18.7748 13.4736 19.2489 13.4736H22.0437C22.5419 13.4736 22.7669 13.7232 22.6686 14.2246L19.8476 30.2301C19.7734 30.7052 19.474 30.9811 18.9736 30.9811H16.1789C15.7047 30.9811 15.4797 30.7052 15.554 30.2301L16.2532 26.278C16.3537 25.7788 16.1287 25.5271 15.6282 25.5271H13.2313C12.7571 25.5271 12.4578 25.7767 12.3572 26.278L11.658 30.2301C11.5837 30.7052 11.2843 30.9811 10.784 30.9811H7.98926C7.5151 30.9811 7.29004 30.7052 7.36433 30.2301L10.1853 14.2246C10.2858 13.7254 10.5589 13.4736 11.0593 13.4736H13.854Z" fill="white"/>
<path d="M47.2726 13.4736C47.7467 13.4736 47.9717 13.7495 47.8975 14.2246L46.7983 20.4779C46.7241 20.9531 46.9491 21.229 47.4233 21.229H49.8203C50.3185 21.229 50.62 20.9531 50.6944 20.4779L51.7934 14.2246C51.8678 13.7495 52.1933 13.4736 52.6675 13.4736H55.4621C55.9603 13.4736 56.1855 13.7232 56.0871 14.2246L53.2662 30.2301C53.1919 30.7052 52.8925 30.9811 52.3922 30.9811H49.5974C49.1233 30.9811 48.8982 30.7052 48.9725 30.2301L49.6718 26.278C49.7723 25.7788 49.5472 25.5271 49.0468 25.5271H46.6497C46.1756 25.5271 45.8762 25.7767 45.7757 26.278L45.0765 30.2301C45.0022 30.7052 44.7028 30.9811 44.2025 30.9811H41.4077C40.9336 30.9811 40.7086 30.7052 40.7828 30.2301L43.6038 14.2246C43.7043 13.7254 43.9775 13.4736 44.4778 13.4736H47.2726Z" fill="white"/>
<path d="M69.0119 13.4736C69.51 13.4736 69.7351 13.7232 69.6368 14.2246L69.1386 17.0251C69.0643 17.5002 68.7649 17.7761 68.2646 17.7761H62.225C61.7508 17.7761 61.4253 18.0257 61.3509 18.5271L61.2001 19.3284C61.1259 19.8036 61.3509 20.0794 61.8252 20.0794H65.6927C66.1909 20.0794 66.392 20.3291 66.3176 20.8305L65.8194 23.6308C65.7189 24.106 65.4458 24.3819 64.9454 24.3819H61.0778C60.6036 24.3819 60.2781 24.6315 60.1797 25.1329L60.0552 25.9343C59.9547 26.4093 60.1797 26.6852 60.6539 26.6852H66.6935C67.1917 26.6852 67.4167 26.9348 67.3184 27.4363L66.8202 30.2367C66.7459 30.7359 66.4466 30.9877 65.9461 30.9877H55.4644C54.9902 30.9877 54.7652 30.7119 54.8394 30.2367L57.6604 14.2312C57.7609 13.732 58.0603 13.4802 58.5344 13.4802H69.0162L69.0119 13.4736Z" fill="white"/>
<path d="M81.7464 29.6301C81.9714 30.2805 81.447 30.9811 80.6735 30.9811H77.8286C77.5795 30.9811 77.3784 30.8563 77.3042 30.6308L75.6064 25.6036C75.5561 25.5292 75.5059 25.4788 75.4315 25.4788H74.433C73.9828 25.4788 73.5851 25.8029 73.5087 26.2539L72.8095 30.206C72.7352 30.6571 72.3594 30.9811 71.9114 30.9811H69.1166C68.6666 30.9811 68.3934 30.6571 68.4677 30.206L71.2887 14.2487C71.3629 13.7977 71.7387 13.4736 72.1867 13.4736H77.6516C82.0938 13.4736 83.5666 15.3741 82.8434 19.4752C82.4435 21.8004 81.5694 23.4273 80.0989 24.3775C79.9744 24.452 79.9241 24.5768 79.9481 24.7016L81.7442 29.628L81.7464 29.6301ZM75.7812 17.7761C75.3311 17.7761 74.9574 18.1001 74.8831 18.5512L74.5597 20.4013C74.4592 20.8523 74.7346 21.1764 75.1846 21.1764H76.4586C77.6559 21.1764 78.2809 21.0253 78.5541 19.4752C78.8294 17.9249 78.2547 17.7739 77.0572 17.7739H75.7834L75.7812 17.7761Z" fill="white"/>
<path fill-rule="evenodd" clip-rule="evenodd" d="M89.6279 14.2246C89.7262 13.7232 89.5012 13.4736 89.003 13.4736H86.2586C85.7844 13.4736 85.4851 13.7254 85.3846 14.2246L85.0633 16.1427C84.989 16.6178 85.2141 16.8937 85.6883 16.8937H86.643V17.925C86.643 18.0695 86.8114 18.1484 86.9228 18.0564L88.3355 16.8937H88.4328C88.9331 16.8937 89.2324 16.6178 89.3067 16.1427L89.6279 14.2246Z" fill="white"/>
<path d="M88.0656 18.6738C88.5638 18.6738 88.7889 18.9234 88.6905 19.4248L86.807 30.2324C86.7327 30.7075 86.4334 30.9834 85.9331 30.9834H83.1886C82.7144 30.9834 82.4893 30.7075 82.5636 30.2324L84.4472 19.4248C84.5477 18.9256 84.847 18.6738 85.3212 18.6738H88.0656Z" fill="white"/>
<path d="M95.7416 13.4824C96.1654 13.4824 96.4145 13.6576 96.5151 14.0583L98.462 22.3873C98.5122 22.6128 98.7111 22.5625 98.7614 22.3129L100.184 14.2356C100.284 13.7364 100.584 13.4846 101.058 13.4846H103.853C104.351 13.4846 104.576 13.7342 104.478 14.2356L101.657 30.2411C101.582 30.7162 101.283 30.9921 100.783 30.9921H97.1138C96.6898 30.9921 96.4408 30.817 96.3403 30.4163L94.4175 22.0873C94.3431 21.8618 94.1421 21.9122 94.094 22.1618L92.6715 30.2389C92.5973 30.714 92.2979 30.9899 91.7975 30.9899H89.0028C88.5287 30.9899 88.3035 30.714 88.3779 30.2389L91.1988 14.2334C91.2994 13.7342 91.5986 13.4824 92.0729 13.4824H95.7416Z" fill="white"/>
<path d="M27.8597 13.4736C28.3579 13.4736 28.5829 13.7232 28.4846 14.2246L25.66 30.2324C25.5857 30.7075 25.2863 30.9834 24.786 30.9834H22.0415C21.5673 30.9834 21.3423 30.7075 21.4165 30.2324L24.2413 14.2246C24.3418 13.7254 24.6412 13.4736 25.1153 13.4736H27.8597Z" fill="white"/>
</g>
<defs>
<clipPath id="clip0_1028_1031">
<rect width="112" height="48" fill="white"/>
</clipPath>
</defs>
</svg>
