<svg width="48" height="64" viewBox="0 0 48 64" fill="none" xmlns="http://www.w3.org/2000/svg">
<g clip-path="url(#clip0_1106_25)">
<path d="M2.78438 38.3985C3.84527 38.3985 4.736 37.5284 4.736 36.4262C4.736 35.3241 3.84527 34.4746 2.78438 34.4746C1.72349 34.4746 0.812134 35.3653 0.812134 36.4262C0.812134 37.4871 1.70287 38.3985 2.78438 38.3985Z" fill="#D27849"/>
<path d="M0.59935 49.5139C0.429196 49.7679 0.302869 49.9174 0.59935 49.9174H5.45778C5.77617 49.9174 5.62793 49.7692 5.4784 49.5139C4.69337 48.2416 4.63021 46.0773 4.63021 45.4831V38.8651C4.63021 38.7594 4.56704 38.7168 4.48197 38.7375L0.59935 39.6927C0.302869 39.7558 0.429196 39.8409 0.59935 40.0961C1.38438 41.3684 1.44754 43.5327 1.44754 44.127V45.4844C1.44754 46.0786 1.38438 48.2416 0.59935 49.5152V49.5139Z" fill="#D27849"/>
<path d="M19.9493 49.9168H23.6618C23.8745 49.9168 23.9376 49.8743 23.6824 49.5133C23.1101 48.6651 22.7491 46.9249 22.8342 44.0826C22.9399 39.9035 19.9068 38.6943 17.4253 38.6943C16.0035 38.6943 13.4164 39.0553 12.9704 40.8587C12.7577 41.7068 13.3945 42.3217 14.1589 42.3217C14.7106 42.3217 15.3255 41.9827 15.729 41.1977C16.068 40.5403 16.3438 39.3311 17.4898 39.3311C19.123 39.3311 19.6747 40.7736 19.6967 43.6804C19.1449 43.0436 18.2117 42.5344 16.7473 42.5344C15.029 42.5344 12.2073 43.5308 12.2073 46.1824V46.3526C12.2073 48.156 13.8624 49.9168 16.7048 49.9168C18.1898 49.9168 19.123 49.387 19.6541 48.5375V49.619C19.6541 49.8098 19.7598 49.9155 19.9506 49.9155L19.9493 49.9168ZM17.5736 49.1949C16.1092 49.1949 15.3886 47.5398 15.3886 46.0973C15.3886 44.0826 16.5552 43.2125 17.553 43.2125C19.0586 43.2125 19.6103 44.5698 19.6747 45.1847C19.6747 46.6271 19.5897 49.1936 17.5749 49.1936L17.5736 49.1949Z" fill="#D27849"/>
<path d="M36.1565 40.7091C35.0685 39.4575 33.4044 38.6943 31.485 38.6943C30.4821 38.6943 29.6081 38.9908 28.9043 39.4575V38.8632C28.9043 38.7575 28.8398 38.715 28.7341 38.7356L24.8515 39.6908C24.5525 39.7539 24.6814 39.839 24.8515 40.0942C25.6404 41.3665 25.7049 43.5308 25.7049 44.1251V45.4825C25.7049 46.0767 25.6404 48.2397 24.8515 49.5133C24.6814 49.7673 24.5525 49.9168 24.8515 49.9168H29.737C30.0567 49.9168 29.9072 49.7686 29.7589 49.5133C28.97 48.241 28.9056 46.0767 28.9056 45.4825V42.8941C28.97 40.8793 29.3748 39.3518 31.017 39.3518C33.3644 39.3518 34.2809 42.0459 34.2809 45.525C34.2809 45.864 34.2384 48.2397 33.4495 49.5133C33.3644 49.6409 33.0873 49.9168 33.4495 49.9168H38.335C38.6121 49.9168 38.5696 49.8317 38.2924 49.4076C37.4391 48.1779 37.5035 44.5492 37.5035 44.4435C37.5035 44.1251 37.4816 43.8286 37.4391 43.5309C37.4185 41.2183 37.7381 39.3518 39.5506 39.3518C41.8979 39.3518 42.8144 42.0459 42.8144 45.525C42.8144 45.864 42.7719 48.2397 41.983 49.5133C41.8979 49.6409 41.6208 49.9168 41.983 49.9168H46.8685C47.1456 49.9168 47.1031 49.8317 46.8259 49.4076C45.9726 48.1779 46.037 44.5492 46.037 44.4435C46.037 41.1126 43.4345 38.6943 40.0211 38.6943C38.2718 38.6943 36.9699 39.5851 36.1591 40.7091H36.1565Z" fill="#D27849"/>
<path d="M4.08116 54.1953C3.45726 54.1953 2.90555 54.3539 2.4286 54.6362V54.2933C2.4286 54.2327 2.39122 54.2069 2.34223 54.2198L0.101867 54.7702C-0.0695768 54.8076 0.00389898 54.8566 0.101867 55.0023C0.554323 55.737 0.591705 56.9848 0.591705 57.3277V60.7798C0.591705 61.1227 0.555612 62.3705 0.101867 63.1052C0.00389898 63.2522 -0.0695768 63.3373 0.101867 63.3373H2.90555C3.08859 63.3373 3.00352 63.2509 2.91715 63.1052C2.46469 62.3705 2.42731 61.1227 2.42731 60.7798V60.4988C2.89266 60.7437 3.44308 60.9151 4.10436 60.9151C6.11141 60.9151 7.59253 59.5191 7.59253 57.561C7.59253 55.603 6.11141 54.1953 4.07987 54.1953H4.08116ZM4.39956 60.5361C3.29742 60.5361 2.55106 59.202 2.4286 58.1372V56.852C2.4402 55.5785 2.69801 54.5756 3.72538 54.5756C5.2181 54.5756 5.8304 56.5465 5.8304 58.2971C5.8304 59.3128 5.62286 60.5374 4.39827 60.5374L4.39956 60.5361Z" fill="#D27849"/>
<path d="M14.3741 57.3045C14.436 54.8927 12.6855 54.1953 11.2533 54.1953C10.4335 54.1953 8.93949 54.4028 8.68297 55.4444C8.56051 55.9342 8.92789 56.2887 9.36875 56.2887C9.68714 56.2887 10.0416 56.0928 10.2749 55.6403C10.4709 55.2614 10.6294 54.5627 11.2907 54.5627C12.233 54.5627 12.5514 55.3954 12.5643 57.0725C12.2459 56.7051 11.7071 56.4112 10.8628 56.4112C9.87148 56.4112 8.24341 56.9861 8.24341 58.5162V58.6142C8.24341 59.6544 9.19859 60.6702 10.8383 60.6702C11.6955 60.6702 12.233 60.3647 12.5398 59.8749V60.4988C12.5398 60.6083 12.6004 60.6702 12.7113 60.6702H14.8537C14.9761 60.6702 15.0122 60.6457 14.8653 60.4382C14.5353 59.9483 14.3264 58.9455 14.3754 57.3045H14.3741ZM11.3384 60.2538C10.4941 60.2538 10.0777 59.2987 10.0777 58.4672C10.0777 57.3045 10.7506 56.8031 11.3268 56.8031C12.1956 56.8031 12.514 57.5868 12.5514 57.9413C12.5514 58.774 12.5024 60.2551 11.3397 60.2551L11.3384 60.2538Z" fill="#D27849"/>
<path d="M21.8661 58.1133V54.2938C21.8661 54.2332 21.83 54.2075 21.781 54.2204L19.5407 54.7708C19.3692 54.8082 19.4427 54.8571 19.5407 55.0028C19.9931 55.7376 20.0305 56.9854 20.0305 57.3283V58.5773C20.0305 59.4217 19.5407 60.5483 18.5133 60.5483C17.7541 60.5483 17.4601 59.8754 17.4601 58.5039V54.2925C17.4601 54.232 17.4241 54.2062 17.3622 54.2191L15.1347 54.7695C14.9633 54.8069 15.0367 54.8559 15.1347 55.0015C15.5872 55.7363 15.6245 56.9841 15.6245 57.327V58.1107C15.6245 59.7388 16.1389 60.9144 18.2439 60.9144C19.1372 60.9144 19.7005 60.4864 20.0305 59.9592V60.6695H22.3444C22.5274 60.6695 22.4423 60.5831 22.356 60.4374C21.9035 59.7027 21.8661 58.4549 21.8661 58.112V58.1133Z" fill="#D27849"/>
<path d="M24.7549 55.2001C24.7549 54.8946 24.8889 54.6252 25.2563 54.6252C25.9047 54.6252 26.5544 55.3226 26.798 56.1308C26.9205 56.4982 27.2015 56.6568 27.4954 56.6568C27.9607 56.6568 28.4261 56.2533 28.2662 55.6165C28.0458 54.8083 26.7606 54.1973 25.5244 54.1973C23.9827 54.1973 23.1371 54.932 23.1371 55.739C23.1371 57.7215 26.981 58.1998 26.981 59.6925C26.981 60.2184 26.6511 60.4878 26.1122 60.4878C25.1081 60.4878 24.644 59.289 24.4726 58.9216C24.3011 58.5426 23.9956 58.3957 23.7133 58.3957C23.248 58.3957 22.8071 58.7876 22.9541 59.3135C23.2351 60.2932 24.3617 60.9171 26.0143 60.9171C27.1899 60.9171 28.6336 60.2932 28.6336 59.2039C28.6336 57.3799 24.7536 56.7431 24.7536 55.2014L24.7549 55.2001Z" fill="#D27849"/>
<path d="M31.3768 58.113V54.2935C31.3768 54.2329 31.3407 54.2071 31.2917 54.22L29.0513 54.7705C28.8799 54.8078 28.9534 54.8568 29.0513 55.0025C29.5038 55.7372 29.5412 56.985 29.5412 57.3279V58.1117C29.5412 58.4546 29.5038 59.7024 29.0513 60.4371C28.9534 60.5841 28.8799 60.6691 29.0513 60.6691H31.8537C32.0368 60.6691 31.9517 60.5828 31.8666 60.4371C31.4142 59.7024 31.3768 58.4546 31.3768 58.1117V58.113Z" fill="#D27849"/>
<path d="M29.1725 52.8854C29.1725 53.5222 29.6868 54.0236 30.3107 54.0236C30.9346 54.0236 31.4373 53.5222 31.4373 52.8854C31.4373 52.2486 30.923 51.7588 30.3107 51.7588C29.6984 51.7588 29.1725 52.2731 29.1725 52.8854Z" fill="#D27849"/>
<path d="M39.7001 57.512C39.7001 55.5901 38.2074 54.1953 36.248 54.1953C35.6731 54.1953 35.1704 54.3668 34.7669 54.6362V54.2933C34.7669 54.2327 34.7308 54.2069 34.6689 54.2198L32.4415 54.7702C32.27 54.8076 32.3435 54.8566 32.4415 55.0023C32.8939 55.737 32.9313 56.9848 32.9313 57.3277V58.1114C32.9313 58.4543 32.8939 59.7021 32.4415 60.4369C32.3435 60.5838 32.27 60.6689 32.4415 60.6689H35.2439C35.4269 60.6689 35.3418 60.5826 35.2568 60.4369C34.8043 59.7021 34.7669 58.4543 34.7669 58.1114V56.6187C34.8043 55.456 35.0363 54.5743 35.9786 54.5743C37.3257 54.5743 37.8516 56.1289 37.8516 58.1359C37.8516 58.3319 37.8271 59.7021 37.3747 60.4369C37.3257 60.5104 37.1671 60.6689 37.3747 60.6689H40.1783C40.3369 60.6689 40.3124 60.6199 40.1538 60.375C39.664 59.6647 39.7014 57.5726 39.7014 57.5107L39.7001 57.512Z" fill="#D27849"/>
<path d="M46.6275 54.5254C47.7412 54.5499 47.7902 53.0442 46.5785 53.0198C45.6968 53.0069 44.779 53.5457 44.3626 54.2315C44.1796 54.207 44.0082 54.1941 43.8238 54.1941C41.9998 54.1941 40.6167 55.4793 40.6167 57.3033C40.6167 58.417 41.1426 59.3348 41.9637 59.8736C41.4868 59.9342 41.0459 60.1302 41.0459 60.5104C41.0459 61.0364 41.7807 61.3431 42.4781 61.3431C43.3224 61.3431 43.9102 61.0248 44.449 61.0248C46.0036 61.0248 45.6736 63.6325 43.8986 63.6325C42.6005 63.6325 42.344 62.6283 42.1236 61.931C41.9766 61.454 41.6092 61.2452 41.2547 61.2452C40.7159 61.2452 40.19 61.7221 40.3975 62.4698C40.703 63.559 42.6134 63.9999 44.021 63.9999C45.2083 63.9999 47.2527 63.3025 47.2527 61.8704C47.2527 61.1601 46.5063 60.5233 45.1722 60.5233C44.1435 60.5233 43.2876 60.9513 42.6263 60.9758C42.014 61.0003 41.6595 60.7798 41.6595 60.5594C41.6595 60.29 41.9534 60.1675 42.3079 60.1675C42.6869 60.1675 42.8712 60.3996 43.887 60.3996C45.6865 60.3751 47.0323 59.0899 47.0323 57.3033C47.0323 55.8466 46.1389 54.72 44.8409 54.341C44.9749 54.2804 45.1348 54.2547 45.2688 54.2431C45.7948 54.2315 46.1866 54.5241 46.6275 54.5241V54.5254ZM45.3913 57.9774C45.3913 58.9932 45.2443 60.0464 43.9837 60.0464C42.772 59.9239 42.2705 57.7815 42.2705 56.6317C42.2705 55.6275 42.4046 54.5511 43.5557 54.5511C44.8293 54.5511 45.3913 56.7425 45.3913 57.9787V57.9774Z" fill="#D27849"/>
<path d="M24.5887 22.6407C27.391 22.6407 29.4471 20.4648 29.4471 17.7823C29.4471 17.0488 29.2847 16.3514 28.992 15.7275L27.6321 16.5422C27.4168 16.6711 27.2454 16.8245 27.2338 17.1635C27.226 17.3698 27.2286 17.6508 27.217 17.8094C27.1783 18.3482 27.0933 18.7349 26.8754 19.119C26.4062 19.9479 25.705 20.4351 24.5887 20.4351C23.4723 20.4351 22.7724 19.9466 22.3019 19.119C22.084 18.7349 21.999 18.3482 21.9603 17.8094C21.9487 17.6495 21.95 17.3685 21.9435 17.1635C21.9306 16.8245 21.7592 16.6711 21.5452 16.5422L20.1853 15.7275C19.8926 16.3514 19.7302 17.0488 19.7302 17.7823C19.7302 20.4648 21.7863 22.6407 24.5887 22.6407Z" fill="#D27849"/>
<path d="M24.5887 16.398C25.977 16.398 27.1036 15.2727 27.1036 13.8831C27.1036 12.4935 25.9783 11.3682 24.5887 11.3682C23.1991 11.3682 22.0737 12.4935 22.0737 13.8831C22.0737 15.2727 23.1991 16.398 24.5887 16.398ZM24.5887 13.1638C24.9857 13.1638 25.3092 13.4861 25.3092 13.8844C25.3092 14.2827 24.987 14.605 24.5887 14.605C24.1903 14.605 23.8681 14.2827 23.8681 13.8844C23.8681 13.4861 24.1903 13.1638 24.5887 13.1638Z" fill="#D27849"/>
<path d="M28.35 25.586C28.35 25.586 28.3719 25.5731 28.4132 25.5499L28.4699 25.5164C28.613 25.4339 28.8669 25.2869 29.1621 25.1155L29.5888 24.868L30.0619 24.5934C30.7966 24.1474 31.195 23.3276 32.1811 20.5703L24.5873 24.8332L17.4898 20.8475L17.0721 21.1942C17.0721 21.1942 18.057 23.2593 18.4721 23.9889C18.5906 24.1977 18.7479 24.364 18.9799 24.5058C20.367 25.3566 24.5873 27.7671 24.5873 27.7671L28.35 25.586Z" fill="#D27849"/>
<path d="M35.9309 19.5112C35.9309 19.9817 36.3125 20.3633 36.783 20.3633H43.2256C43.6961 20.3633 44.0777 19.9817 44.0777 19.5112C44.0777 19.0407 43.6961 18.6592 43.2256 18.6592H36.783C36.3125 18.6592 35.9309 19.0407 35.9309 19.5112Z" fill="#D27849"/>
<path d="M5.91029 20.3633H12.353C12.8235 20.3633 13.205 19.9817 13.205 19.5112C13.205 19.0407 12.8235 18.6592 12.353 18.6592H5.91029C5.43979 18.6592 5.05823 19.0407 5.05823 19.5112C5.05823 19.9817 5.43979 20.3633 5.91029 20.3633Z" fill="#D27849"/>
<path d="M34.3763 13.7746C34.6135 14.1806 35.1356 14.3173 35.5429 14.0801L41.1052 10.8278C41.5112 10.5906 41.6479 10.0673 41.4107 9.66121C41.1735 9.25516 40.6514 9.11852 40.2441 9.3557L34.6818 12.608C34.2758 12.8452 34.1391 13.3685 34.3763 13.7746Z" fill="#D27849"/>
<path d="M8.89192 29.6663L14.4542 26.414C14.8602 26.1768 14.9969 25.6548 14.7597 25.2474C14.5225 24.8401 14.0004 24.7047 13.5931 24.9419L8.03084 28.1942C7.62479 28.4314 7.48815 28.9547 7.72533 29.3608C7.96252 29.7668 8.48458 29.9035 8.89192 29.6663Z" fill="#D27849"/>
<path d="M8.03206 10.8278L13.5943 14.0801C14.0004 14.3173 14.5224 14.1806 14.7609 13.7746C14.9981 13.3685 14.8614 12.8464 14.4554 12.608L8.89314 9.3557C8.48709 9.11852 7.96503 9.25516 7.72655 9.66121C7.48937 10.0673 7.62601 10.5893 8.03206 10.8278Z" fill="#D27849"/>
<path d="M40.2441 29.666C40.6501 29.9032 41.1722 29.7666 41.4107 29.3605C41.6479 28.9545 41.5112 28.4324 41.1052 28.1939L35.5429 24.9416C35.1369 24.7045 34.6148 24.8411 34.3763 25.2471C34.1391 25.6532 34.2758 26.1753 34.6818 26.4137L40.2441 29.666Z" fill="#D27849"/>
<path d="M24.568 8.14808C25.0385 8.14808 25.4201 7.76652 25.4201 7.29602V0.852062C25.4201 0.381559 25.0385 0 24.568 0C24.0975 0 23.7159 0.381559 23.7159 0.852062V7.29473C23.7159 7.76523 24.0975 8.14679 24.568 8.14679V8.14808Z" fill="#D27849"/>
<path d="M30.223 9.65473C30.6316 9.88933 31.1524 9.74754 31.387 9.33891L34.5942 3.75088C34.8288 3.34225 34.687 2.82148 34.2783 2.58687C33.8697 2.35226 33.3489 2.49406 33.1143 2.90269L29.9072 8.49071C29.6726 8.89934 29.8144 9.42012 30.223 9.65473Z" fill="#D27849"/>
<path d="M17.7489 9.34029C17.9835 9.74892 18.5043 9.88942 18.9129 9.65611C19.3215 9.42279 19.462 8.90072 19.2287 8.49209L16.0216 2.90407C15.787 2.49544 15.2662 2.35493 14.8576 2.58825C14.4489 2.82157 14.3084 3.34363 14.5417 3.75226L17.7489 9.34029Z" fill="#D27849"/>
</g>
<defs>
<clipPath id="clip0_1106_25">
<rect width="48.001" height="64" fill="white" transform="translate(-0.000976562)"/>
</clipPath>
</defs>
</svg>
