<svg width="108" height="56" viewBox="0 0 108 56" fill="none" xmlns="http://www.w3.org/2000/svg">
<path d="M46 33.0852V10.1806C46 4.55875 41.3699 0 35.6601 0H6.99158C0.465848 0 -2.4884 8.03366 2.52327 12.1474L34.4995 38.3867C39.0663 42.1334 45.9982 38.9373 45.9982 33.0834L46 33.0852Z" fill="#020922"/>
<path d="M46 49.0852V26.1806C46 20.5588 41.4705 16 35.8848 16H7.83918C1.45525 16 -1.43481 24.0337 3.46969 28.1474L34.7511 54.3867C39.2187 58.1334 46 54.9373 46 49.0834V49.0852Z" fill="#F79622"/>
<path d="M77.2064 20.4639V31.9013H83.9805V30.6284H78.6832V20.4639H77.2064Z" fill="#020922"/>
<path d="M63.9014 29.0618C63.9014 28.528 63.8192 28.0677 63.6581 27.693C63.4971 27.3201 63.2658 26.9933 62.9694 26.7212C62.6713 26.4475 62.3133 26.2097 61.9089 26.0146C61.4995 25.8162 61.0403 25.6143 60.5469 25.4158C60.1957 25.2824 59.8685 25.1472 59.5755 25.0137C59.2808 24.8786 59.017 24.728 58.7943 24.5655C58.5664 24.3995 58.3882 24.2045 58.2632 23.9872C58.1364 23.7682 58.073 23.4927 58.073 23.1711C58.073 22.8836 58.1347 22.6287 58.2546 22.4131C58.3745 22.1993 58.5407 22.0213 58.7463 21.8828C58.9502 21.7459 59.1917 21.6415 59.4624 21.5731C59.7314 21.5046 60.0261 21.4704 60.3396 21.4704C60.9495 21.4704 61.4926 21.5423 61.9552 21.6826C62.3749 21.8109 62.7056 21.9426 62.9386 22.0761L63.4046 20.8767C63.1442 20.7142 62.745 20.5602 62.2173 20.4216C61.6571 20.2728 61.0249 20.1992 60.3379 20.1992C59.1558 20.1992 58.2169 20.4798 57.5488 21.0359C56.8823 21.5885 56.5448 22.3687 56.5448 23.3559C56.5448 23.8332 56.6236 24.2455 56.7795 24.5809C56.9354 24.9162 57.1496 25.2088 57.4186 25.4534C57.6892 25.6981 58.013 25.9137 58.3797 26.0933C58.7515 26.2747 59.1489 26.4406 59.5635 26.5826C59.9284 26.7161 60.2762 26.8513 60.6017 26.9847C60.9307 27.1199 61.2271 27.2824 61.4841 27.4672C61.7445 27.6554 61.9535 27.8812 62.106 28.1379C62.2602 28.3962 62.339 28.7144 62.339 29.0806C62.339 30.2748 61.4703 30.8805 59.7588 30.8805C59.005 30.8805 58.3574 30.7898 57.8349 30.6101C57.3586 30.4476 56.9885 30.2953 56.7315 30.1585L56.2964 31.3715C56.4129 31.4331 56.5636 31.505 56.7487 31.5854C56.9594 31.6778 57.2164 31.7667 57.5094 31.8488C57.8023 31.931 58.1432 32.0028 58.5202 32.0644C58.8971 32.1243 59.3134 32.1551 59.7605 32.1551C61.0746 32.1551 62.106 31.8848 62.8255 31.3493C63.5382 30.8189 63.8997 30.0507 63.8997 29.0635L63.9014 29.0618Z" fill="#020922"/>
<path d="M92.2092 26.5102V25.2869H87.4087V21.7197H92.8037V20.4639H85.9302V31.9013H93.2183V30.6438H87.4087V26.5102H92.2092Z" fill="#020922"/>
<path d="M102.257 29.0618C102.257 28.528 102.175 28.0677 102.014 27.693C101.853 27.3201 101.622 26.9933 101.325 26.7212C101.027 26.4475 100.669 26.2097 100.265 26.0146C99.8553 25.8162 99.3962 25.6143 98.9028 25.4158C98.5515 25.2824 98.2243 25.1472 97.9314 25.0137C97.6367 24.8786 97.3728 24.728 97.1501 24.5655C96.9222 24.3995 96.7441 24.2045 96.619 23.9872C96.4922 23.7682 96.4288 23.4927 96.4288 23.1711C96.4288 22.8836 96.4905 22.6287 96.6104 22.4131C96.7304 22.1993 96.8966 22.0213 97.1021 21.8828C97.306 21.7459 97.5476 21.6415 97.8183 21.5731C98.0873 21.5046 98.3819 21.4704 98.6954 21.4704C99.3054 21.4704 99.8485 21.5423 100.311 21.6826C100.731 21.8109 101.061 21.9426 101.294 22.0761L101.76 20.8767C101.5 20.7142 101.101 20.5602 100.573 20.4216C100.013 20.2728 99.3807 20.1992 98.6937 20.1992C97.5116 20.1992 96.5728 20.4798 95.9046 21.0359C95.2381 21.5885 94.9006 22.3687 94.9006 23.3559C94.9006 23.8332 94.9795 24.2455 95.1354 24.5809C95.2913 24.9162 95.5054 25.2088 95.7744 25.4534C96.0451 25.6981 96.3689 25.9137 96.7355 26.0933C97.1073 26.2747 97.5048 26.4406 97.9194 26.5826C98.2843 26.7161 98.6321 26.8513 98.9576 26.9847C99.2865 27.1199 99.5829 27.2824 99.8399 27.4672C100.1 27.6554 100.309 27.8812 100.462 28.1379C100.616 28.3962 100.695 28.7144 100.695 29.0806C100.695 30.2748 99.8262 30.8805 98.1147 30.8805C97.3608 30.8805 96.7132 30.7898 96.1907 30.6101C95.7144 30.4476 95.3444 30.2953 95.0874 30.1585L94.6522 31.3715C94.7687 31.4331 94.9195 31.505 95.1045 31.5854C95.3152 31.6778 95.5722 31.7667 95.8652 31.8488C96.1581 31.931 96.4991 32.0028 96.876 32.0644C97.2529 32.1243 97.6692 32.1551 98.1164 32.1551C99.4304 32.1551 100.462 31.8848 101.181 31.3493C101.894 30.8189 102.256 30.0507 102.256 29.0635L102.257 29.0618Z" fill="#020922"/>
<path d="M72.7024 28.9463L72.7178 28.9891C72.8977 29.5007 73.0707 29.9986 73.2318 30.4674C73.3945 30.9413 73.5676 31.4238 73.7457 31.9011H75.3647C74.9399 30.7223 74.5321 29.6085 74.1535 28.5905C73.7663 27.5468 73.3842 26.5511 73.0193 25.6289C72.6493 24.6964 72.2792 23.7948 71.9194 22.9513C71.5631 22.1164 71.1844 21.2797 70.7955 20.4619H69.4044C69.0138 21.2832 68.6369 22.1198 68.2805 22.9513C67.919 23.7965 67.549 24.6964 67.1806 25.6289C66.8157 26.5494 66.4354 27.5451 66.0465 28.5905C65.6644 29.6187 65.2584 30.7308 64.8369 31.9011H66.372L67.4153 28.9463H72.7041H72.7024ZM67.8608 27.6546C68.1983 26.6999 68.5461 25.7538 68.8956 24.8401C69.2416 23.9368 69.6134 23.0557 69.9989 22.2242L70.0571 22.0958L70.1154 22.2242C70.4906 23.0591 70.8555 23.9385 71.2016 24.8401C71.5425 25.7281 71.8954 26.6743 72.2535 27.6529L72.2843 27.7384H67.8299L67.8608 27.6529V27.6546Z" fill="#020922"/>
<path d="M79.9253 3.92969H78.2857C77.8625 4.82621 77.388 5.74839 76.8774 6.67571C76.3617 7.61158 75.8255 8.52521 75.2858 9.39093L75.231 9.47819L75.1762 9.39264C74.6245 8.52692 74.0848 7.61329 73.5692 6.67742C73.0586 5.75352 72.5909 4.82963 72.178 3.9314H70.4391C71.0199 5.0127 71.6435 6.12479 72.2911 7.24031C72.9593 8.39005 73.684 9.574 74.4412 10.7597L74.4515 10.7751V15.3689H75.9283V10.7408L75.9386 10.7254C76.6838 9.55347 77.4034 8.37807 78.0733 7.23176C78.726 6.11624 79.3479 5.00585 79.9253 3.9314V3.92969Z" fill="#020922"/>
<path d="M64.5798 11.4511C64.794 10.9669 65.0218 10.4691 65.2583 9.97289C65.4981 9.46645 65.7226 8.98911 65.935 8.53743C66.144 8.09259 66.3445 7.68539 66.5295 7.3261C66.7145 6.97023 66.8636 6.69306 66.9749 6.50486L67.076 6.33377L67.0949 6.53223C67.2165 7.83937 67.3176 9.27483 67.3964 10.7993C67.4735 12.3066 67.5403 13.843 67.5951 15.3691H69.0548C68.8663 11.4511 68.5837 7.60327 68.2119 3.93164H66.8841C66.5895 4.41412 66.2691 4.98728 65.935 5.63229C65.5889 6.30126 65.2394 7.00616 64.9002 7.72474C64.5576 8.44846 64.2201 9.18415 63.898 9.90958C63.5742 10.6384 63.2795 11.304 63.0122 11.9045L62.954 12.0363L62.8957 11.9045C62.6285 11.304 62.3321 10.6384 62.01 9.90958C61.6896 9.18586 61.3521 8.45188 61.0077 7.72474C60.6617 6.99589 60.3122 6.29099 59.9729 5.63229C59.6372 4.98385 59.3185 4.41241 59.0238 3.93164H57.6961C57.5984 4.74946 57.5076 5.62203 57.4271 6.5271C57.3448 7.44586 57.266 8.41424 57.1924 9.40486C57.1204 10.3818 57.0553 11.3929 57.0005 12.4075C56.9474 13.3862 56.8977 14.3819 56.8531 15.3691H58.3128C58.3676 13.8498 58.4345 12.3117 58.5116 10.7993C58.5887 9.27312 58.6897 7.83766 58.8131 6.53223L58.8319 6.33377L58.933 6.50486C59.0444 6.69477 59.1951 6.97194 59.3785 7.3261C59.5618 7.68026 59.7605 8.08746 59.9729 8.53743C60.1837 8.9874 60.4098 9.46645 60.6497 9.97289C60.8861 10.4742 61.1157 10.9721 61.3281 11.4511C61.5388 11.9302 61.7376 12.375 61.9209 12.7856C62.0922 13.1706 62.2361 13.4991 62.3475 13.766H63.5656C63.6718 13.5128 63.8106 13.1928 63.9922 12.7856C64.1755 12.3733 64.3742 11.9285 64.585 11.4511H64.5798Z" fill="#020922"/>
<path d="M84.7188 46.4766L84.7343 46.5194C84.9142 47.031 85.0872 47.5288 85.2482 47.9976C85.411 48.4716 85.584 48.954 85.7622 49.4314H87.3812C86.9563 48.2526 86.5486 47.1387 86.17 46.1208C85.7811 45.0754 85.4007 44.0796 85.0358 43.1592C84.6675 42.2284 84.2974 41.3285 83.9359 40.4816C83.5813 39.6518 83.2026 38.8134 82.812 37.9922H81.4209C81.0303 38.8134 80.6516 39.6518 80.297 40.4816C79.9338 41.3302 79.5637 42.2301 79.1971 43.1592C78.8322 44.0796 78.4518 45.0754 78.0629 46.1208C77.6809 47.149 77.2748 48.2611 76.8534 49.4314H78.3884L79.4318 46.4766H84.7206H84.7188ZM79.879 45.1849C80.2148 44.2319 80.5643 43.2858 80.9138 42.3704C81.2598 41.4653 81.6316 40.5859 82.0171 39.7544L82.0753 39.6261L82.1336 39.7544C82.5088 40.5876 82.8737 41.4671 83.2198 42.3704C83.5624 43.2635 83.9153 44.2097 84.2717 45.1832L84.3025 45.2687H79.8481L79.879 45.1832V45.1849Z" fill="#F79622"/>
<path d="M108 49.4316V37.9941H106.523V42.8172H100.784V37.9941H99.3053V49.4316H100.784V44.0901H106.523V49.4316H108Z" fill="#F79622"/>
<path d="M96.8074 49.1613C96.9719 49.0929 97.0935 49.033 97.1706 48.9851L96.7937 47.767C96.5504 47.8816 96.2044 48.0116 95.7606 48.1553C95.2724 48.3127 94.647 48.3914 93.9035 48.3914C93.2559 48.3914 92.682 48.2768 92.1954 48.051C91.7071 47.8251 91.296 47.5018 90.9722 47.0894C90.6483 46.6788 90.4017 46.1792 90.2406 45.6061C90.0796 45.0363 89.9973 44.3947 89.9973 43.7035C89.9973 43.0123 90.0898 42.3331 90.2732 41.7565C90.4565 41.1782 90.7254 40.6786 91.0715 40.2731C91.4176 39.8677 91.8442 39.5528 92.3359 39.3373C92.8276 39.1234 93.3878 39.0156 93.9994 39.0156C94.289 39.0156 94.5802 39.0413 94.8629 39.0909C95.1439 39.1405 95.4094 39.2055 95.6493 39.2842C95.8857 39.3612 96.1016 39.4416 96.2917 39.5203C96.4425 39.5819 96.5676 39.6418 96.6635 39.7L97.0833 38.4887C97.0147 38.4476 96.9085 38.3894 96.768 38.3193C96.5967 38.232 96.3688 38.1448 96.0913 38.0558C95.8137 37.9685 95.4831 37.8898 95.1062 37.8248C94.731 37.7598 94.3027 37.7256 93.835 37.7256C93.0966 37.7256 92.3924 37.859 91.7397 38.1208C91.0887 38.3826 90.5113 38.771 90.023 39.274C89.5348 39.7787 89.1407 40.4083 88.8529 41.1474C88.5651 41.8865 88.4177 42.7471 88.4177 43.7035C88.4177 44.6599 88.5479 45.5205 88.8032 46.2613C89.0585 47.0005 89.4234 47.6301 89.8911 48.1331C90.3571 48.6361 90.9225 49.0228 91.5735 49.2862C92.2245 49.5497 92.9578 49.6815 93.751 49.6815C94.2085 49.6815 94.6402 49.6541 95.0342 49.5993C95.4266 49.5446 95.7743 49.4779 96.069 49.4009C96.3603 49.3256 96.6087 49.2452 96.8057 49.1613H96.8074Z" fill="#F79622"/>
<path d="M63.2778 49.1613C63.4422 49.0929 63.5639 49.033 63.641 48.9851L63.2641 47.767C63.0208 47.8816 62.6747 48.0116 62.231 48.1553C61.7427 48.3127 61.1174 48.3914 60.3738 48.3914C59.7262 48.3914 59.1523 48.2768 58.6657 48.051C58.1792 47.8251 57.7663 47.5018 57.4425 47.0894C57.1187 46.6788 56.872 46.1792 56.7109 45.6061C56.5499 45.0363 56.4677 44.3947 56.4677 43.7035C56.4677 43.0123 56.5602 42.3331 56.7435 41.7565C56.9268 41.1782 57.1958 40.6786 57.5419 40.2731C57.8879 39.8677 58.3145 39.5528 58.8062 39.3373C59.2979 39.1234 59.8581 39.0156 60.4698 39.0156C60.7593 39.0156 61.0506 39.0413 61.3332 39.0909C61.6142 39.1405 61.8798 39.2055 62.1196 39.2842C62.356 39.3612 62.5719 39.4416 62.7621 39.5203C62.9128 39.5819 63.0379 39.6435 63.1339 39.7L63.5536 38.4887C63.4851 38.4476 63.3788 38.3894 63.2384 38.3193C63.067 38.232 62.8392 38.1448 62.5616 38.0558C62.2841 37.9685 61.9517 37.8898 61.5765 37.8248C61.2013 37.7598 60.773 37.7256 60.3053 37.7256C59.5669 37.7256 58.8628 37.859 58.21 38.1208C57.559 38.3826 56.9816 38.771 56.4934 39.274C56.0051 39.777 55.611 40.4083 55.3232 41.1474C55.0354 41.8865 54.8881 42.7471 54.8881 43.7035C54.8881 44.6599 55.0183 45.5205 55.2735 46.2613C55.5288 47.0005 55.8937 47.6301 56.3614 48.1331C56.8274 48.6361 57.3928 49.0228 58.0438 49.2862C58.6949 49.5497 59.4281 49.6815 60.2214 49.6815C60.6788 49.6815 61.1105 49.6541 61.5046 49.5993C61.8969 49.5446 62.2447 49.4779 62.5394 49.4009C62.8306 49.3256 63.079 49.2452 63.2761 49.1613H63.2778Z" fill="#F79622"/>
<path d="M75.3527 46.3007C75.6405 45.5547 75.7879 44.6805 75.7879 43.7035C75.7879 42.7266 75.6422 41.8523 75.3527 41.1064C75.0649 40.3621 74.6708 39.7308 74.1826 39.2346C73.6943 38.7367 73.1203 38.3569 72.4745 38.1054C71.8286 37.8539 71.1313 37.7256 70.4032 37.7256C69.675 37.7256 68.9555 37.8539 68.2993 38.1054C67.6431 38.3569 67.0606 38.7367 66.5672 39.2346C66.0738 39.7325 65.6781 40.3621 65.3902 41.1064C65.1024 41.8523 64.9551 42.7249 64.9551 43.7035C64.9551 44.6822 65.1007 45.5564 65.3902 46.3007C65.6781 47.0449 66.0738 47.6763 66.5672 48.1724C67.0606 48.6703 67.6431 49.0501 68.2993 49.3016C68.9572 49.5531 69.6648 49.6815 70.4032 49.6815C71.1416 49.6815 71.8269 49.5531 72.4745 49.3016C73.1186 49.0501 73.6943 48.6703 74.1826 48.1724C74.6708 47.6746 75.0632 47.0449 75.3527 46.3007ZM73.1786 47.1168C72.8479 47.524 72.4419 47.8405 71.9725 48.0612C71.5013 48.2819 70.9634 48.3931 70.3723 48.3931C69.7813 48.3931 69.2399 48.2819 68.7636 48.0612C68.2873 47.8405 67.8796 47.524 67.5489 47.1168C67.22 46.7113 66.9613 46.2134 66.7848 45.6352C66.6066 45.0586 66.5176 44.4101 66.5176 43.7052C66.5176 43.0003 66.6084 42.3519 66.7848 41.7753C66.963 41.197 67.22 40.6992 67.5489 40.2937C67.8796 39.8865 68.2873 39.57 68.7636 39.3492C69.2382 39.1285 69.7795 39.0173 70.3706 39.0173C70.9617 39.0173 71.4996 39.1285 71.9708 39.3492C72.4402 39.57 72.8462 39.8865 73.1769 40.2937C73.5058 40.6992 73.7628 41.197 73.941 41.7753C74.1192 42.3519 74.2083 43.002 74.2083 43.7052C74.2083 44.4084 74.1175 45.0586 73.941 45.6352C73.7628 46.2134 73.5058 46.7113 73.1769 47.1168H73.1786Z" fill="#F79622"/>
<path d="M35.8848 16C41.4705 16 46 20.5588 46 26.1807V33.085L45.998 33.083C45.998 38.9367 39.0668 42.1331 34.5 38.3867L7.24707 16.0234C7.44079 16.0079 7.6381 16 7.83887 16H35.8848Z" fill="#DF8822"/>
</svg>
