<svg width="164" height="48" viewBox="0 0 164 48" fill="none" xmlns="http://www.w3.org/2000/svg">
<g clip-path="url(#clip0_1037_30)">
<path d="M131.698 5.69014C132.168 5.69014 132.548 5.31179 132.548 4.84507C132.548 4.37835 132.168 4 131.698 4C131.229 4 130.848 4.37835 130.848 4.84507C130.848 5.31179 131.229 5.69014 131.698 5.69014Z" fill="#52DF45"/>
<path d="M156.73 5.89108C157.193 5.89108 157.569 5.51788 157.569 5.05751C157.569 4.59714 157.193 4.22393 156.73 4.22393C156.267 4.22393 155.891 4.59714 155.891 5.05751C155.891 5.51788 156.267 5.89108 156.73 5.89108Z" fill="#52DF45"/>
<path d="M126.811 7.08709C127.373 7.08709 127.829 6.6341 127.829 6.07531C127.829 5.51652 127.373 5.06352 126.811 5.06352C126.249 5.06352 125.793 5.51652 125.793 6.07531C125.793 6.6341 126.249 7.08709 126.811 7.08709Z" fill="#52DF45"/>
<path d="M161.958 7.82294C162.521 7.82294 162.976 7.36995 162.976 6.81115C162.976 6.25236 162.521 5.79937 161.958 5.79937C161.396 5.79937 160.94 6.25236 160.94 6.81115C160.94 7.36995 161.396 7.82294 161.958 7.82294Z" fill="#52DF45"/>
<path d="M135.035 8.80023C135.617 8.80023 136.088 8.3318 136.088 7.75395C136.088 7.17611 135.617 6.70767 135.035 6.70767C134.454 6.70767 133.983 7.17611 133.983 7.75395C133.983 8.3318 134.454 8.80023 135.035 8.80023Z" fill="#52DF45"/>
<path d="M153.416 8.71975C153.997 8.71975 154.468 8.25131 154.468 7.67347C154.468 7.09563 153.997 6.62719 153.416 6.62719C152.835 6.62719 152.363 7.09563 152.363 7.67347C152.363 8.25131 152.835 8.71975 153.416 8.71975Z" fill="#52DF45"/>
<path d="M130.258 11.4849C131.149 11.4849 131.872 10.7668 131.872 9.881C131.872 8.99519 131.149 8.27709 130.258 8.27709C129.367 8.27709 128.644 8.99519 128.644 9.881C128.644 10.7668 129.367 11.4849 130.258 11.4849Z" fill="#52DF45"/>
<path d="M158.13 11.8298C159.027 11.8298 159.755 11.1066 159.755 10.2144C159.755 9.32226 159.027 8.59902 158.13 8.59902C157.232 8.59902 156.504 9.32226 156.504 10.2144C156.504 11.1066 157.232 11.8298 158.13 11.8298Z" fill="#52DF45"/>
<path d="M149.419 12.5887C150.311 12.5887 151.033 11.8706 151.033 10.9848C151.033 10.099 150.311 9.38086 149.419 9.38086C148.528 9.38086 147.806 10.099 147.806 10.9848C147.806 11.8706 148.528 12.5887 149.419 12.5887Z" fill="#52DF45"/>
<path d="M138.806 12.8244C139.697 12.8244 140.42 12.1063 140.42 11.2205C140.42 10.3347 139.697 9.61656 138.806 9.61656C137.915 9.61656 137.193 10.3347 137.193 11.2205C137.193 12.1063 137.915 12.8244 138.806 12.8244Z" fill="#52DF45"/>
<path d="M125.047 12.1058C125.513 12.1058 125.891 11.73 125.891 11.2665C125.891 10.8029 125.513 10.4271 125.047 10.4271C124.58 10.4271 124.202 10.8029 124.202 11.2665C124.202 11.73 124.58 12.1058 125.047 12.1058Z" fill="#52DF45"/>
<path d="M134.521 16.4174C135.702 16.4174 136.661 15.4651 136.661 14.2903C136.661 13.1156 135.702 12.1633 134.521 12.1633C133.339 12.1633 132.381 13.1156 132.381 14.2903C132.381 15.4651 133.339 16.4174 134.521 16.4174Z" fill="#52DF45"/>
<path d="M153.693 16.5783C154.875 16.5783 155.833 15.626 155.833 14.4513C155.833 13.2765 154.875 12.3242 153.693 12.3242C152.512 12.3242 151.554 13.2765 151.554 14.4513C151.554 15.626 152.512 16.5783 153.693 16.5783Z" fill="#52DF45"/>
<path d="M144.064 17.5039C145.249 17.5039 146.209 16.549 146.209 15.3711C146.209 14.1932 145.249 13.2383 144.064 13.2383C142.879 13.2383 141.918 14.1932 141.918 15.3711C141.918 16.549 142.879 17.5039 144.064 17.5039Z" fill="#52DF45"/>
<path d="M127.73 15.6125C128.305 15.6125 128.772 15.1492 128.772 14.5778C128.772 14.0063 128.305 13.543 127.73 13.543C127.156 13.543 126.689 14.0063 126.689 14.5778C126.689 15.1492 127.156 15.6125 127.73 15.6125Z" fill="#52DF45"/>
<path d="M160.264 16.0035C160.842 16.0035 161.311 15.5376 161.311 14.9629C161.311 14.3883 160.842 13.9224 160.264 13.9224C159.686 13.9224 159.217 14.3883 159.217 14.9629C159.217 15.5376 159.686 16.0035 160.264 16.0035Z" fill="#52DF45"/>
<path d="M148.829 21.597C150.343 21.597 151.571 20.377 151.571 18.8721C151.571 17.3672 150.343 16.1472 148.829 16.1472C147.315 16.1472 146.088 17.3672 146.088 18.8721C146.088 20.377 147.315 21.597 148.829 21.597Z" fill="#52DF45"/>
<path d="M138.962 21.8557C140.476 21.8557 141.704 20.6357 141.704 19.1308C141.704 17.6259 140.476 16.4059 138.962 16.4059C137.448 16.4059 136.221 17.6259 136.221 19.1308C136.221 20.6357 137.448 21.8557 138.962 21.8557Z" fill="#52DF45"/>
<path d="M131.039 20.1656C131.936 20.1656 132.664 19.4423 132.664 18.5502C132.664 17.658 131.936 16.9348 131.039 16.9348C130.141 16.9348 129.414 17.658 129.414 18.5502C129.414 19.4423 130.141 20.1656 131.039 20.1656Z" fill="#52DF45"/>
<path d="M156.77 20.315C157.665 20.315 158.39 19.5944 158.39 18.7054C158.39 17.8164 157.665 17.0957 156.77 17.0957C155.876 17.0957 155.151 17.8164 155.151 18.7054C155.151 19.5944 155.876 20.315 156.77 20.315Z" fill="#52DF45"/>
<path d="M144.116 27.3458C145.917 27.3458 147.378 25.8942 147.378 24.1035C147.378 22.3128 145.917 20.8612 144.116 20.8612C142.314 20.8612 140.854 22.3128 140.854 24.1035C140.854 25.8942 142.314 27.3458 144.116 27.3458Z" fill="#52DF45"/>
<path d="M134.816 26.3225C135.994 26.3225 136.95 25.3728 136.95 24.2012C136.95 23.0296 135.994 22.0799 134.816 22.0799C133.637 22.0799 132.681 23.0296 132.681 24.2012C132.681 25.3728 133.637 26.3225 134.816 26.3225Z" fill="#52DF45"/>
<path d="M152.728 26.3168C153.906 26.3168 154.862 25.367 154.862 24.1955C154.862 23.0239 153.906 22.0742 152.728 22.0742C151.549 22.0742 150.593 23.0239 150.593 24.1955C150.593 25.367 151.549 26.3168 152.728 26.3168Z" fill="#52DF45"/>
<path d="M138.506 31.3182C140.013 31.3182 141.235 30.1034 141.235 28.6048C141.235 27.1062 140.013 25.8913 138.506 25.8913C136.998 25.8913 135.776 27.1062 135.776 28.6048C135.776 30.1034 136.998 31.3182 138.506 31.3182Z" fill="#52DF45"/>
<path d="M148.76 32.1058C150.264 32.1058 151.484 30.8935 151.484 29.3981C151.484 27.9027 150.264 26.6904 148.76 26.6904C147.255 26.6904 146.036 27.9027 146.036 29.3981C146.036 30.8935 147.255 32.1058 148.76 32.1058Z" fill="#52DF45"/>
<path d="M130.981 30.6571C131.872 30.6571 132.595 29.939 132.595 29.0532C132.595 28.1674 131.872 27.4493 130.981 27.4493C130.09 27.4493 129.367 28.1674 129.367 29.0532C129.367 29.939 130.09 30.6571 130.981 30.6571Z" fill="#52DF45"/>
<path d="M156.736 30.91C157.627 30.91 158.349 30.1919 158.349 29.3061C158.349 28.4203 157.627 27.7022 156.736 27.7022C155.844 27.7022 155.122 28.4203 155.122 29.3061C155.122 30.1919 155.844 30.91 156.736 30.91Z" fill="#52DF45"/>
<path d="M143.358 35.2791C144.543 35.2791 145.504 34.3242 145.504 33.1463C145.504 31.9684 144.543 31.0135 143.358 31.0135C142.173 31.0135 141.212 31.9684 141.212 33.1463C141.212 34.3242 142.173 35.2791 143.358 35.2791Z" fill="#52DF45"/>
<path d="M134.37 35.4918C135.552 35.4918 136.51 34.5395 136.51 33.3648C136.51 32.19 135.552 31.2377 134.37 31.2377C133.188 31.2377 132.23 32.19 132.23 33.3648C132.23 34.5395 133.188 35.4918 134.37 35.4918Z" fill="#52DF45"/>
<path d="M153.555 35.6125C154.733 35.6125 155.689 34.6628 155.689 33.4912C155.689 32.3197 154.733 31.3699 153.555 31.3699C152.376 31.3699 151.42 32.3197 151.42 33.4912C151.42 34.6628 152.376 35.6125 153.555 35.6125Z" fill="#52DF45"/>
<path d="M127.563 34.0029C128.147 34.0029 128.621 33.5319 128.621 32.9509C128.621 32.3698 128.147 31.8988 127.563 31.8988C126.978 31.8988 126.504 32.3698 126.504 32.9509C126.504 33.5319 126.978 34.0029 127.563 34.0029Z" fill="#52DF45"/>
<path d="M160.119 34.1983C160.704 34.1983 161.178 33.7273 161.178 33.1463C161.178 32.5653 160.704 32.0943 160.119 32.0943C159.535 32.0943 159.061 32.5653 159.061 33.1463C159.061 33.7273 159.535 34.1983 160.119 34.1983Z" fill="#52DF45"/>
<path d="M138.586 38.142C139.481 38.142 140.206 37.4213 140.206 36.5323C140.206 35.6433 139.481 34.9227 138.586 34.9227C137.692 34.9227 136.967 35.6433 136.967 36.5323C136.967 37.4213 137.692 38.142 138.586 38.142Z" fill="#52DF45"/>
<path d="M149.205 38.4754C150.097 38.4754 150.819 37.7573 150.819 36.8715C150.819 35.9857 150.097 35.2676 149.205 35.2676C148.314 35.2676 147.592 35.9857 147.592 36.8715C147.592 37.7573 148.314 38.4754 149.205 38.4754Z" fill="#52DF45"/>
<path d="M124.856 37.038C125.329 37.038 125.712 36.6571 125.712 36.1872C125.712 35.7173 125.329 35.3364 124.856 35.3364C124.383 35.3364 124 35.7173 124 36.1872C124 36.6571 124.383 37.038 124.856 37.038Z" fill="#52DF45"/>
<path d="M131.368 43.6205C131.841 43.6205 132.224 43.2396 132.224 42.7697C132.224 42.2998 131.841 41.9189 131.368 41.9189C130.896 41.9189 130.512 42.2998 130.512 42.7697C130.512 43.2396 130.896 43.6205 131.368 43.6205Z" fill="#52DF45"/>
<path d="M162.982 37.3429C163.452 37.3429 163.832 36.9646 163.832 36.4978C163.832 36.0311 163.452 35.6528 162.982 35.6528C162.513 35.6528 162.132 36.0311 162.132 36.4978C162.132 36.9646 162.513 37.3429 162.982 37.3429Z" fill="#52DF45"/>
<path d="M130.933 36.4092C130.195 35.8799 129.182 36.0207 128.672 36.7237C128.162 37.4267 128.347 38.4257 129.086 38.955C129.824 39.4843 130.836 39.3435 131.346 38.6405C131.856 37.9375 131.671 36.9385 130.933 36.4092Z" fill="#52DF45"/>
<path d="M157.892 39.447C158.79 39.447 159.518 38.7237 159.518 37.8316C159.518 36.9394 158.79 36.2162 157.892 36.2162C156.995 36.2162 156.267 36.9394 156.267 37.8316C156.267 38.7237 156.995 39.447 157.892 39.447Z" fill="#52DF45"/>
<path d="M134.729 40.9359C135.307 40.9359 135.776 40.47 135.776 39.8954C135.776 39.3207 135.307 38.8548 134.729 38.8548C134.151 38.8548 133.682 39.3207 133.682 39.8954C133.682 40.47 134.151 40.9359 134.729 40.9359Z" fill="#52DF45"/>
<path d="M153.115 41.2923C153.693 41.2923 154.162 40.8265 154.162 40.2518C154.162 39.6771 153.693 39.2113 153.115 39.2113C152.537 39.2113 152.068 39.6771 152.068 40.2518C152.068 40.8265 152.537 41.2923 153.115 41.2923Z" fill="#52DF45"/>
<path d="M161.663 42.3501C162.232 42.3501 162.693 41.892 162.693 41.3268C162.693 40.7617 162.232 40.3035 161.663 40.3035C161.095 40.3035 160.634 40.7617 160.634 41.3268C160.634 41.892 161.095 42.3501 161.663 42.3501Z" fill="#52DF45"/>
<path d="M126.499 42.4651C127.067 42.4651 127.528 42.0069 127.528 41.4418C127.528 40.8767 127.067 40.4185 126.499 40.4185C125.93 40.4185 125.469 40.8767 125.469 41.4418C125.469 42.0069 125.93 42.4651 126.499 42.4651Z" fill="#52DF45"/>
<path d="M163.161 12.4567C163.625 12.4567 164 12.0835 164 11.6231C164 11.1628 163.625 10.7896 163.161 10.7896C162.698 10.7896 162.323 11.1628 162.323 11.6231C162.323 12.0835 162.698 12.4567 163.161 12.4567Z" fill="#52DF45"/>
<path d="M156.238 44C156.711 44 157.094 43.6191 157.094 43.1492C157.094 42.6793 156.711 42.2984 156.238 42.2984C155.766 42.2984 155.382 42.6793 155.382 43.1492C155.382 43.6191 155.766 44 156.238 44Z" fill="#52DF45"/>
<path fill-rule="evenodd" clip-rule="evenodd" d="M8.57031 19C9.74945 19 10.8147 19.2046 11.7617 19.6191C12.7038 20.0158 13.5033 20.5637 14.1533 21.2637C14.802 21.9622 15.2913 22.7849 15.6221 23.7275C15.9679 24.6676 16.1396 25.6634 16.1396 26.7139C16.1396 27.7804 15.9664 28.7847 15.6201 29.7256L15.6211 29.7266C15.2901 30.653 14.8011 31.4664 14.1533 32.1641C13.5041 32.8632 12.7072 33.4185 11.7666 33.8311L11.7627 33.832C10.8155 34.2308 9.75005 34.4277 8.57031 34.4277C7.3904 34.4277 6.32428 34.2309 5.37695 33.832L5.37402 33.8311C4.43341 33.4185 3.63555 32.8632 2.98633 32.1641C2.42016 31.5543 1.96913 30.856 1.63281 30.0713L1.49414 29.7246C1.16415 28.7841 1 27.7799 1 26.7139C1.00001 25.6635 1.16434 24.6676 1.49414 23.7275L1.49512 23.7236C1.84183 22.7826 2.33856 21.9613 2.98633 21.2637C3.63632 20.5637 4.43489 20.0158 5.37695 19.6191C6.32431 19.2043 7.39059 19 8.57031 19ZM8.57031 22.1885C7.81274 22.1885 7.17794 22.3122 6.6582 22.5498L6.65234 22.5518C6.12518 22.7777 5.69371 23.0917 5.35254 23.4922C5.02625 23.8938 4.77738 24.3721 4.61035 24.9316L4.61133 24.9326C4.45795 25.4848 4.37989 26.0784 4.37988 26.7139C4.37988 27.3464 4.45695 27.9458 4.60938 28.5127L4.67578 28.7148C4.83938 29.176 5.06471 29.5823 5.35156 29.9355C5.69392 30.3374 6.12855 30.6602 6.6582 30.9023C7.17865 31.1244 7.81318 31.2402 8.57031 31.2402C9.32733 31.2402 9.96204 31.1234 10.4824 30.9014C11.0107 30.6597 11.4347 30.3393 11.7598 29.9404L11.7637 29.9355L11.8877 29.7813C12.1669 29.4139 12.3729 28.9943 12.5049 28.5195L12.5059 28.5147C12.6745 27.9472 12.7598 27.3472 12.7598 26.7139C12.7598 26.0806 12.6749 25.4896 12.5068 24.9395L12.5049 24.9316C12.3537 24.3724 12.1058 23.8938 11.7637 23.4922L11.7598 23.4883C11.4356 23.0904 11.0137 22.7774 10.4873 22.5518L10.4824 22.5498C9.96274 22.3122 9.32777 22.1885 8.57031 22.1885Z" fill="black"/>
<path fill-rule="evenodd" clip-rule="evenodd" d="M29.0723 19.0461C29.806 19.0461 30.494 19.1795 31.1338 19.4484C31.7835 19.715 32.3468 20.083 32.8184 20.5529L32.9971 20.7277C33.3996 21.1431 33.7177 21.6232 33.9531 22.1652C34.2413 22.7756 34.3857 23.4285 34.3857 24.1203C34.3857 24.6766 34.2928 25.2096 34.1064 25.7179C33.922 26.2209 33.6699 26.6835 33.3506 27.1037L33.3477 27.1076C33.0277 27.5117 32.6414 27.872 32.1914 28.1886L32.1904 28.1896C31.8493 28.4258 31.4864 28.6283 31.1045 28.8019L35.5 34.2336H31.2803L25.7217 27.2912V34.2336H22.3418V19.0461H29.0723ZM25.7217 26.3898H28.5918C29.3214 26.3898 29.8991 26.2231 30.3428 25.9084L30.3467 25.9054C30.7674 25.616 31.0059 25.1099 31.0059 24.3117C31.0058 23.5567 30.7952 23.0574 30.4248 22.7531L30.418 22.7472C30.0316 22.4038 29.5867 22.2336 29.0723 22.2336H25.7217V26.3898Z" fill="black"/>
<path fill-rule="evenodd" clip-rule="evenodd" d="M47.8936 19C48.5656 19 49.1925 19.1259 49.7705 19.3809C50.3546 19.6155 50.866 19.9422 51.3038 20.3623L51.4649 20.5186C51.8302 20.8914 52.124 21.3228 52.3457 21.8105C52.6003 22.3545 52.7275 22.9255 52.7276 23.5215C52.7276 24.1508 52.5918 24.735 52.3164 25.2686C52.0949 25.6977 51.7986 26.0739 51.4336 26.4004C51.924 26.7422 52.328 27.1622 52.6416 27.6611C53.0196 28.2626 53.208 28.933 53.208 29.666C53.208 30.2779 53.0801 30.8585 52.8243 31.4043C52.6027 31.8769 52.3101 32.3043 51.9473 32.6855L51.7832 32.8496C51.3448 33.2543 50.8322 33.5817 50.2481 33.832L50.2452 33.833C49.6685 34.0705 49.0437 34.1875 48.3741 34.1875H40.6836V19H47.8936ZM44.0635 31H48.3741C48.7921 30.9999 49.1275 30.8628 49.3975 30.5928L49.4014 30.5889C49.6879 30.3161 49.8282 29.9893 49.8282 29.5938C49.8281 29.1982 49.6878 28.8714 49.4014 28.5986L49.3965 28.5947C49.1267 28.3252 48.7917 28.1876 48.3741 28.1875H44.0635V31ZM44.0635 25H47.8936C48.3118 25 48.647 24.8628 48.917 24.5928L48.9209 24.5889C49.2074 24.3161 49.3477 23.9893 49.3477 23.5938C49.3477 23.1982 49.2074 22.8714 48.9209 22.5986L48.917 22.5947C48.647 22.3247 48.3118 22.1875 47.8936 22.1875H44.0635V25Z" fill="black"/>
<path d="M62.3604 34.19H58.9805V19.1201H62.3604V34.19Z" fill="black"/>
<path d="M80.123 22.1875H75.5625V34.1875H72.1826V22.1875H67.623V19H80.123V22.1875Z" fill="black"/>
<path fill-rule="evenodd" clip-rule="evenodd" d="M100 34.19H96.335L96.2734 34.1465L95.0869 30.9961H89.2881L88.041 34.19H84.376L90.5801 19.1201H93.7959L100 34.19ZM90.4844 27.8076H93.8906L92.1875 23.2715L90.4844 27.8076Z" fill="black"/>
<path d="M108.319 31.1201H116V34.3076H104.939V19.1201H108.319V31.1201Z" fill="black"/>
</g>
<defs>
<clipPath id="clip0_1037_30">
<rect width="164" height="48" fill="white"/>
</clipPath>
</defs>
</svg>
