<svg display="block" viewBox="0 0 2000 1100" xmlns="http://www.w3.org/2000/svg"><path d="m0 0h2000v1100c-660 0-1320 0-2000 0 0-363 0-726 0-1100z" fill="#155672"/><path d="m0 0h1118v1100c-376.53 0-753.06 0-1141 0 6.7382308-7.86126927 6.7382308-7.86126927 9.40234375-10.46484375.87108398-.85948242.87108398-.85948242 1.75976563-1.73632813 1.17964453-1.15368976 2.35933175-2.30733589 3.5390625-3.4609375 2.9410335-2.90195 5.76582933-5.83841936 8.44555664-8.98461914 4.13629444-4.75111446 8.56550789-9.17347117 13.04077148-13.60327148.86133545-.85754883 1.7226709-1.71509766 2.61010742-2.59863281 3.65253241-3.63631658 7.31102893-7.2666109 10.96899414-10.89746094 2.68405-2.66588222 5.36503085-5.33482435 8.04589844-8.00390625 1.22529419-1.21284668 1.22529419-1.21284668 2.4753418-2.45019531 3.51877005-3.50382449 6.95985853-7.02040074 10.19848632-10.78613281 4.07139138-4.73160117 8.48623982-9.09260604 12.91992188-13.48242188.88353149-.87974487 1.76706299-1.75948975 2.67736816-2.66589355 3.27610504-3.2619259 6.55673164-6.51928209 9.83770752-9.77630616 3.2269797-3.20392289 6.45005512-6.41174145 9.67242432-9.62030029 1.25810486-1.24565735 1.25810486-1.24565735 2.54162598-2.51647949 4.19893628-4.18154939 8.20578615-8.43984488 12.06884765-12.93164063 3.48778153-3.92449511 7.25317511-7.57842194 10.98327637-11.27062988 1.29200317-1.28632324 1.29200317-1.28632324 2.61010742-2.59863281 3.65253241-3.63631658 7.31102893-7.2666109 10.96899414-10.89746094 2.68405-2.66588222 5.36503085-5.33482435 8.04589844-8.00390625 1.22529419-1.21284668 1.22529419-1.21284668 2.4753418-2.45019531 3.51877005-3.50382449 6.95985853-7.02040074 10.19848632-10.78613281 4.07139138-4.73160117 8.48623982-9.09260604 12.91992188-13.48242188.88353149-.87974487 1.76706299-1.75948975 2.67736816-2.66589355 3.27610504-3.2619259 6.55673164-6.51928209 9.83770752-9.77630616 3.2269797-3.20392289 6.45005512-6.41174145 9.67242432-9.62030029.83873657-.83043823 1.67747314-1.66087646 2.54162598-2.51647949 3.5738836-3.55908492 7.07502255-7.12734584 10.36462402-10.95227051 4.06603423-4.72770784 8.47716017-9.08348095 12.90625-13.46875.88353149-.87974487 1.76706299-1.75948975 2.67736816-2.66589355 3.27610504-3.2619259 6.55673164-6.51928209 9.83770752-9.77630616 3.2269797-3.20392289 6.45005512-6.41174145 9.67242432-9.62030029.83873657-.83043823 1.67747314-1.66087646 2.54162598-2.51647949 4.19893628-4.18154939 8.20578615-8.43984488 12.06884765-12.93164063 3.48778153-3.92449511 7.25317511-7.57842194 10.98327637-11.27062988 1.29200317-1.28632324 1.29200317-1.28632324 2.61010742-2.59863281 3.65253241-3.63631658 7.31102893-7.2666109 10.96899414-10.89746094 2.68405-2.66588222 5.36503085-5.33482435 8.04589844-8.00390625.81686279-.80856445 1.63372559-1.61712891 2.4753418-2.45019531 3.51877005-3.50382449 6.95985853-7.02040074 10.19848632-10.78613281 4.07139138-4.73160117 8.48623982-9.09260604 12.91992188-13.48242188.88353149-.87974487 1.76706299-1.75948975 2.67736816-2.66589355 3.27610504-3.2619259 6.55673164-6.51928209 9.83770752-9.77630616 3.2269797-3.20392289 6.45005512-6.41174145 9.67242432-9.62030029 1.25810486-1.24565735 1.25810486-1.24565735 2.54162598-2.51647949 4.19893628-4.18154939 8.20578615-8.43984488 12.06884765-12.93164063 3.48778153-3.92449511 7.25317511-7.57842194 10.98327637-11.27062988 1.29200317-1.28632324 1.29200317-1.28632324 2.61010742-2.59863281 3.65253241-3.63631658 7.31102893-7.2666109 10.96899414-10.89746094 2.68405-2.66588222 5.36503085-5.33482435 8.04589844-8.00390625.81686279-.80856445 1.63372559-1.61712891 2.4753418-2.45019531 3.51877005-3.50382449 6.95985853-7.02040074 10.19848632-10.78613281 4.07139138-4.73160117 8.48623982-9.09260604 12.91992188-13.48242188.88353149-.87974487 1.76706299-1.75948975 2.67736816-2.66589355 3.27610504-3.2619259 6.55673164-6.51928209 9.83770752-9.77630616 3.2269797-3.20392289 6.45005512-6.41174145 9.67242432-9.62030029 1.25810486-1.24565735 1.25810486-1.24565735 2.54162598-2.51647949 4.19893628-4.18154939 8.20578615-8.43984488 12.06884765-12.93164063 3.48778153-3.92449511 7.25317511-7.57842194 10.98327637-11.27062988 1.29200317-1.28632324 1.29200317-1.28632324 2.61010742-2.59863281 3.65253241-3.63631658 7.31102893-7.2666109 10.96899414-10.89746094 2.68405-2.66588222 5.36503085-5.33482435 8.04589844-8.00390625.81686279-.80856445 1.63372559-1.61712891 2.4753418-2.45019531 3.51731509-3.50237571 6.95709932-7.01730786 10.19409179-10.78173828 4.09422928-4.75816632 8.53624653-9.14252961 12.99462891-13.55712891.88827484-.88448822 1.77654968-1.76897644 2.69174194-2.68026733 2.81647164-2.80433875 5.63606841-5.60551289 8.45669556-8.40567017 3.72441335-3.69745816 7.44516586-7.39855334 11.1640625-11.1015625.84905914-.8407608 1.69811829-1.68152161 2.57290649-2.54776001 4.10699662-4.08999364 8.02994928-8.18742295 11.63803101-12.72567749-1.54127351-3.71268094-3.80843234-5.98115698-6.6875-8.75-2.95163102-2.84605168-5.75403417-5.73177269-8.41333008-8.84863281-4.15314967-4.76598386-8.59555358-9.20587517-13.08666992-13.65136719-.86133545-.85754883-1.7226709-1.71509766-2.61010742-2.59863281-2.73170378-2.71957608-5.46662533-5.43587919-8.20239258-8.15136719-3.60711851-3.58038026-7.21081802-7.16415181-10.8125-10.75-.81686279-.80856445-1.63372559-1.61712891-2.4753418-2.45019531-3.51877005-3.50382449-6.95985853-7.02040074-10.19848632-10.78613281-4.07139138-4.73160117-8.48623982-9.09260604-12.91992188-13.48242188-.88353149-.87974487-1.76706299-1.75948975-2.67736816-2.66589355-2.80303317-2.79090151-5.609181-5.57864877-8.41638184-8.36535645-3.7010055-3.67398738-7.39831822-7.35165602-11.09375-11.03125-1.25810486-1.24565735-1.25810486-1.24565735-2.54162598-2.51647949-4.19893628-4.18154939-8.20578615-8.43984488-12.06884765-12.93164063-3.48778153-3.92449511-7.25317511-7.57842194-10.98327637-11.27062988-.86133545-.85754883-1.7226709-1.71509766-2.61010742-2.59863281-2.73170378-2.71957608-5.46662533-5.43587919-8.20239258-8.15136719-3.60711851-3.58038026-7.21081802-7.16415181-10.8125-10.75-.81686279-.80856445-1.63372559-1.61712891-2.4753418-2.45019531-3.51877005-3.50382449-6.95985853-7.02040074-10.19848632-10.78613281-4.07139138-4.73160117-8.48623982-9.09260604-12.91992188-13.48242188-.88353149-.87974487-1.76706299-1.75948975-2.67736816-2.66589355-2.80303317-2.79090151-5.609181-5.57864877-8.41638184-8.36535645-3.7010055-3.67398738-7.39831822-7.35165602-11.09375-11.03125-1.25810486-1.24565735-1.25810486-1.24565735-2.54162598-2.51647949-4.19893628-4.18154939-8.20578615-8.43984488-12.06884765-12.93164063-3.48778153-3.92449511-7.25317511-7.57842194-10.98327637-11.27062988-.86133545-.85754883-1.7226709-1.71509766-2.61010742-2.59863281-2.73170378-2.71957608-5.46662533-5.43587919-8.20239258-8.15136719-3.60711851-3.58038026-7.21081802-7.16415181-10.8125-10.75-.81686279-.80856445-1.63372559-1.61712891-2.4753418-2.45019531-3.51877005-3.50382449-6.95985853-7.02040074-10.19848632-10.78613281-4.07139138-4.73160117-8.48623982-9.09260604-12.91992188-13.48242188-.88353149-.87974487-1.76706299-1.75948975-2.67736816-2.66589355-2.80303317-2.79090151-5.609181-5.57864877-8.41638184-8.36535645-3.7010055-3.67398738-7.39831822-7.35165602-11.09375-11.03125-.83873657-.83043823-1.67747314-1.66087646-2.54162598-2.51647949-4.19893628-4.18154939-8.20578615-8.43984488-12.06884765-12.93164063-3.48778153-3.92449511-7.25317511-7.57842194-10.98327637-11.27062988-.86133545-.85754883-1.7226709-1.71509766-2.61010742-2.59863281-2.73170378-2.71957608-5.46662533-5.43587919-8.20239258-8.15136719-3.60711851-3.58038026-7.21081802-7.16415181-10.8125-10.75-1.22529419-1.21284668-1.22529419-1.21284668-2.4753418-2.45019531-3.51877005-3.50382449-6.95985853-7.02040074-10.19848632-10.78613281-4.07139138-4.73160117-8.48623982-9.09260604-12.91992188-13.48242188-.88353149-.87974487-1.76706299-1.75948975-2.67736816-2.66589355-2.80303317-2.79090151-5.609181-5.57864877-8.41638184-8.36535645-3.7010055-3.67398738-7.39831822-7.35165602-11.09375-11.03125-.83873657-.83043823-1.67747314-1.66087646-2.54162598-2.51647949-4.19893628-4.18154939-8.20578615-8.43984488-12.06884765-12.93164063-3.48778153-3.92449511-7.25317511-7.57842194-10.98327637-11.27062988-1.29200317-1.28632324-1.29200317-1.28632324-2.61010742-2.59863281-2.73170378-2.71957608-5.46662533-5.43587919-8.20239258-8.15136719-3.60711851-3.58038026-7.21081802-7.16415181-10.8125-10.75-1.22529419-1.21284668-1.22529419-1.21284668-2.4753418-2.45019531-3.51877005-3.50382449-6.95985853-7.02040074-10.19848632-10.78613281-4.07139138-4.73160117-8.48623982-9.09260604-12.91992188-13.48242188-.88353149-.87974487-1.76706299-1.75948975-2.67736816-2.66589355-2.80303317-2.79090151-5.609181-5.57864877-8.41638184-8.36535645-3.7010055-3.67398738-7.39831822-7.35165602-11.09375-11.03125-.83873657-.83043823-1.67747314-1.66087646-2.54162598-2.51647949-4.23305921-4.21553102-8.27974075-8.50779995-12.17410278-13.03689575-2.90598329-3.29250346-6.03117653-6.35891521-9.15536499-9.44271851-.67817276-.67438614-1.35634552-1.34877228-2.05506897-2.04359436-2.1367522-2.12466543-4.27675388-4.2460093-6.41758728-6.36656189-2.84527721-2.81878311-5.68728661-5.64080241-8.52734375-8.46484375-.98419167-.97174416-.98419167-.97174416-1.98826599-1.96311951-1.53453957-1.5260638-3.04365913-3.07762358-4.54689026-4.63453674 0-.33 0-.66 0-1z" fill="#13b4a7" transform="translate(882)"/><path d="m0 0c216 0 216 0 226 10 3.56445312 4.06054687 3.56445312 4.06054687 5.23852539 6.01147461 3.40280424 3.84141934 7.08389985 7.41151209 10.73022461 11.01977539 1.25870911 1.25302917 1.25870911 1.25302917 2.54284668 2.53137207 2.66037232 2.64824879 5.32396345 5.29322199 7.98840332 7.93737793 3.51337273 3.48662601 7.02331971 6.97664926 10.53125 10.46875.79498901.78669067 1.58997803 1.57338135 2.40905762 2.38391113 3.46364712 3.44854696 6.84470285 6.91346773 10.03234863 10.61999512 4.07674283 4.73549817 8.49532004 9.10173169 12.93359375 13.49609375.88353149.87974487 1.76706299 1.75948975 2.67736816 2.66589355 2.80303317 2.79090151 5.609181 5.57864877 8.41638184 8.36535645 3.7010055 3.67398738 7.39831822 7.35165602 11.09375 11.03125.83873657.83043823 1.67747314 1.66087646 2.54162598 2.51647949 4.19893628 4.18154939 8.20578615 8.43984488 12.06884765 12.93164063 3.48778153 3.92449511 7.25317511 7.57842194 10.98327637 11.27062988 1.29200317 1.28632324 1.29200317 1.28632324 2.61010742 2.59863281 2.73170378 2.71957608 5.46662533 5.43587919 8.20239258 8.15136719 3.60711851 3.58038026 7.21081802 7.16415181 10.8125 10.75.81686279.80856445 1.63372559 1.61712891 2.4753418 2.45019531 3.51877005 3.50382449 6.95985853 7.02040074 10.19848632 10.78613281 4.07139138 4.73160117 8.48623982 9.09260604 12.91992188 13.48242188.88353149.87974487 1.76706299 1.75948975 2.67736816 2.66589355 2.80303317 2.79090151 5.609181 5.57864877 8.41638184 8.36535645 3.7010055 3.67398738 7.39831822 7.35165602 11.09375 11.03125.83873657.83043823 1.67747314 1.66087646 2.54162598 2.51647949 4.19893628 4.18154939 8.20578615 8.43984488 12.06884765 12.93164063 3.48778153 3.92449511 7.25317511 7.57842194 10.98327637 11.27062988.86133545.85754883 1.7226709 1.71509766 2.61010742 2.59863281 2.73170378 2.71957608 5.46662533 5.43587919 8.20239258 8.15136719 3.60711851 3.58038026 7.21081802 7.16415181 10.8125 10.75.81686279.80856445 1.63372559 1.61712891 2.4753418 2.45019531 3.51877005 3.50382449 6.95985853 7.02040074 10.19848632 10.78613281 4.07139138 4.73160117 8.48623982 9.09260604 12.91992188 13.48242188.88353149.87974487 1.76706299 1.75948975 2.67736816 2.66589355 2.80303317 2.79090151 5.609181 5.57864877 8.41638184 8.36535645 3.7010055 3.67398738 7.39831822 7.35165602 11.09375 11.03125 1.25810486 1.24565735 1.25810486 1.24565735 2.54162598 2.51647949 4.19893628 4.18154939 8.20578615 8.43984488 12.06884765 12.93164063 3.48778153 3.92449511 7.25317511 7.57842194 10.98327637 11.27062988.86133545.85754883 1.7226709 1.71509766 2.61010742 2.59863281 2.73170378 2.71957608 5.46662533 5.43587919 8.20239258 8.15136719 3.60711851 3.58038026 7.21081802 7.16415181 10.8125 10.75.81686279.80856445 1.63372559 1.61712891 2.4753418 2.45019531 3.51877005 3.50382449 6.95985853 7.02040074 10.19848632 10.78613281 4.07139138 4.73160117 8.48623982 9.09260604 12.91992188 13.48242188.88353149.87974487 1.76706299 1.75948975 2.67736816 2.66589355 2.80303317 2.79090151 5.609181 5.57864877 8.41638184 8.36535645 3.7010055 3.67398738 7.39831822 7.35165602 11.09375 11.03125.83873657.83043823 1.67747314 1.66087646 2.54162598 2.51647949 4.19893628 4.18154939 8.20578615 8.43984488 12.06884765 12.93164063 3.48778153 3.92449511 7.25317511 7.57842194 10.98327637 11.27062988.86133545.85754883 1.7226709 1.71509766 2.61010742 2.59863281 2.73170378 2.71957608 5.46662533 5.43587919 8.20239258 8.15136719 3.60711851 3.58038026 7.21081802 7.16415181 10.8125 10.75.81686279.80856445 1.63372559 1.61712891 2.4753418 2.45019531 3.51877005 3.50382449 6.95985853 7.02040074 10.19848632 10.78613281 4.07139138 4.73160117 8.48623982 9.09260604 12.91992188 13.48242188.88353149.87974487 1.76706299 1.75948975 2.67736816 2.66589355 2.80303317 2.79090151 5.609181 5.57864877 8.41638184 8.36535645 3.7010055 3.67398738 7.39831822 7.35165602 11.09375 11.03125.83873657.83043823 1.67747314 1.66087646 2.54162598 2.51647949 4.21509336 4.19763957 8.24248581 8.47143484 12.12039184 12.98095703 3.20487773 3.62212024 6.65330398 7.00231614 10.08407593 10.40881348.76695694.76554199 1.53391388 1.53108398 2.32411194 2.31982422 2.42215312 2.41660775 4.84778043 4.82969304 7.27354431 7.24267578 1.65452893 1.64950686 3.30882802 3.29924429 4.96289062 4.94921875 4.0305514 4.01959496 8.0639521 8.03631294 12.09960938 12.05078125-1.37213013 3.0818665-2.93378899 5.17492795-5.32885742 7.54003906-.67798142.67460266-1.35596283 1.34920532-2.05448914 2.04425049-.73330032.7198407-1.46660064 1.4396814-2.22212219 2.18133545-1.13614494 1.12834259-1.13614494 1.12834259-2.29524231 2.27947998-2.424232 2.40642727-4.85501877 4.8060874-7.28678894 7.20489502-2.41309092 2.38533204-4.82466121 4.77215052-7.23323059 7.16204834-1.49757505 1.48547541-2.99781386 2.96827204-4.50119019 4.44787598-3.29743341 3.26639126-6.49305378 6.56137113-9.52070617 10.08050537-4.02190139 4.66691557-8.36826531 8.97742362-12.74487305 13.30957031-.86133545.85754883-1.7226709 1.71509766-2.61010742 2.59863281-3.65253241 3.63631658-7.31102893 7.2666109-10.96899414 10.89746094-2.68405 2.66588222-5.36503085 5.33482435-8.04589844 8.00390625-1.22529419 1.21284668-1.22529419 1.21284668-2.4753418 2.45019531-3.51877005 3.50382449-6.95985853 7.02040074-10.19848632 10.78613281-4.07139138 4.73160117-8.48623982 9.09260604-12.91992188 13.48242188-.88353149.87974487-1.76706299 1.75948975-2.67736816 2.66589355-3.27610504 3.2619259-6.55673164 6.51928209-9.83770752 9.77630616-3.2269797 3.20392289-6.45005512 6.41174145-9.67242432 9.62030029-.83873657.83043823-1.67747314 1.66087646-2.54162598 2.51647949-4.19893628 4.18154939-8.20578615 8.43984488-12.06884765 12.93164063-3.48778153 3.92449511-7.25317511 7.57842194-10.98327637 11.27062988-.86133545.85754883-1.7226709 1.71509766-2.61010742 2.59863281-3.65253241 3.63631658-7.31102893 7.2666109-10.96899414 10.89746094-2.68405 2.66588222-5.36503085 5.33482435-8.04589844 8.00390625-1.22529419 1.21284668-1.22529419 1.21284668-2.4753418 2.45019531-3.51877005 3.50382449-6.95985853 7.02040074-10.19848632 10.78613281-4.07139138 4.73160117-8.48623982 9.09260604-12.91992188 13.48242188-.88353149.87974487-1.76706299 1.75948975-2.67736816 2.66589355-3.27610504 3.2619259-6.55673164 6.51928209-9.83770752 9.77630616-3.2269797 3.20392289-6.45005512 6.41174145-9.67242432 9.62030029-.83873657.83043823-1.67747314 1.66087646-2.54162598 2.51647949-4.19893628 4.18154939-8.20578615 8.43984488-12.06884765 12.93164063-3.48778153 3.92449511-7.25317511 7.57842194-10.98327637 11.27062988-1.29200317 1.28632324-1.29200317 1.28632324-2.61010742 2.59863281-3.65253241 3.63631658-7.31102893 7.2666109-10.96899414 10.89746094-2.68405 2.66588222-5.36503085 5.33482435-8.04589844 8.00390625-.81686279.80856445-1.63372559 1.61712891-2.4753418 2.45019531-3.51877005 3.50382449-6.95985853 7.02040074-10.19848632 10.78613281-4.07139138 4.73160117-8.48623982 9.09260604-12.91992188 13.48242188-.88353149.87974487-1.76706299 1.75948975-2.67736816 2.66589355-3.27610504 3.2619259-6.55673164 6.51928209-9.83770752 9.77630616-3.2269797 3.20392289-6.45005512 6.41174145-9.67242432 9.62030029-1.25810486 1.24565735-1.25810486 1.24565735-2.54162598 2.51647949-4.19893628 4.18154939-8.20578615 8.43984488-12.06884765 12.93164063-3.48778153 3.92449511-7.25317511 7.57842194-10.98327637 11.27062988-1.29200317 1.28632324-1.29200317 1.28632324-2.61010742 2.59863281-3.65253241 3.63631658-7.31102893 7.2666109-10.96899414 10.89746094-2.68405 2.66588222-5.36503085 5.33482435-8.04589844 8.00390625-.81686279.80856445-1.63372559 1.61712891-2.4753418 2.45019531-3.51877005 3.50382449-6.95985853 7.02040074-10.19848632 10.78613281-4.07139138 4.73160117-8.48623982 9.09260604-12.91992188 13.48242188-.88353149.87974487-1.76706299 1.75948975-2.67736816 2.66589355-3.27610504 3.2619259-6.55673164 6.51928209-9.83770752 9.77630616-3.2269797 3.20392289-6.45005512 6.41174145-9.67242432 9.62030029-1.25810486 1.24565735-1.25810486 1.24565735-2.54162598 2.51647949-4.19893628 4.18154939-8.20578615 8.43984488-12.06884765 12.93164063-3.48778153 3.92449511-7.25317511 7.57842194-10.98327637 11.27062988-1.29200317 1.28632324-1.29200317 1.28632324-2.61010742 2.59863281-3.65253241 3.63631658-7.31102893 7.2666109-10.96899414 10.89746094-2.68405 2.66588222-5.36503085 5.33482435-8.04589844 8.00390625-.81686279.80856445-1.63372559 1.61712891-2.4753418 2.45019531-3.51877005 3.50382449-6.95985853 7.02040074-10.19848632 10.78613281-4.07139138 4.73160117-8.48623982 9.09260604-12.91992188 13.48242188-.88353149.87974487-1.76706299 1.75948975-2.67736816 2.66589355-3.27610504 3.2619259-6.55673164 6.51928209-9.83770752 9.77630616-3.2269797 3.20392289-6.45005512 6.41174145-9.67242432 9.62030029-.83873657.83043823-1.67747314 1.66087646-2.54162598 2.51647949-1.1965924 1.19163758-1.1965924 1.19163758-2.4173584 2.40734863-.69170288.68646607-1.38340576 1.37293213-2.09606933 2.0802002-3.22899017 3.38489905-6.27069519 6.94414899-9.35119629 10.46472168-31 31-31 31-223 31 0-363 0-726 0-1100z" fill="#13b4a7"/><g fill="#155672"><path d="m0 0v487c-157.41 0-314.82 0-477 0 6.74828251-7.87299627 6.74828251-7.87299627 9.32397461-10.42163086.57757553-.57427231 1.15515106-1.14854462 1.75022888-1.74021912.60328629-.59498794 1.20657257-1.18997589 1.82814026-1.80299377.64078995-.63700333 1.2815799-1.27400665 1.94178772-1.93031311 2.70951313-2.69335059 5.42498802-5.38065999 8.13999939-8.06846619 1.99569305-1.97744781 3.98825236-3.95801667 5.98071289-5.9387207.60126205-.59296371 1.20252411-1.18592743 1.82200623-1.79685974 2.97628096-2.95935165 5.8281149-5.96967325 8.56495666-9.15260315 4.12380766-4.77010036 8.57560629-9.18241927 13.05444336-13.61694336.88353149-.87974487 1.76706299-1.75948975 2.67736816-2.66589355 3.27610504-3.2619259 6.55673164-6.51928209 9.83770752-9.77630616 3.2269797-3.20392289 6.45005512-6.41174145 9.67242432-9.62030029.83873657-.83043823 1.67747314-1.66087646 2.54162598-2.51647949 4.19893628-4.18154939 8.20578615-8.43984488 12.06884765-12.93164063 3.48778153-3.92449511 7.25317511-7.57842194 10.98327637-11.27062988.86133545-.85754883 1.7226709-1.71509766 2.61010742-2.59863281 3.65253241-3.63631658 7.31102893-7.2666109 10.96899414-10.89746094 2.68405-2.66588222 5.36503085-5.33482435 8.04589844-8.00390625.81686279-.80856445 1.63372559-1.61712891 2.4753418-2.45019531 3.51877005-3.50382449 6.95985853-7.02040074 10.19848632-10.78613281 4.07139138-4.73160117 8.48623982-9.09260604 12.91992188-13.48242188.88353149-.87974487 1.76706299-1.75948975 2.67736816-2.66589355 3.27610504-3.2619259 6.55673164-6.51928209 9.83770752-9.77630616 3.2269797-3.20392289 6.45005512-6.41174145 9.67242432-9.62030029.83873657-.83043823 1.67747314-1.66087646 2.54162598-2.51647949 4.19893628-4.18154939 8.20578615-8.43984488 12.06884765-12.93164063 3.48778153-3.92449511 7.25317511-7.57842194 10.98327637-11.27062988 1.29200317-1.28632324 1.29200317-1.28632324 2.61010742-2.59863281 3.65253241-3.63631658 7.31102893-7.2666109 10.96899414-10.89746094 2.68405-2.66588222 5.36503085-5.33482435 8.04589844-8.00390625.81686279-.80856445 1.63372559-1.61712891 2.4753418-2.45019531 3.51877005-3.50382449 6.95985853-7.02040074 10.19848632-10.78613281 4.07139138-4.73160117 8.48623982-9.09260604 12.91992188-13.48242188.88353149-.87974487 1.76706299-1.75948975 2.67736816-2.66589355 3.27610504-3.2619259 6.55673164-6.51928209 9.83770752-9.77630616 3.2269797-3.20392289 6.45005512-6.41174145 9.67242432-9.62030029.83873657-.83043823 1.67747314-1.66087646 2.54162598-2.51647949 4.19893628-4.18154939 8.20578615-8.43984488 12.06884765-12.93164063 3.48778153-3.92449511 7.25317511-7.57842194 10.98327637-11.27062988 1.29200317-1.28632324 1.29200317-1.28632324 2.61010742-2.59863281 3.65253241-3.63631658 7.31102893-7.2666109 10.96899414-10.89746094 2.68405-2.66588222 5.36503085-5.33482435 8.04589844-8.00390625.81686279-.80856445 1.63372559-1.61712891 2.4753418-2.45019531 3.51877005-3.50382449 6.95985853-7.02040074 10.19848632-10.78613281 4.07139138-4.73160117 8.48623982-9.09260604 12.91992188-13.48242188.88353149-.87974487 1.76706299-1.75948975 2.67736816-2.66589355 3.27610504-3.2619259 6.55673164-6.51928209 9.83770752-9.77630616 3.2269797-3.20392289 6.45005512-6.41174145 9.67242432-9.62030029.83873657-.83043823 1.67747314-1.66087646 2.54162598-2.51647949 4.19893628-4.18154939 8.20578615-8.43984488 12.06884765-12.93164063 3.48778153-3.92449511 7.25317511-7.57842194 10.98327637-11.27062988 1.29200317-1.28632324 1.29200317-1.28632324 2.61010742-2.59863281 3.65253241-3.63631658 7.31102893-7.2666109 10.96899414-10.89746094 2.68405-2.66588222 5.36503085-5.33482435 8.04589844-8.00390625.81686279-.80856445 1.63372559-1.61712891 2.4753418-2.45019531 4.15863206-4.14096876 8.12213759-8.36401993 11.94897461-12.81176758 3.26903726-3.68592779 6.79271137-7.1187455 10.29443359-10.58178711.79474731-.79096069 1.58949463-1.58192139 2.4083252-2.39685059 3.36578028-3.34958514 6.73753528-6.69313211 10.10876464-10.03723144 2.47556243-2.45737736 4.94804099-4.91782855 7.42041016-7.37841797.75124146-.74294312 1.50248291-1.48588623 2.27648926-2.25134277 4.09370372-4.07486097 8.00948757-8.23901879 11.76785278-12.62597657 2.02486168-2.33742422 4.17194549-4.53404592 6.36190796-6.71643066.76054688-.763125 1.52109375-1.52625 2.3046875-2.3125 1.8203125-1.6875 1.8203125-1.6875 2.8203125-1.6875z" transform="translate(2000 613)"/><path d="m0 0h453v463c-4.18756642-3.58934265-8.1387639-7.00106246-12-10.875-.78375-.78117187-1.5675-1.56234375-2.375-2.3671875-1.97931347-2.07945731-3.85145148-4.17350953-5.71484375-6.35205078-4.15911103-4.7648587-8.60432985-9.20808209-13.09765625-13.65576172-.86133545-.85754883-1.7226709-1.71509766-2.61010742-2.59863281-2.73170378-2.71957608-5.46662533-5.43587919-8.20239258-8.15136719-3.60711851-3.58038026-7.21081802-7.16415181-10.8125-10.75-.81686279-.80856445-1.63372559-1.61712891-2.4753418-2.45019531-3.51877005-3.50382449-6.95985853-7.02040074-10.19848632-10.78613281-4.07139138-4.73160117-8.48623982-9.09260604-12.91992188-13.48242188-.88353149-.87974487-1.76706299-1.75948975-2.67736816-2.66589355-2.80303317-2.79090151-5.609181-5.57864877-8.41638184-8.36535645-3.7010055-3.67398738-7.39831822-7.35165602-11.09375-11.03125-1.25810486-1.24565735-1.25810486-1.24565735-2.54162598-2.51647949-4.19893628-4.18154939-8.20578615-8.43984488-12.06884765-12.93164063-3.48778153-3.92449511-7.25317511-7.57842194-10.98327637-11.27062988-.86133545-.85754883-1.7226709-1.71509766-2.61010742-2.59863281-2.73170378-2.71957608-5.46662533-5.43587919-8.20239258-8.15136719-3.60711851-3.58038026-7.21081802-7.16415181-10.8125-10.75-.81686279-.80856445-1.63372559-1.61712891-2.4753418-2.45019531-3.51877005-3.50382449-6.95985853-7.02040074-10.19848632-10.78613281-4.07139138-4.73160117-8.48623982-9.09260604-12.91992188-13.48242188-.88353149-.87974487-1.76706299-1.75948975-2.67736816-2.66589355-2.80303317-2.79090151-5.609181-5.57864877-8.41638184-8.36535645-3.7010055-3.67398738-7.39831822-7.35165602-11.09375-11.03125-.83873657-.83043823-1.67747314-1.66087646-2.54162598-2.51647949-4.19893628-4.18154939-8.20578615-8.43984488-12.06884765-12.93164063-3.48778153-3.92449511-7.25317511-7.57842194-10.98327637-11.27062988-.86133545-.85754883-1.7226709-1.71509766-2.61010742-2.59863281-2.73170378-2.71957608-5.46662533-5.43587919-8.20239258-8.15136719-3.60711851-3.58038026-7.21081802-7.16415181-10.8125-10.75-1.22529419-1.21284668-1.22529419-1.21284668-2.4753418-2.45019531-3.51877005-3.50382449-6.95985853-7.02040074-10.19848632-10.78613281-4.07139138-4.73160117-8.48623982-9.09260604-12.91992188-13.48242188-.88353149-.87974487-1.76706299-1.75948975-2.67736816-2.66589355-2.80303317-2.79090151-5.609181-5.57864877-8.41638184-8.36535645-3.7010055-3.67398738-7.39831822-7.35165602-11.09375-11.03125-.83873657-.83043823-1.67747314-1.66087646-2.54162598-2.51647949-4.19893628-4.18154939-8.20578615-8.43984488-12.06884765-12.93164063-3.48778153-3.92449511-7.25317511-7.57842194-10.98327637-11.27062988-.86133545-.85754883-1.7226709-1.71509766-2.61010742-2.59863281-2.73170378-2.71957608-5.46662533-5.43587919-8.20239258-8.15136719-3.60711851-3.58038026-7.21081802-7.16415181-10.8125-10.75-1.22529419-1.21284668-1.22529419-1.21284668-2.4753418-2.45019531-3.51877005-3.50382449-6.95985853-7.02040074-10.19848632-10.78613281-4.07139138-4.73160117-8.48623982-9.09260604-12.91992188-13.48242188-.88353149-.87974487-1.76706299-1.75948975-2.67736816-2.66589355-2.80303317-2.79090151-5.609181-5.57864877-8.41638184-8.36535645-3.7010055-3.67398738-7.39831822-7.35165602-11.09375-11.03125-.83873657-.83043823-1.67747314-1.66087646-2.54162598-2.51647949-4.20328878-4.18588386-8.21520827-8.44852415-12.08227539-12.94506836-3.41370181-3.8443599-7.09801117-7.42349674-10.75109863-11.03845215-.8391394-.83535278-1.67827881-1.67070557-2.54284668-2.53137207-2.66037232-2.64824879-5.32396345-5.29322199-7.98840332-7.93737793-3.51337273-3.48662601-7.02331971-6.97664926-10.53125-10.46875-.79498901-.78669067-1.58997803-1.57338135-2.40905762-2.38391113-5.93663165-5.91075023-11.52996007-11.94102912-16.55969238-18.64733887z" transform="translate(1547)"/></g></svg>