<?xml version="1.0" encoding="UTF-8"?>
<!-- Generator: visioncortex VTracer -->
<svg id="svg" version="1.1" xmlns="http://www.w3.org/2000/svg" style="display: block;" viewBox="0 0 2000 1336"><path d="M0 0 C660 0 1320 0 2000 0 C2000 440.88 2000 881.76 2000 1336 C1340 1336 680 1336 0 1336 C0 895.12 0 454.24 0 0 Z " transform="translate(0,0)" style="fill: #F89D00;"/><path d="M0 0 C660 0 1320 0 2000 0 C2000 324.06 2000 648.12 2000 982 C1992.12700001 975.25171429 1992.12700001 975.25171429 1988.93579102 972.03344727 C1988.22137344 971.31572647 1987.50695587 970.59800568 1986.77088928 969.85853577 C1986.02278488 969.10213303 1985.27468048 968.34573029 1984.50390625 967.56640625 C1983.71153061 966.77024399 1982.91915497 965.97408173 1982.10276794 965.15379333 C1978.74038364 961.77518792 1975.38399988 958.39064465 1972.02709961 955.0065918 C1969.56313269 952.52443532 1967.09608933 950.04536534 1964.62890625 947.56640625 C1963.88282608 946.81202774 1963.13674591 946.05764923 1962.36805725 945.28041077 C1959.02085193 941.91779709 1955.65050465 938.64668093 1952.05249023 935.55249023 C1947.30981484 931.4659192 1942.93397241 927.0404676 1938.53125 922.59375 C1937.65150513 921.71021851 1936.77176025 920.82668701 1935.86535645 919.91638184 C1932.60343055 916.6402768 1929.34607436 913.3596502 1926.08905029 910.07867432 C1922.8851274 906.85169462 1919.67730884 903.6286192 1916.46875 900.40625 C1915.63831177 899.56751343 1914.80787354 898.72877686 1913.95227051 897.86462402 C1909.77072112 893.66568774 1905.51242563 889.65883787 1901.02062988 885.79577637 C1897.09613477 882.30799484 1893.44220794 878.54260126 1889.75 874.8125 C1888.89245117 873.95116455 1888.03490234 873.0898291 1887.15136719 872.20239258 C1883.51505061 868.54986017 1879.88475629 864.89136365 1876.25390625 861.23339844 C1873.58802403 858.54934844 1870.9190819 855.86836759 1868.25 853.1875 C1867.03715332 851.96220581 1867.03715332 851.96220581 1865.79980469 850.7121582 C1862.2959802 847.19338815 1858.77940395 843.75229967 1855.01367188 840.51367188 C1850.28207071 836.4422805 1845.92106584 832.02743206 1841.53125 827.59375 C1840.65150513 826.71021851 1839.77176025 825.82668701 1838.86535645 824.91638184 C1835.60343055 821.6402768 1832.34607436 818.3596502 1829.08905029 815.07867432 C1825.8851274 811.85169462 1822.67730884 808.6286192 1819.46875 805.40625 C1818.63831177 804.56751343 1817.80787354 803.72877686 1816.95227051 802.86462402 C1812.77072112 798.66568774 1808.51242563 794.65883787 1804.02062988 790.79577637 C1800.09613477 787.30799484 1796.44220794 783.54260126 1792.75 779.8125 C1791.89245117 778.95116455 1791.03490234 778.0898291 1790.15136719 777.20239258 C1786.51505061 773.54986017 1782.88475629 769.89136365 1779.25390625 766.23339844 C1776.58802403 763.54934844 1773.9190819 760.86836759 1771.25 758.1875 C1770.03715332 756.96220581 1770.03715332 756.96220581 1768.79980469 755.7121582 C1765.2959802 752.19338815 1761.77940395 748.75229967 1758.01367188 745.51367188 C1753.28207071 741.4422805 1748.92106584 737.02743206 1744.53125 732.59375 C1743.65150513 731.71021851 1742.77176025 730.82668701 1741.86535645 729.91638184 C1738.60343055 726.6402768 1735.34607436 723.3596502 1732.08905029 720.07867432 C1728.8851274 716.85169462 1725.67730884 713.6286192 1722.46875 710.40625 C1721.63831177 709.56751343 1720.80787354 708.72877686 1719.95227051 707.86462402 C1715.77072112 703.66568774 1711.51242563 699.65883787 1707.02062988 695.79577637 C1703.09613477 692.30799484 1699.44220794 688.54260126 1695.75 684.8125 C1694.89245117 683.95116455 1694.03490234 683.0898291 1693.15136719 682.20239258 C1689.51505061 678.54986017 1685.88475629 674.89136365 1682.25390625 671.23339844 C1679.58802403 668.54934844 1676.9190819 665.86836759 1674.25 663.1875 C1673.03715332 661.96220581 1673.03715332 661.96220581 1671.79980469 660.7121582 C1668.2959802 657.19338815 1664.77940395 653.75229967 1661.01367188 650.51367188 C1656.28207071 646.4422805 1651.92106584 642.02743206 1647.53125 637.59375 C1646.65150513 636.71021851 1645.77176025 635.82668701 1644.86535645 634.91638184 C1641.60343055 631.6402768 1638.34607436 628.3596502 1635.08905029 625.07867432 C1631.8851274 621.85169462 1628.67730884 618.6286192 1625.46875 615.40625 C1624.63831177 614.56751343 1623.80787354 613.72877686 1622.95227051 612.86462402 C1618.77072112 608.66568774 1614.51242563 604.65883787 1610.02062988 600.79577637 C1606.09613477 597.30799484 1602.44220794 593.54260126 1598.75 589.8125 C1597.89245117 588.95116455 1597.03490234 588.0898291 1596.15136719 587.20239258 C1592.51505061 583.54986017 1588.88475629 579.89136365 1585.25390625 576.23339844 C1582.58802403 573.54934844 1579.9190819 570.86836759 1577.25 568.1875 C1576.03715332 566.96220581 1576.03715332 566.96220581 1574.79980469 565.7121582 C1571.2959802 562.19338815 1567.77940395 558.75229967 1564.01367188 555.51367188 C1559.28207071 551.4422805 1554.92106584 547.02743206 1550.53125 542.59375 C1549.65150513 541.71021851 1548.77176025 540.82668701 1547.86535645 539.91638184 C1544.60343055 536.6402768 1541.34607436 533.3596502 1538.08905029 530.07867432 C1534.8851274 526.85169462 1531.67730884 523.6286192 1528.46875 520.40625 C1527.63831177 519.56751343 1526.80787354 518.72877686 1525.95227051 517.86462402 C1521.77072112 513.66568774 1517.51242563 509.65883787 1513.02062988 505.79577637 C1509.09613477 502.30799484 1505.44220794 498.54260126 1501.75 494.8125 C1500.89245117 493.95116455 1500.03490234 493.0898291 1499.15136719 492.20239258 C1495.51505061 488.54986017 1491.88475629 484.89136365 1488.25390625 481.23339844 C1485.58802403 478.54934844 1482.9190819 475.86836759 1480.25 473.1875 C1479.44143555 472.37063721 1478.63287109 471.55377441 1477.79980469 470.7121582 C1474.2959802 467.19338815 1470.77940395 463.75229967 1467.01367188 460.51367188 C1462.28207071 456.4422805 1457.92106584 452.02743206 1453.53125 447.59375 C1452.65150513 446.71021851 1451.77176025 445.82668701 1450.86535645 444.91638184 C1447.60343055 441.6402768 1444.34607436 438.3596502 1441.08905029 435.07867432 C1437.8851274 431.85169462 1434.67730884 428.6286192 1431.46875 425.40625 C1430.63831177 424.56751343 1429.80787354 423.72877686 1428.95227051 422.86462402 C1424.77072112 418.66568774 1420.51242563 414.65883787 1416.02062988 410.79577637 C1412.09613477 407.30799484 1408.44220794 403.54260126 1404.75 399.8125 C1403.89245117 398.95116455 1403.03490234 398.0898291 1402.15136719 397.20239258 C1398.51505061 393.54986017 1394.88475629 389.89136365 1391.25390625 386.23339844 C1388.58802403 383.54934844 1385.9190819 380.86836759 1383.25 378.1875 C1382.44143555 377.37063721 1381.63287109 376.55377441 1380.79980469 375.7121582 C1377.2959802 372.19338815 1373.77940395 368.75229967 1370.01367188 365.51367188 C1365.28207071 361.4422805 1360.92106584 357.02743206 1356.53125 352.59375 C1355.65150513 351.71021851 1354.77176025 350.82668701 1353.86535645 349.91638184 C1350.60343055 346.6402768 1347.34607436 343.3596502 1344.08905029 340.07867432 C1340.8851274 336.85169462 1337.67730884 333.6286192 1334.46875 330.40625 C1333.63831177 329.56751343 1332.80787354 328.72877686 1331.95227051 327.86462402 C1327.77072112 323.66568774 1323.51242563 319.65883787 1319.02062988 315.79577637 C1315.09613477 312.30799484 1311.44220794 308.54260126 1307.75 304.8125 C1306.89245117 303.95116455 1306.03490234 303.0898291 1305.15136719 302.20239258 C1301.51505061 298.54986017 1297.88475629 294.89136365 1294.25390625 291.23339844 C1291.58802403 288.54934844 1288.9190819 285.86836759 1286.25 283.1875 C1285.44143555 282.37063721 1284.63287109 281.55377441 1283.79980469 280.7121582 C1280.36811328 277.26582891 1276.93373489 273.88913279 1273.23242188 270.73242188 C1267.82815892 266.08073575 1262.86336421 260.97402002 1257.84251404 255.91767883 C1255.99384125 254.05607968 1254.14192039 252.19776496 1252.28918457 250.34020996 C1247.69119592 245.72895087 1243.09870561 241.11222852 1238.50604248 236.4956665 C1234.61364425 232.58344018 1230.71913721 228.6733357 1226.82188416 224.76594543 C1225.00974195 222.94738709 1223.20067157 221.12581204 1221.39172363 219.30407715 C1216.36528329 214.25553184 1211.32161077 209.29867915 1205.89758301 204.67272949 C1202.00335402 201.23994597 1198.40039573 197.50035994 1194.75 193.8125 C1193.89245117 192.95116455 1193.03490234 192.0898291 1192.15136719 191.20239258 C1188.51505061 187.54986017 1184.88475629 183.89136365 1181.25390625 180.23339844 C1178.58802403 177.54934844 1175.9190819 174.86836759 1173.25 172.1875 C1172.03715332 170.96220581 1172.03715332 170.96220581 1170.79980469 169.7121582 C1167.2959802 166.19338815 1163.77940395 162.75229967 1160.01367188 159.51367188 C1155.28207071 155.4422805 1150.92106584 151.02743206 1146.53125 146.59375 C1145.65150513 145.71021851 1144.77176025 144.82668701 1143.86535645 143.91638184 C1140.60343055 140.6402768 1137.34607436 137.3596502 1134.08905029 134.07867432 C1130.8851274 130.85169462 1127.67730884 127.6286192 1124.46875 124.40625 C1123.63831177 123.56751343 1122.80787354 122.72877686 1121.95227051 121.86462402 C1117.77072112 117.66568774 1113.51242563 113.65883787 1109.02062988 109.79577637 C1105.09613477 106.30799484 1101.44220794 102.54260126 1097.75 98.8125 C1096.89245117 97.95116455 1096.03490234 97.0898291 1095.15136719 96.20239258 C1091.51505061 92.54986017 1087.88475629 88.89136365 1084.25390625 85.23339844 C1081.58802403 82.54934844 1078.9190819 79.86836759 1076.25 77.1875 C1075.03715332 75.96220581 1075.03715332 75.96220581 1073.79980469 74.7121582 C1070.2959802 71.19338815 1066.77940395 67.75229967 1063.01367188 64.51367188 C1058.28207071 60.4422805 1053.92106584 56.02743206 1049.53125 51.59375 C1048.65150513 50.71021851 1047.77176025 49.82668701 1046.86535645 48.91638184 C1043.60343055 45.6402768 1040.34607436 42.3596502 1037.08905029 39.07867432 C1033.8851274 35.85169462 1030.67730884 32.6286192 1027.46875 29.40625 C1026.63831177 28.56751343 1025.80787354 27.72877686 1024.95227051 26.86462402 C1020.67042618 22.56497577 1016.32294297 18.42134784 1011.70703125 14.48094177 C1009.17986808 12.28849128 1006.84939553 9.94452602 1004.5 7.5625 C1003.21609375 6.26505859 1003.21609375 6.26505859 1001.90625 4.94140625 C1001.2771875 4.30074219 1000.648125 3.66007813 1000 3 C992.80152806 8.93454271 986.3703374 15.57530375 979.82617188 22.21289062 C978.93607422 23.11072266 978.04597656 24.00855469 977.12890625 24.93359375 C976.33556885 25.73853271 975.54223145 26.54347168 974.72485352 27.37280273 C972.61645916 29.40563417 970.48923226 31.32196798 968.27124023 33.22875977 C963.46563568 37.40007531 959.00662744 41.88615135 954.53125 46.40625 C953.21163269 47.73154724 953.21163269 47.73154724 951.86535645 49.08361816 C949.07445494 51.88665133 946.28670768 54.69279916 943.5 57.5 C939.82601262 61.2010055 936.14834398 64.89831822 932.46875 68.59375 C931.22309265 69.85185486 931.22309265 69.85185486 929.95227051 71.13537598 C925.77072112 75.33431226 921.51242563 79.34116213 917.02062988 83.20422363 C913.09613477 86.69200516 909.44220794 90.45739874 905.75 94.1875 C904.89245117 95.04883545 904.03490234 95.9101709 903.15136719 96.79760742 C900.43179111 99.5293112 897.715488 102.26423275 895 105 C891.41961974 108.60711851 887.83584819 112.21081802 884.25 115.8125 C883.44143555 116.62936279 882.63287109 117.44622559 881.79980469 118.2878418 C878.2959802 121.80661185 874.77940395 125.24770033 871.01367188 128.48632812 C866.28207071 132.5577195 861.92106584 136.97256794 857.53125 141.40625 C856.65150513 142.28978149 855.77176025 143.17331299 854.86535645 144.08361816 C852.07445494 146.88665133 849.28670768 149.69279916 846.5 152.5 C842.82601262 156.2010055 839.14834398 159.89831822 835.46875 163.59375 C834.63831177 164.43248657 833.80787354 165.27122314 832.95227051 166.13537598 C828.77072112 170.33431226 824.51242563 174.34116213 820.02062988 178.20422363 C816.09613477 181.69200516 812.44220794 185.45739874 808.75 189.1875 C807.89245117 190.04883545 807.03490234 190.9101709 806.15136719 191.79760742 C803.43179111 194.5293112 800.715488 197.26423275 798 200 C794.41961974 203.60711851 790.83584819 207.21081802 787.25 210.8125 C786.44143555 211.62936279 785.63287109 212.44622559 784.79980469 213.2878418 C781.30048756 216.80208527 777.78902723 220.23911744 774.02734375 223.47265625 C769.21314216 227.6152058 764.77950604 232.11450198 760.3125 236.625 C758.95958862 237.98359131 758.95958862 237.98359131 757.5793457 239.36962891 C754.71711436 242.24399569 751.85804198 245.1214694 749 248 C745.23225667 251.79475338 741.46084455 255.58581381 737.6875 259.375 C736.83518799 260.23561035 735.98287598 261.0962207 735.10473633 261.98291016 C730.8739697 266.23083589 726.57170392 270.29124059 722.02636719 274.19848633 C718.02369346 277.75700794 714.29810183 281.60175706 710.53125 285.40625 C709.65150513 286.28978149 708.77176025 287.17331299 707.86535645 288.08361816 C705.07445494 290.88665133 702.28670768 293.69279916 699.5 296.5 C695.82601262 300.2010055 692.14834398 303.89831822 688.46875 307.59375 C687.22309265 308.85185486 687.22309265 308.85185486 685.95227051 310.13537598 C681.77072112 314.33431226 677.51242563 318.34116213 673.02062988 322.20422363 C669.09613477 325.69200516 665.44220794 329.45739874 661.75 333.1875 C660.89245117 334.04883545 660.03490234 334.9101709 659.15136719 335.79760742 C656.43179111 338.5293112 653.715488 341.26423275 651 344 C647.41961974 347.60711851 643.83584819 351.21081802 640.25 354.8125 C639.44143555 355.62936279 638.63287109 356.44622559 637.79980469 357.2878418 C634.2959802 360.80661185 630.77940395 364.24770033 627.01367188 367.48632812 C622.28207071 371.5577195 617.92106584 375.97256794 613.53125 380.40625 C612.65150513 381.28978149 611.77176025 382.17331299 610.86535645 383.08361816 C608.07445494 385.88665133 605.28670768 388.69279916 602.5 391.5 C598.82601262 395.2010055 595.14834398 398.89831822 591.46875 402.59375 C590.22309265 403.85185486 590.22309265 403.85185486 588.95227051 405.13537598 C584.77072112 409.33431226 580.51242563 413.34116213 576.02062988 417.20422363 C572.09613477 420.69200516 568.44220794 424.45739874 564.75 428.1875 C563.89245117 429.04883545 563.03490234 429.9101709 562.15136719 430.79760742 C559.43179111 433.5293112 556.715488 436.26423275 554 439 C550.41961974 442.60711851 546.83584819 446.21081802 543.25 449.8125 C542.44143555 450.62936279 541.63287109 451.44622559 540.79980469 452.2878418 C536.67183907 456.43341525 532.46183107 460.38171569 528.02832031 464.1965332 C524.10189436 467.68768733 520.44481222 471.45476773 516.75 475.1875 C515.89245117 476.04883545 515.03490234 476.9101709 514.15136719 477.79760742 C511.43179111 480.5293112 508.715488 483.26423275 506 486 C502.41961974 489.60711851 498.83584819 493.21081802 495.25 496.8125 C494.44143555 497.62936279 493.63287109 498.44622559 492.79980469 499.2878418 C489.2959802 502.80661185 485.77940395 506.24770033 482.01367188 509.48632812 C477.28207071 513.5577195 472.92106584 517.97256794 468.53125 522.40625 C467.65150513 523.28978149 466.77176025 524.17331299 465.86535645 525.08361816 C463.07445494 527.88665133 460.28670768 530.69279916 457.5 533.5 C453.82601262 537.2010055 450.14834398 540.89831822 446.46875 544.59375 C445.63831177 545.43248657 444.80787354 546.27122314 443.95227051 547.13537598 C439.77072112 551.33431226 435.51242563 555.34116213 431.02062988 559.20422363 C427.09613477 562.69200516 423.44220794 566.45739874 419.75 570.1875 C418.89245117 571.04883545 418.03490234 571.9101709 417.15136719 572.79760742 C414.43179111 575.5293112 411.715488 578.26423275 409 581 C405.41961974 584.60711851 401.83584819 588.21081802 398.25 591.8125 C397.44143555 592.62936279 396.63287109 593.44622559 395.79980469 594.2878418 C392.2959802 597.80661185 388.77940395 601.24770033 385.01367188 604.48632812 C380.28207071 608.5577195 375.92106584 612.97256794 371.53125 617.40625 C370.65150513 618.28978149 369.77176025 619.17331299 368.86535645 620.08361816 C366.07445494 622.88665133 363.28670768 625.69279916 360.5 628.5 C356.82601262 632.2010055 353.14834398 635.89831822 349.46875 639.59375 C348.63831177 640.43248657 347.80787354 641.27122314 346.95227051 642.13537598 C342.77072112 646.33431226 338.51242563 650.34116213 334.02062988 654.20422363 C330.09613477 657.69200516 326.44220794 661.45739874 322.75 665.1875 C321.89245117 666.04883545 321.03490234 666.9101709 320.15136719 667.79760742 C317.43179111 670.5293112 314.715488 673.26423275 312 676 C308.41961974 679.60711851 304.83584819 683.21081802 301.25 686.8125 C300.44143555 687.62936279 299.63287109 688.44622559 298.79980469 689.2878418 C295.2959802 692.80661185 291.77940395 696.24770033 288.01367188 699.48632812 C283.28207071 703.5577195 278.92106584 707.97256794 274.53125 712.40625 C273.65150513 713.28978149 272.77176025 714.17331299 271.86535645 715.08361816 C269.07445494 717.88665133 266.28670768 720.69279916 263.5 723.5 C259.82601262 727.2010055 256.14834398 730.89831822 252.46875 734.59375 C251.63831177 735.43248657 250.80787354 736.27122314 249.95227051 737.13537598 C245.77072112 741.33431226 241.51242563 745.34116213 237.02062988 749.20422363 C233.09613477 752.69200516 229.44220794 756.45739874 225.75 760.1875 C224.89245117 761.04883545 224.03490234 761.9101709 223.15136719 762.79760742 C220.43179111 765.5293112 217.715488 768.26423275 215 771 C211.41961974 774.60711851 207.83584819 778.21081802 204.25 781.8125 C203.44143555 782.62936279 202.63287109 783.44622559 201.79980469 784.2878418 C198.2959802 787.80661185 194.77940395 791.24770033 191.01367188 794.48632812 C186.28207071 798.5577195 181.92106584 802.97256794 177.53125 807.40625 C176.65150513 808.28978149 175.77176025 809.17331299 174.86535645 810.08361816 C172.07445494 812.88665133 169.28670768 815.69279916 166.5 818.5 C162.82601262 822.2010055 159.14834398 825.89831822 155.46875 829.59375 C154.63831177 830.43248657 153.80787354 831.27122314 152.95227051 832.13537598 C148.77072112 836.33431226 144.51242563 840.34116213 140.02062988 844.20422363 C136.09613477 847.69200516 132.44220794 851.45739874 128.75 855.1875 C127.89245117 856.04883545 127.03490234 856.9101709 126.15136719 857.79760742 C123.43179111 860.5293112 120.715488 863.26423275 118 866 C114.41961974 869.60711851 110.83584819 873.21081802 107.25 876.8125 C106.44143555 877.62936279 105.63287109 878.44622559 104.79980469 879.2878418 C101.2959802 882.80661185 97.77940395 886.24770033 94.01367188 889.48632812 C89.28207071 893.5577195 84.92106584 897.97256794 80.53125 902.40625 C79.65150513 903.28978149 78.77176025 904.17331299 77.86535645 905.08361816 C75.07445494 907.88665133 72.28670768 910.69279916 69.5 913.5 C65.82601262 917.2010055 62.14834398 920.89831822 58.46875 924.59375 C57.63831177 925.43248657 56.80787354 926.27122314 55.95227051 927.13537598 C52.39374945 930.70869338 48.82612864 934.20932753 45.00170898 937.49829102 C40.26362504 941.57309471 35.89871926 945.99486911 31.50390625 950.43359375 C30.62975571 951.31153091 29.75560516 952.18946808 28.85496521 953.0940094 C26.08835894 955.8727478 23.32504024 958.65471961 20.5625 961.4375 C16.90012503 965.12668014 13.23419431 968.812295 9.56640625 972.49609375 C8.7217128 973.34908554 7.87701935 974.20207733 7.00672913 975.08091736 C6.23179611 975.85915359 5.4568631 976.63738983 4.65844727 977.43920898 C3.97420181 978.12869125 3.28995636 978.81817352 2.5849762 979.52854919 C1 981 1 981 0 981 C0 657.27 0 333.54 0 0 Z " transform="translate(0,0)" style="fill: #E46346;"/><path d="M0 0 C5.02739417 4.21736986 9.69703227 8.63718672 14.27734375 13.33984375 C16.33483724 15.3501064 18.39551177 17.21492259 20.57836914 19.07836914 C25.42771415 23.30723583 29.94348632 27.83576661 34.46875 32.40625 C35.34849487 33.28978149 36.22823975 34.17331299 37.13464355 35.08361816 C40.39656945 38.3597232 43.65392564 41.6403498 46.91094971 44.92132568 C50.1148726 48.14830538 53.32269116 51.3713808 56.53125 54.59375 C57.36168823 55.43248657 58.19212646 56.27122314 59.04772949 57.13537598 C63.22927888 61.33431226 67.48757437 65.34116213 71.97937012 69.20422363 C75.90386523 72.69200516 79.55779206 76.45739874 83.25 80.1875 C84.10754883 81.04883545 84.96509766 81.9101709 85.84863281 82.79760742 C89.48494939 86.45013983 93.11524371 90.10863635 96.74609375 93.76660156 C99.41197597 96.45065156 102.0809181 99.13163241 104.75 101.8125 C105.96284668 103.03779419 105.96284668 103.03779419 107.20019531 104.2878418 C110.7040198 107.80661185 114.22059605 111.24770033 117.98632812 114.48632812 C122.71792929 118.5577195 127.07893416 122.97256794 131.46875 127.40625 C132.34849487 128.28978149 133.22823975 129.17331299 134.13464355 130.08361816 C137.39656945 133.3597232 140.65392564 136.6403498 143.91094971 139.92132568 C147.1148726 143.14830538 150.32269116 146.3713808 153.53125 149.59375 C154.36168823 150.43248657 155.19212646 151.27122314 156.04772949 152.13537598 C160.22927888 156.33431226 164.48757437 160.34116213 168.97937012 164.20422363 C172.90386523 167.69200516 176.55779206 171.45739874 180.25 175.1875 C181.53632324 176.47950317 181.53632324 176.47950317 182.84863281 177.79760742 C186.48494939 181.45013983 190.11524371 185.10863635 193.74609375 188.76660156 C196.41197597 191.45065156 199.0809181 194.13163241 201.75 196.8125 C202.96284668 198.03779419 202.96284668 198.03779419 204.20019531 199.2878418 C207.7040198 202.80661185 211.22059605 206.24770033 214.98632812 209.48632812 C219.71792929 213.5577195 224.07893416 217.97256794 228.46875 222.40625 C229.34849487 223.28978149 230.22823975 224.17331299 231.13464355 225.08361816 C234.39656945 228.3597232 237.65392564 231.6403498 240.91094971 234.92132568 C244.1148726 238.14830538 247.32269116 241.3713808 250.53125 244.59375 C251.36168823 245.43248657 252.19212646 246.27122314 253.04772949 247.13537598 C257.22927888 251.33431226 261.48757437 255.34116213 265.97937012 259.20422363 C269.90386523 262.69200516 273.55779206 266.45739874 277.25 270.1875 C278.53632324 271.47950317 278.53632324 271.47950317 279.84863281 272.79760742 C283.48494939 276.45013983 287.11524371 280.10863635 290.74609375 283.76660156 C293.41197597 286.45065156 296.0809181 289.13163241 298.75 291.8125 C299.55856445 292.62936279 300.36712891 293.44622559 301.20019531 294.2878418 C304.7040198 297.80661185 308.22059605 301.24770033 311.98632812 304.48632812 C316.71792929 308.5577195 321.07893416 312.97256794 325.46875 317.40625 C326.34849487 318.28978149 327.22823975 319.17331299 328.13464355 320.08361816 C331.39656945 323.3597232 334.65392564 326.6403498 337.91094971 329.92132568 C341.1148726 333.14830538 344.32269116 336.3713808 347.53125 339.59375 C348.36168823 340.43248657 349.19212646 341.27122314 350.04772949 342.13537598 C354.22927888 346.33431226 358.48757437 350.34116213 362.97937012 354.20422363 C366.90386523 357.69200516 370.55779206 361.45739874 374.25 365.1875 C375.10754883 366.04883545 375.96509766 366.9101709 376.84863281 367.79760742 C380.48494939 371.45013983 384.11524371 375.10863635 387.74609375 378.76660156 C390.41197597 381.45065156 393.0809181 384.13163241 395.75 386.8125 C396.55856445 387.62936279 397.36712891 388.44622559 398.20019531 389.2878418 C401.7040198 392.80661185 405.22059605 396.24770033 408.98632812 399.48632812 C413.71792929 403.5577195 418.07893416 407.97256794 422.46875 412.40625 C423.34849487 413.28978149 424.22823975 414.17331299 425.13464355 415.08361816 C428.39656945 418.3597232 431.65392564 421.6403498 434.91094971 424.92132568 C438.1148726 428.14830538 441.32269116 431.3713808 444.53125 434.59375 C445.36168823 435.43248657 446.19212646 436.27122314 447.04772949 437.13537598 C451.22927888 441.33431226 455.48757437 445.34116213 459.97937012 449.20422363 C463.90386523 452.69200516 467.55779206 456.45739874 471.25 460.1875 C472.10754883 461.04883545 472.96509766 461.9101709 473.84863281 462.79760742 C477.48494939 466.45013983 481.11524371 470.10863635 484.74609375 473.76660156 C487.41197597 476.45065156 490.0809181 479.13163241 492.75 481.8125 C493.55856445 482.62936279 494.36712891 483.44622559 495.20019531 484.2878418 C498.7040198 487.80661185 502.22059605 491.24770033 505.98632812 494.48632812 C510.71792929 498.5577195 515.07893416 502.97256794 519.46875 507.40625 C520.34849487 508.28978149 521.22823975 509.17331299 522.13464355 510.08361816 C525.39656945 513.3597232 528.65392564 516.6403498 531.91094971 519.92132568 C535.1148726 523.14830538 538.32269116 526.3713808 541.53125 529.59375 C542.36168823 530.43248657 543.19212646 531.27122314 544.04772949 532.13537598 C548.22927888 536.33431226 552.48757437 540.34116213 556.97937012 544.20422363 C560.90386523 547.69200516 564.55779206 551.45739874 568.25 555.1875 C569.10754883 556.04883545 569.96509766 556.9101709 570.84863281 557.79760742 C574.48494939 561.45013983 578.11524371 565.10863635 581.74609375 568.76660156 C584.41197597 571.45065156 587.0809181 574.13163241 589.75 576.8125 C590.96284668 578.03779419 590.96284668 578.03779419 592.20019531 579.2878418 C595.7040198 582.80661185 599.22059605 586.24770033 602.98632812 589.48632812 C607.71792929 593.5577195 612.07893416 597.97256794 616.46875 602.40625 C617.34849487 603.28978149 618.22823975 604.17331299 619.13464355 605.08361816 C622.39656945 608.3597232 625.65392564 611.6403498 628.91094971 614.92132568 C632.1148726 618.14830538 635.32269116 621.3713808 638.53125 624.59375 C639.36168823 625.43248657 640.19212646 626.27122314 641.04772949 627.13537598 C645.28893529 631.39421673 649.6057526 635.47408076 654.16296387 639.39227295 C656.97448593 641.85284516 659.61432084 644.47095512 662.25 647.1171875 C663.06537231 647.93112473 663.06537231 647.93112473 663.8972168 648.76150513 C665.02759386 649.89120964 666.15674133 651.02214579 667.28466797 652.15429688 C669.02065963 653.89572432 670.76203142 655.63164676 672.50390625 657.3671875 C673.60709226 658.47103302 674.70996873 659.57518801 675.8125 660.6796875 C676.33424805 661.19941132 676.85599609 661.71913513 677.39355469 662.25460815 C681 665.88500156 681 665.88500156 681 667 C231.87 667 -217.26 667 -680 667 C-676.40247051 662.80288226 -672.97536973 658.84803645 -669.1015625 654.96875 C-668.20953125 654.07542969 -667.3175 653.18210937 -666.3984375 652.26171875 C-665.48320313 651.35035156 -664.56796875 650.43898438 -663.625 649.5 C-662.26375 648.13294922 -662.26375 648.13294922 -660.875 646.73828125 C-659.53308594 645.39830078 -659.53308594 645.39830078 -658.1640625 644.03125 C-656.96450928 642.83338867 -656.96450928 642.83338867 -655.74072266 641.61132812 C-653.62328917 639.59386255 -651.48442548 637.67805002 -649.26904297 635.7734375 C-644.46575996 631.59999752 -640.00639059 627.11360944 -635.53125 622.59375 C-634.65150513 621.71021851 -633.77176025 620.82668701 -632.86535645 619.91638184 C-630.07445494 617.11334867 -627.28670768 614.30720084 -624.5 611.5 C-620.82601262 607.7989945 -617.14834398 604.10168178 -613.46875 600.40625 C-612.63831177 599.56751343 -611.80787354 598.72877686 -610.95227051 597.86462402 C-606.77072112 593.66568774 -602.51242563 589.65883787 -598.02062988 585.79577637 C-594.09613477 582.30799484 -590.44220794 578.54260126 -586.75 574.8125 C-585.89245117 573.95116455 -585.03490234 573.0898291 -584.15136719 572.20239258 C-581.43179111 569.4706888 -578.715488 566.73576725 -576 564 C-572.41961974 560.39288149 -568.83584819 556.78918198 -565.25 553.1875 C-564.44143555 552.37063721 -563.63287109 551.55377441 -562.79980469 550.7121582 C-559.2959802 547.19338815 -555.77940395 543.75229967 -552.01367188 540.51367188 C-547.28207071 536.4422805 -542.92106584 532.02743206 -538.53125 527.59375 C-537.65150513 526.71021851 -536.77176025 525.82668701 -535.86535645 524.91638184 C-533.07445494 522.11334867 -530.28670768 519.30720084 -527.5 516.5 C-523.82601262 512.7989945 -520.14834398 509.10168178 -516.46875 505.40625 C-515.63831177 504.56751343 -514.80787354 503.72877686 -513.95227051 502.86462402 C-509.77072112 498.66568774 -505.51242563 494.65883787 -501.02062988 490.79577637 C-497.09613477 487.30799484 -493.44220794 483.54260126 -489.75 479.8125 C-488.89245117 478.95116455 -488.03490234 478.0898291 -487.15136719 477.20239258 C-484.43179111 474.4706888 -481.715488 471.73576725 -479 469 C-475.41961974 465.39288149 -471.83584819 461.78918198 -468.25 458.1875 C-467.44143555 457.37063721 -466.63287109 456.55377441 -465.79980469 455.7121582 C-461.67183907 451.56658475 -457.46183107 447.61828431 -453.02832031 443.8034668 C-449.10189436 440.31231267 -445.44481222 436.54523227 -441.75 432.8125 C-440.89245117 431.95116455 -440.03490234 431.0898291 -439.15136719 430.20239258 C-436.43179111 427.4706888 -433.715488 424.73576725 -431 422 C-427.41961974 418.39288149 -423.83584819 414.78918198 -420.25 411.1875 C-419.44143555 410.37063721 -418.63287109 409.55377441 -417.79980469 408.7121582 C-414.2959802 405.19338815 -410.77940395 401.75229967 -407.01367188 398.51367188 C-402.28207071 394.4422805 -397.92106584 390.02743206 -393.53125 385.59375 C-392.65150513 384.71021851 -391.77176025 383.82668701 -390.86535645 382.91638184 C-388.07445494 380.11334867 -385.28670768 377.30720084 -382.5 374.5 C-378.82601262 370.7989945 -375.14834398 367.10168178 -371.46875 363.40625 C-370.22309265 362.14814514 -370.22309265 362.14814514 -368.95227051 360.86462402 C-364.77072112 356.66568774 -360.51242563 352.65883787 -356.02062988 348.79577637 C-352.09613477 345.30799484 -348.44220794 341.54260126 -344.75 337.8125 C-343.89245117 336.95116455 -343.03490234 336.0898291 -342.15136719 335.20239258 C-339.43179111 332.4706888 -336.715488 329.73576725 -334 327 C-330.41961974 323.39288149 -326.83584819 319.78918198 -323.25 316.1875 C-322.44143555 315.37063721 -321.63287109 314.55377441 -320.79980469 313.7121582 C-317.2959802 310.19338815 -313.77940395 306.75229967 -310.01367188 303.51367188 C-305.28207071 299.4422805 -300.92106584 295.02743206 -296.53125 290.59375 C-295.65150513 289.71021851 -294.77176025 288.82668701 -293.86535645 287.91638184 C-291.07445494 285.11334867 -288.28670768 282.30720084 -285.5 279.5 C-281.82601262 275.7989945 -278.14834398 272.10168178 -274.46875 268.40625 C-273.22309265 267.14814514 -273.22309265 267.14814514 -271.95227051 265.86462402 C-267.77072112 261.66568774 -263.51242563 257.65883787 -259.02062988 253.79577637 C-255.09613477 250.30799484 -251.44220794 246.54260126 -247.75 242.8125 C-246.89245117 241.95116455 -246.03490234 241.0898291 -245.15136719 240.20239258 C-242.43179111 237.4706888 -239.715488 234.73576725 -237 232 C-233.41961974 228.39288149 -229.83584819 224.78918198 -226.25 221.1875 C-225.44143555 220.37063721 -224.63287109 219.55377441 -223.79980469 218.7121582 C-220.2959802 215.19338815 -216.77940395 211.75229967 -213.01367188 208.51367188 C-208.28207071 204.4422805 -203.92106584 200.02743206 -199.53125 195.59375 C-198.65150513 194.71021851 -197.77176025 193.82668701 -196.86535645 192.91638184 C-194.07445494 190.11334867 -191.28670768 187.30720084 -188.5 184.5 C-184.82601262 180.7989945 -181.14834398 177.10168178 -177.46875 173.40625 C-176.63831177 172.56751343 -175.80787354 171.72877686 -174.95227051 170.86462402 C-170.77072112 166.66568774 -166.51242563 162.65883787 -162.02062988 158.79577637 C-158.09613477 155.30799484 -154.44220794 151.54260126 -150.75 147.8125 C-149.89245117 146.95116455 -149.03490234 146.0898291 -148.15136719 145.20239258 C-145.43179111 142.4706888 -142.715488 139.73576725 -140 137 C-136.41961974 133.39288149 -132.83584819 129.78918198 -129.25 126.1875 C-128.44143555 125.37063721 -127.63287109 124.55377441 -126.79980469 123.7121582 C-123.2959802 120.19338815 -119.77940395 116.75229967 -116.01367188 113.51367188 C-111.28207071 109.4422805 -106.92106584 105.02743206 -102.53125 100.59375 C-101.21163269 99.26845276 -101.21163269 99.26845276 -99.86535645 97.91638184 C-97.07445494 95.11334867 -94.28670768 92.30720084 -91.5 89.5 C-87.82601262 85.7989945 -84.14834398 82.10168178 -80.46875 78.40625 C-79.22309265 77.14814514 -79.22309265 77.14814514 -77.95227051 75.86462402 C-73.77072112 71.66568774 -69.51242563 67.65883787 -65.02062988 63.79577637 C-61.09613477 60.30799484 -57.44220794 56.54260126 -53.75 52.8125 C-52.46367676 51.52049683 -52.46367676 51.52049683 -51.15136719 50.20239258 C-48.43179111 47.4706888 -45.715488 44.73576725 -43 42 C-39.41961974 38.39288149 -35.83584819 34.78918198 -32.25 31.1875 C-31.03715332 29.96220581 -31.03715332 29.96220581 -29.79980469 28.7121582 C-25.56894295 24.46324972 -21.25661097 20.39313762 -16.71044922 16.48336792 C-14.70436653 14.74361518 -12.80654774 12.92089191 -10.9375 11.03515625 C-10.28652344 10.38095703 -9.63554688 9.72675781 -8.96484375 9.05273438 C-8.31644531 8.39595703 -7.66804687 7.73917969 -7 7.0625 C-5.98099609 6.03672852 -5.98099609 6.03672852 -4.94140625 4.99023438 C-3.29191641 3.32912841 -1.6448332 1.66571487 0 0 Z " transform="translate(999,669)" style="fill: #E46346;"/><path d="M0 0 C106.92 0 213.84 0 324 0 C324 104.61 324 209.22 324 317 C309.29084819 304.39215559 295.63450581 290.74984302 282 277 C278.77382528 273.74700966 275.54417432 270.49752579 272.3125 267.25 C271.59465332 266.52385498 270.87680664 265.79770996 270.13720703 265.04956055 C266.87344791 261.77014333 263.58084271 258.58961141 260.07226562 255.57226562 C255.32393746 251.47797875 250.94054576 247.04710663 246.53125 242.59375 C245.65150513 241.71021851 244.77176025 240.82668701 243.86535645 239.91638184 C240.60343055 236.6402768 237.34607436 233.3596502 234.08905029 230.07867432 C230.8851274 226.85169462 227.67730884 223.6286192 224.46875 220.40625 C223.63831177 219.56751343 222.80787354 218.72877686 221.95227051 217.86462402 C217.77072112 213.66568774 213.51242563 209.65883787 209.02062988 205.79577637 C205.09613477 202.30799484 201.44220794 198.54260126 197.75 194.8125 C196.46367676 193.52049683 196.46367676 193.52049683 195.15136719 192.20239258 C191.51505061 188.54986017 187.88475629 184.89136365 184.25390625 181.23339844 C181.58802403 178.54934844 178.9190819 175.86836759 176.25 173.1875 C175.44143555 172.37063721 174.63287109 171.55377441 173.79980469 170.7121582 C170.2959802 167.19338815 166.77940395 163.75229967 163.01367188 160.51367188 C158.28207071 156.4422805 153.92106584 152.02743206 149.53125 147.59375 C148.65150513 146.71021851 147.77176025 145.82668701 146.86535645 144.91638184 C143.60343055 141.6402768 140.34607436 138.3596502 137.08905029 135.07867432 C133.8851274 131.85169462 130.67730884 128.6286192 127.46875 125.40625 C126.63831177 124.56751343 125.80787354 123.72877686 124.95227051 122.86462402 C120.77072112 118.66568774 116.51242563 114.65883787 112.02062988 110.79577637 C108.09613477 107.30799484 104.44220794 103.54260126 100.75 99.8125 C99.46367676 98.52049683 99.46367676 98.52049683 98.15136719 97.20239258 C94.51505061 93.54986017 90.88475629 89.89136365 87.25390625 86.23339844 C84.58802403 83.54934844 81.9190819 80.86836759 79.25 78.1875 C78.44143555 77.37063721 77.63287109 76.55377441 76.79980469 75.7121582 C73.2959802 72.19338815 69.77940395 68.75229967 66.01367188 65.51367188 C61.28207071 61.4422805 56.92106584 57.02743206 52.53125 52.59375 C51.21163269 51.26845276 51.21163269 51.26845276 49.86535645 49.91638184 C46.60343055 46.6402768 43.34607436 43.3596502 40.08905029 40.07867432 C36.8851274 36.85169462 33.67730884 33.6286192 30.46875 30.40625 C29.63831177 29.56751343 28.80787354 28.72877686 27.95227051 27.86462402 C23.69113866 23.58577437 19.36734035 19.45991476 14.77111816 15.54159546 C11.70961378 12.87683748 8.85873118 10.00372231 6 7.125 C5.41605469 6.54492188 4.83210938 5.96484375 4.23046875 5.3671875 C0 1.12681133 0 1.12681133 0 0 Z " transform="translate(1676,0)" style="fill: #F89D00;"/><path d="M0 0 C106.59 0 213.18 0 323 0 C316.23816912 7.88880269 316.23816912 7.88880269 312.9765625 11.15625 C312.265 11.86910156 311.5534375 12.58195313 310.8203125 13.31640625 C310.09585937 14.03699219 309.37140625 14.75757813 308.625 15.5 C307.90828125 16.22058594 307.1915625 16.94117187 306.453125 17.68359375 C305.73898437 18.39644531 305.02484375 19.10929687 304.2890625 19.84375 C303.65693848 20.47474609 303.02481445 21.10574219 302.37353516 21.75585938 C300.39707305 23.6245736 298.3852787 25.39966124 296.32373047 27.171875 C291.504569 31.36628512 287.02453718 35.86806264 282.53125 40.40625 C281.21163269 41.73154724 281.21163269 41.73154724 279.86535645 43.08361816 C277.07445494 45.88665133 274.28670768 48.69279916 271.5 51.5 C267.82601262 55.2010055 264.14834398 58.89831822 260.46875 62.59375 C259.63831177 63.43248657 258.80787354 64.27122314 257.95227051 65.13537598 C253.77072112 69.33431226 249.51242563 73.34116213 245.02062988 77.20422363 C241.09613477 80.69200516 237.44220794 84.45739874 233.75 88.1875 C232.89245117 89.04883545 232.03490234 89.9101709 231.15136719 90.79760742 C228.43179111 93.5293112 225.715488 96.26423275 223 99 C219.41961974 102.60711851 215.83584819 106.21081802 212.25 109.8125 C211.03715332 111.03779419 211.03715332 111.03779419 209.79980469 112.2878418 C206.2959802 115.80661185 202.77940395 119.24770033 199.01367188 122.48632812 C194.28207071 126.5577195 189.92106584 130.97256794 185.53125 135.40625 C184.65150513 136.28978149 183.77176025 137.17331299 182.86535645 138.08361816 C180.07445494 140.88665133 177.28670768 143.69279916 174.5 146.5 C170.82601262 150.2010055 167.14834398 153.89831822 163.46875 157.59375 C162.63831177 158.43248657 161.80787354 159.27122314 160.95227051 160.13537598 C156.77072112 164.33431226 152.51242563 168.34116213 148.02062988 172.20422363 C144.09613477 175.69200516 140.44220794 179.45739874 136.75 183.1875 C135.89245117 184.04883545 135.03490234 184.9101709 134.15136719 185.79760742 C131.43179111 188.5293112 128.715488 191.26423275 126 194 C122.41961974 197.60711851 118.83584819 201.21081802 115.25 204.8125 C114.03715332 206.03779419 114.03715332 206.03779419 112.79980469 207.2878418 C109.2959802 210.80661185 105.77940395 214.24770033 102.01367188 217.48632812 C97.28207071 221.5577195 92.92106584 225.97256794 88.53125 230.40625 C87.65150513 231.28978149 86.77176025 232.17331299 85.86535645 233.08361816 C83.07445494 235.88665133 80.28670768 238.69279916 77.5 241.5 C73.82601262 245.2010055 70.14834398 248.89831822 66.46875 252.59375 C65.63831177 253.43248657 64.80787354 254.27122314 63.95227051 255.13537598 C59.77072112 259.33431226 55.51242563 263.34116213 51.02062988 267.20422363 C47.09613477 270.69200516 43.44220794 274.45739874 39.75 278.1875 C38.89245117 279.04883545 38.03490234 279.9101709 37.15136719 280.79760742 C34.43179111 283.5293112 31.715488 286.26423275 29 289 C25.41961974 292.60711851 21.83584819 296.21081802 18.25 299.8125 C17.44143555 300.62936279 16.63287109 301.44622559 15.79980469 302.2878418 C11.05439101 307.05349704 6.27501521 311.81365454 1 316 C0.67 316 0.34 316 0 316 C0 211.72 0 107.44 0 0 Z " transform="translate(0,0)" style="fill: #F89D00;"/></svg>