<svg width="212" height="32" viewBox="0 0 212 32" fill="none" xmlns="http://www.w3.org/2000/svg">
<g clip-path="url(#clip0_1114_277)">
<path d="M207.338 8.14062C207.777 8.14064 208.175 8.19885 208.531 8.31348C208.891 8.42925 209.226 8.58948 209.534 8.79492L209.537 8.79688C209.846 8.98967 210.136 9.22823 210.407 9.5127L210.409 9.51465C210.655 9.76088 210.891 10.0237 211.116 10.3018L209.717 11.4395C209.355 11.0141 208.999 10.6654 208.645 10.3994H208.644C208.263 10.1041 207.812 9.95703 207.298 9.95703C206.797 9.95705 206.385 10.1042 206.079 10.4092C205.777 10.6968 205.623 11.0476 205.623 11.4541C205.623 11.8863 205.789 12.2921 206.109 12.668C206.423 13.0357 206.935 13.4924 207.639 14.0371H207.64C208.195 14.4602 208.704 14.8631 209.166 15.2461L209.167 15.248C209.625 15.6145 210.017 15.9927 210.342 16.3828L210.344 16.3848C210.68 16.7727 210.937 17.1852 211.117 17.6221L211.118 17.623C211.296 18.0427 211.386 18.5162 211.386 19.0449C211.386 19.5851 211.284 20.085 211.079 20.5449L211.078 20.5469C210.886 21.0081 210.611 21.412 210.252 21.7578C209.894 22.103 209.464 22.3723 208.962 22.5654L208.959 22.5664C208.473 22.7711 207.926 22.875 207.317 22.875C206.444 22.8749 205.691 22.6814 205.054 22.2988L204.788 22.124C204.129 21.6389 203.544 20.9269 203.033 19.9834L204.59 19.04C205.353 20.3853 206.252 21.0976 207.298 21.0977C207.603 21.0977 207.89 21.0494 208.156 20.9512L208.159 20.9502C208.435 20.84 208.673 20.7005 208.87 20.5312L208.873 20.5283C209.07 20.3454 209.225 20.1325 209.338 19.8926C209.465 19.6512 209.529 19.3952 209.529 19.125C209.529 18.915 209.502 18.7183 209.445 18.5361L209.38 18.3594C209.28 18.1186 209.119 17.876 208.901 17.6309C208.739 17.4478 208.547 17.2578 208.325 17.0615L208.094 16.8623C207.934 16.7229 207.757 16.5723 207.562 16.4102L206.919 15.8867C206.404 15.4641 205.948 15.0756 205.553 14.7197C205.258 14.4541 204.997 14.1923 204.77 13.9355L204.554 13.6807C204.36 13.4287 204.2 13.1742 204.072 12.917L203.956 12.6582C203.83 12.3036 203.767 11.9155 203.767 11.4932C203.767 11.0055 203.856 10.5591 204.034 10.1523L204.033 10.1514C204.225 9.74312 204.481 9.39396 204.799 9.10156C205.131 8.79473 205.515 8.55735 205.951 8.39062C206.387 8.22408 206.849 8.14062 207.338 8.14062Z" fill="#F6CD00" stroke="white" stroke-width="0.25"/>
<path d="M191.25 8.49902V22.5176H189.394V8.49902H191.25Z" fill="#F6CD00" stroke="white" stroke-width="0.25"/>
<path d="M172.423 8.49902V20.7607H177.113V22.5176H170.566V8.49902H172.423Z" fill="#F6CD00" stroke="white" stroke-width="0.25"/>
<path d="M149.819 8.14062C150.836 8.14063 151.787 8.32979 152.671 8.70703L152.673 8.70801C153.572 9.07289 154.353 9.58655 155.017 10.25L155.018 10.252C155.694 10.9021 156.228 11.6829 156.619 12.5957V12.5967C157.009 13.4938 157.205 14.4701 157.205 15.5273C157.205 16.5581 157.016 17.5221 156.639 18.4199C156.261 19.3063 155.74 20.0811 155.076 20.7451C154.426 21.3954 153.651 21.9098 152.751 22.2881L152.75 22.2891C151.866 22.6662 150.915 22.8555 149.898 22.8555C148.841 22.8554 147.856 22.6589 146.946 22.2686C146.158 21.9261 145.462 21.4795 144.856 20.9287L144.601 20.6855C144.031 20.1045 143.566 19.4389 143.205 18.6875L143.058 18.3604C142.694 17.4756 142.511 16.5315 142.511 15.5273C142.511 14.4835 142.7 13.5136 143.077 12.6162C143.469 11.716 143.996 10.9345 144.66 10.2705C145.324 9.60649 146.099 9.08513 146.986 8.70703C147.87 8.3297 148.815 8.14062 149.819 8.14062ZM149.838 9.91797C149.107 9.918 148.415 10.0537 147.763 10.3252C147.112 10.5965 146.535 10.9828 146.033 11.4844C145.531 11.9732 145.132 12.5632 144.835 13.252L144.834 13.2539C144.549 13.9465 144.407 14.7121 144.407 15.5479C144.408 16.3582 144.556 17.1103 144.855 17.8027V17.8037C145.152 18.4792 145.545 19.0621 146.033 19.5508L146.035 19.5518C146.537 20.0397 147.113 20.4195 147.763 20.6904L147.764 20.6914C148.428 20.9626 149.127 21.0977 149.859 21.0977C150.616 21.0976 151.321 20.9549 151.973 20.6699L151.974 20.6709C152.637 20.3867 153.214 19.9995 153.702 19.5107C154.204 19.0087 154.598 18.419 154.882 17.7422V17.7412C155.167 17.0494 155.309 16.3047 155.309 15.5078C155.309 14.711 155.167 13.972 154.882 13.293C154.598 12.6163 154.204 12.0264 153.702 11.5244C153.201 11.0228 152.618 10.6291 151.954 10.3447H151.953C151.301 10.0597 150.595 9.91797 149.838 9.91797Z" fill="#F6CD00" stroke="white" stroke-width="0.25"/>
<path d="M125.58 8.49902C126.314 8.49902 126.98 8.57085 127.578 8.71387L127.581 8.71484C128.176 8.84421 128.683 9.06282 129.104 9.36914L129.107 9.37207C129.539 9.66393 129.868 10.0505 130.097 10.5342L130.099 10.5361C130.34 11.0176 130.464 11.6202 130.464 12.3486C130.464 13.0489 130.333 13.6377 130.08 14.1191C129.824 14.6054 129.479 15.0005 129.046 15.3066C128.61 15.6143 128.095 15.8409 127.499 15.9834C126.9 16.1266 126.26 16.1982 125.58 16.1982H123.845V22.5176H121.989V8.49902H125.58ZM123.845 14.4014H125.779C126.625 14.4014 127.304 14.2599 127.807 13.9668L127.808 13.9678C128.349 13.6607 128.607 13.107 128.607 12.3486C128.607 11.6023 128.348 11.0556 127.807 10.749C127.292 10.4433 126.612 10.2959 125.779 10.2959H123.845V14.4014Z" fill="#F6CD00" stroke="white" stroke-width="0.25"/>
<path d="M101.291 8.14062C102.309 8.14063 103.259 8.32979 104.144 8.70703L104.146 8.70801C105.045 9.07289 105.826 9.58655 106.49 10.25L106.49 10.252C107.167 10.9021 107.701 11.6829 108.092 12.5957V12.5967C108.482 13.4938 108.678 14.4701 108.678 15.5273C108.678 16.5581 108.489 17.5221 108.112 18.4199C107.734 19.3063 107.213 20.0811 106.549 20.7451C105.899 21.3954 105.124 21.9098 104.224 22.2881L104.223 22.2891C103.338 22.6662 102.388 22.8555 101.37 22.8555C100.313 22.8554 99.329 22.6589 98.4182 22.2686C97.6311 21.9261 96.9347 21.4795 96.3284 20.9287L96.0735 20.6855C95.5041 20.1045 95.0387 19.4389 94.678 18.6875L94.5305 18.3604C94.1664 17.4756 93.9836 16.5315 93.9836 15.5273C93.9837 14.4835 94.1731 13.5136 94.55 12.6162C94.9415 11.716 95.4691 10.9345 96.1331 10.2705C96.7971 9.60649 97.5718 9.08513 98.4583 8.70703C99.343 8.3297 100.287 8.14062 101.291 8.14062ZM101.311 9.91797C100.58 9.918 99.8873 10.0537 99.2356 10.3252C98.5847 10.5965 98.0077 10.9828 97.5061 11.4844C97.004 11.9732 96.605 12.5632 96.3079 13.252L96.3069 13.2539C96.0217 13.9465 95.8801 14.7121 95.8801 15.5479C95.8802 16.3582 96.0287 17.1103 96.3274 17.8027V17.8037C96.6246 18.4792 97.0175 19.0621 97.5061 19.5508L97.5081 19.5518C98.0095 20.0397 98.5854 20.4195 99.2356 20.6904L99.2366 20.6914C99.9011 20.9626 100.6 21.0977 101.331 21.0977C102.088 21.0976 102.793 20.9549 103.446 20.6699L103.447 20.6709C104.11 20.3867 104.686 19.9995 105.175 19.5107C105.677 19.0087 106.07 18.419 106.355 17.7422V17.7412C106.64 17.0494 106.781 16.3047 106.781 15.5078C106.781 14.711 106.64 13.972 106.355 13.293C106.07 12.6163 105.677 12.0264 105.175 11.5244C104.673 11.0228 104.09 10.6291 103.427 10.3447H103.426C102.774 10.0597 102.068 9.91797 101.311 9.91797Z" fill="#F6CD00" stroke="white" stroke-width="0.25"/>
<path d="M76.8232 8.49902C78.3972 8.49903 79.5691 8.84034 80.3594 9.50293L80.3613 9.50488C81.1608 10.1521 81.5674 11.093 81.5674 12.3486C81.5674 13.434 81.2388 14.2723 80.5938 14.8799C79.9414 15.4811 79.0395 15.8713 77.8779 16.041L77.6855 16.0684L77.792 16.2324L81.8789 22.5176H79.793L75.7559 16.2559L75.7188 16.1982H74.9492V22.5176H73.0928V8.49902H76.8232ZM74.9492 14.4014H76.9619C77.8091 14.4014 78.4805 14.2472 78.96 13.9229H78.9609C79.4657 13.5767 79.7109 13.0364 79.7109 12.3291C79.7109 11.7133 79.4918 11.2132 79.0508 10.8428H79.0518C78.621 10.4694 77.9544 10.2959 77.0811 10.2959H74.9492V14.4014Z" fill="#F6CD00" stroke="white" stroke-width="0.25"/>
<path d="M55.3118 8.49902C56.0455 8.49902 56.7116 8.57085 57.3098 8.71387L57.3127 8.71484C57.9078 8.84421 58.415 9.06282 58.8362 9.36914L58.8391 9.37207C59.2705 9.66393 59.6002 10.0505 59.8293 10.5342L59.8313 10.5361C60.072 11.0176 60.1956 11.6202 60.1956 12.3486C60.1956 13.0489 60.0652 13.6377 59.8118 14.1191C59.5557 14.6054 59.2112 15.0005 58.7776 15.3066C58.3418 15.6143 57.8268 15.8409 57.2307 15.9834C56.6317 16.1266 55.9918 16.1982 55.3118 16.1982H53.5774V22.5176H51.7209V8.49902H55.3118ZM53.5774 14.4014H55.511C56.3565 14.4014 57.036 14.2599 57.5393 13.9668L57.5403 13.9678C58.0812 13.6607 58.3391 13.107 58.3391 12.3486C58.3391 11.6023 58.0795 11.0556 57.5393 10.749C57.0234 10.4433 56.344 10.2959 55.511 10.2959H53.5774V14.4014Z" fill="#F6CD00" stroke="white" stroke-width="0.25"/>
<path fill-rule="evenodd" clip-rule="evenodd" d="M28 0L37 16L28 32H9L0 16L9 0H28ZM3 16L10.541 29H26.459L34 16L26.459 3H10.541L3 16Z" fill="#F6CD00"/>
</g>
<defs>
<clipPath id="clip0_1114_277">
<rect width="212" height="32" fill="white"/>
</clipPath>
</defs>
</svg>
