<svg width="224" height="192" viewBox="0 0 224 192" fill="none" xmlns="http://www.w3.org/2000/svg">
<g clip-path="url(#clip0_354_2919)">
<path d="M143.518 70.4573C137.054 82.2441 103.465 75.9133 68.4726 56.3253C34.7001 37.4178 11.99 13.0666 16.2466 0.793747C16.4906 0.0889698 17.3199 -0.202662 17.9664 0.149726L143.506 70.4452L143.518 70.4573Z" fill="#DB5311"/>
<path d="M143.518 70.4575C141.664 83.7996 108.051 90.0575 68.4481 84.4436C30.2117 79.012 0.378741 64.5155 0.000645394 51.5135C-0.0237479 50.7723 0.647067 50.189 1.37886 50.2862L143.506 70.4453L143.518 70.4575Z" fill="#DB5311"/>
<path d="M143.519 70.457C150.971 81.6241 130.151 109.001 96.9884 131.615C64.9845 153.438 33.2123 162.831 24.3209 153.426C23.8087 152.892 23.9306 152.005 24.5405 151.579L143.519 70.457Z" fill="#10B5A8"/>
<path d="M143.518 70.457C154.446 78.1853 144.701 111.285 121.771 144.398C99.6345 176.356 73.302 196.649 61.6664 191.083C60.9956 190.767 60.7883 189.892 61.2152 189.285L143.518 70.457Z" fill="#175773"/>
<path d="M143.518 70.457L105.27 125.673C133.517 104.408 150.324 80.6641 143.518 70.457Z" fill="#027B77"/>
<path d="M143.519 70.457C146.519 83.5805 117.369 101.601 78.4009 110.702C39.4327 119.804 7.78243 116.754 2.8306 104.748C2.55007 104.055 2.96476 103.278 3.68436 103.108L143.519 70.457Z" fill="#F3A900"/>
<path d="M143.519 70.457L78.5349 85.6219C113.6 88.9149 141.823 82.6448 143.519 70.457Z" fill="#C0450C"/>
<path d="M153.532 71.5549C155.425 72.6304 221.926 109.812 221.926 109.812C223.354 110.606 224.726 108.7 223.563 107.551C223.563 107.551 177.879 63.5126 173.674 60.6406C169.47 57.7685 162.088 55.6384 155.933 63.1492C155.933 63.1492 153.616 66.0855 152.655 67.3281C151.693 68.5708 151.638 70.4794 153.532 71.5549Z" fill="#175773"/>
</g>
<defs>
<clipPath id="clip0_354_2919">
<rect width="224" height="192" fill="white"/>
</clipPath>
</defs>
</svg>
