<svg fill="none" height="48" viewBox="0 0 164 48" width="164" xmlns="http://www.w3.org/2000/svg" xmlns:xlink="http://www.w3.org/1999/xlink"><clipPath id="a"><path d="m0 0h164v48h-164z"/></clipPath><g clip-path="url(#a)"><path d="m35.8795 17.6143c-1.616 2.9467-10.0134 1.364-18.7614-3.533-8.44313-4.72684-14.12066-10.81465-13.0565-13.882863.06098-.1761946.26833-.2491025.42993-.1610054l31.38497 17.5738684z" fill="#db5311"/><path d="m35.8796 17.6138c-.4635 3.3355-8.867 4.9-18.7676 3.4965-9.55908-1.3579-17.0173148-4.982-17.11183865-8.2325-.00609831-.1853.16160565-.3311.34455465-.3068l35.531784 5.0398z" fill="#db5311"/><path d="m35.8796 17.6143c1.863 2.7917-3.3419 9.636-11.6326 15.2894-8.0009 5.4559-15.94399 7.8042-18.16683 5.4529-.12806-.1337-.09757-.3555.05489-.4618z" fill="#10b5a8"/><path d="m35.8794 17.6143c2.732 1.932.2957 10.2071-5.4367 18.4852-5.5342 7.9895-12.1173 13.0626-15.0262 11.6713-.1677-.079-.2196-.2977-.1128-.4496z" fill="#fff"/><path d="m35.8795 17.6143-9.5621 13.8039c7.0618-5.3162 11.2636-11.2522 9.5621-13.8039z" fill="#058e87"/><path d="m35.8797 17.6143c.7501 3.2808-6.5374 7.7859-16.2795 10.0613-9.74203 2.2753-17.65459 1.5128-18.892551-1.4886-.070131-.1731.033541-.3676.213441-.4101z" fill="#f3a900"/><path d="m35.8797 17.6143-16.2459 3.7912c8.7663.8232 15.8221-.7443 16.2459-3.7912z" fill="#c0450c"/><path d="m38.3829 17.8887c.4734.2689 17.0987 9.5643 17.0987 9.5643.3569.1985.7-.278.4092-.5653 0 0-11.4211-11.0095-12.4722-11.7276-1.0511-.718-2.8966-1.2505-4.4353.6272 0 0-.5793.7341-.8197 1.0447-.2403.3107-.254.7879.2193 1.0567z" fill="#fff"/><g fill="#db5311"><path d="m145.531 46.0062-5.304-15.6h4.134l2.548 8.086c.13.442.416 1.95.416 1.95s.364-1.482.494-1.95l2.366-8.086h3.198l2.392 8.086c.13.468.468 1.95.468 1.95s.26-1.482.416-1.95l2.548-8.086h4.03l-5.304 15.6h-3.276l-2.548-7.9819c-.156-.468-.364-1.4561-.364-1.5341-.026.104-.26 1.0921-.39 1.5341l-2.522 7.9819z"/><path d="m131.154 46.4479c-4.784 0-8.658-3.458-8.658-8.242s3.874-8.242 8.658-8.242c4.758 0 8.606 3.458 8.606 8.242s-3.848 8.242-8.606 8.242zm0-3.302c2.6 0 4.134-1.95 4.134-4.94s-1.534-4.94-4.134-4.94c-2.626 0-4.186 1.95-4.186 4.94s1.56 4.94 4.186 4.94z"/><path d="m110.656 46.0062v-15.6h4.212v12.4281h6.63v3.1719z"/><path d="m98.2148 46.0062v-15.6h10.5042v3.1721h-6.292v2.8079h4.992v3.146h-4.992v6.474z"/></g><path d="m85.3926 46.0062v-15.6h4.212v12.4281h6.63v3.1719z" fill="#fff"/><path d="m71.6309 46.0062v-15.6h10.842v3.1721h-6.63v2.626h5.33v3.146h-5.33v3.484h6.63v3.1719z" fill="#fff"/><path d="m57.8691 46.0062v-15.6h10.842v3.1721h-6.63v2.626h5.33v3.146h-5.33v3.484h6.63v3.1719z" fill="#fff"/><path d="m53.544 46.1883c-2.002 0-3.64-.7281-4.68-3.1981l-1.248-2.9899h-1.404v6.0059h-4.212v-15.6h7.098c3.796 0 5.434 2.2881 5.434 4.8101 0 2.106-1.144 3.7959-3.094 4.3939l1.196 2.236c.624 1.17 1.248 1.5861 2.262 1.5861.338 0 .572-.0261.91-.1561v2.548c-.728.234-1.612.3641-2.262.3641zm-7.332-8.866h1.82c1.612 0 2.34-.7281 2.34-2.0541 0-1.352-.728-2.0799-2.34-2.0799h-1.82z" fill="#fff"/></g></svg>