<svg width="164" height="48" viewBox="0 0 164 48" fill="none" xmlns="http://www.w3.org/2000/svg">
<g clip-path="url(#clip0_393_169)">
<path d="M35.8795 17.6143C34.2635 20.561 25.8661 18.9783 17.1181 14.0813C8.67497 9.35446 2.99744 3.26665 4.0616 0.198437C4.12258 0.0222424 4.32993 -0.0506655 4.49153 0.0374316L35.8765 17.6113L35.8795 17.6143Z" fill="#DB5311"/>
<path d="M35.8796 17.6143C35.4161 20.9498 27.0126 22.5143 17.112 21.1108C7.55292 19.7529 0.0946852 16.1288 0.000161349 12.8783C-0.00593696 12.693 0.161767 12.5472 0.344716 12.5715L35.8765 17.6113L35.8796 17.6143Z" fill="#DB5311"/>
<path d="M35.8796 17.6143C37.7426 20.406 32.5377 27.2503 24.247 32.9037C16.2461 38.3596 8.30301 40.7079 6.08017 38.3566C5.95211 38.2229 5.9826 38.0011 6.13506 37.8948L35.8796 17.6143Z" fill="#10B5A8"/>
<path d="M35.8794 17.6143C38.6114 19.5463 36.1751 27.8214 30.4427 36.0995C24.9085 44.089 18.3254 49.1621 15.4165 47.7708C15.2488 47.6918 15.1969 47.4731 15.3037 47.3212L35.8794 17.6143Z" fill="#175773"/>
<path d="M35.8795 17.6143L26.3174 31.4182C33.3792 26.102 37.581 20.166 35.8795 17.6143Z" fill="#058E87"/>
<path d="M35.8797 17.6143C36.6298 20.8951 29.3423 25.4002 19.6002 27.6756C9.85817 29.9509 1.94561 29.1884 0.707649 26.187C0.637518 26.0139 0.74119 25.8194 0.92109 25.7769L35.8797 17.6143Z" fill="#F3A900"/>
<path d="M35.8797 17.6143L19.6338 21.4055C28.4001 22.2287 35.4559 20.6612 35.8797 17.6143Z" fill="#C0450C"/>
<path d="M38.3829 17.8887C38.8563 18.1576 55.4816 27.453 55.4816 27.453C55.8385 27.6515 56.1816 27.175 55.8908 26.8877C55.8908 26.8877 44.4697 15.8782 43.4186 15.1601C42.3675 14.4421 40.522 13.9096 38.9833 15.7873C38.9833 15.7873 38.404 16.5214 38.1636 16.832C37.9233 17.1427 37.9096 17.6199 38.3829 17.8887Z" fill="#175773"/>
</g>
<path d="M145.531 46.0058L140.227 30.4058H144.361L146.909 38.4918C147.039 38.9338 147.325 40.4418 147.325 40.4418C147.325 40.4418 147.689 38.9598 147.819 38.4918L150.185 30.4058H153.383L155.775 38.4918C155.905 38.9598 156.243 40.4418 156.243 40.4418C156.243 40.4418 156.503 38.9598 156.659 38.4918L159.207 30.4058H163.237L157.933 46.0058H154.657L152.109 38.0238C151.953 37.5558 151.745 36.5678 151.745 36.4898C151.719 36.5938 151.485 37.5818 151.355 38.0238L148.833 46.0058H145.531Z" fill="#DB5311"/>
<path d="M131.154 46.4479C126.37 46.4479 122.496 42.9899 122.496 38.2059C122.496 33.4219 126.37 29.9639 131.154 29.9639C135.912 29.9639 139.76 33.4219 139.76 38.2059C139.76 42.9899 135.912 46.4479 131.154 46.4479ZM131.154 43.1459C133.754 43.1459 135.288 41.1959 135.288 38.2059C135.288 35.2159 133.754 33.2659 131.154 33.2659C128.528 33.2659 126.968 35.2159 126.968 38.2059C126.968 41.1959 128.528 43.1459 131.154 43.1459Z" fill="#DB5311"/>
<path d="M110.656 46.0058V30.4058H114.868V42.8338H121.498V46.0058H110.656Z" fill="#DB5311"/>
<path d="M98.2148 46.0058V30.4058H108.719V33.5778H102.427V36.3858H107.419V39.5318H102.427V46.0058H98.2148Z" fill="#DB5311"/>
<path d="M85.3926 46.0058V30.4058H89.6046V42.8338H96.2346V46.0058H85.3926Z" fill="#08415A"/>
<path d="M71.6309 46.0058V30.4058H82.4729V33.5778H75.8429V36.2038H81.1729V39.3498H75.8429V42.8338H82.4729V46.0058H71.6309Z" fill="#08415A"/>
<path d="M57.8691 46.0058V30.4058H68.7111V33.5778H62.0811V36.2038H67.4111V39.3498H62.0811V42.8338H68.7111V46.0058H57.8691Z" fill="#08415A"/>
<path d="M53.544 46.1878C51.542 46.1878 49.904 45.4598 48.864 42.9898L47.616 39.9998H46.212V46.0058H42V30.4058H49.098C52.894 30.4058 54.532 32.6938 54.532 35.2158C54.532 37.3218 53.388 39.0118 51.438 39.6098L52.634 41.8458C53.258 43.0158 53.882 43.4318 54.896 43.4318C55.234 43.4318 55.468 43.4058 55.806 43.2758V45.8238C55.078 46.0578 54.194 46.1878 53.544 46.1878ZM46.212 37.3218H48.032C49.644 37.3218 50.372 36.5938 50.372 35.2678C50.372 33.9158 49.644 33.1878 48.032 33.1878H46.212V37.3218Z" fill="#08415A"/>
<defs>
<clipPath id="clip0_393_169">
<rect width="56" height="48" fill="white"/>
</clipPath>
</defs>
</svg>
