<svg width="160" height="48" viewBox="0 0 160 48" fill="none" xmlns="http://www.w3.org/2000/svg">
<g clip-path="url(#clip0_1017_1215)">
<path d="M2.72101 27.466H1.34859C1.17251 27.4632 0.997627 27.4956 0.834137 27.5612C0.670647 27.6269 0.521814 27.7246 0.396303 27.8486C0.270791 27.9726 0.171116 28.1204 0.103078 28.2834C0.0350395 28.4464 0 28.6214 0 28.7981C0 28.9749 0.0350395 29.1499 0.103078 29.3129C0.171116 29.4759 0.270791 29.6237 0.396303 29.7477C0.521814 29.8717 0.670647 29.9694 0.834137 30.0351C0.997627 30.1008 1.17251 30.1331 1.34859 30.1303H2.72101C2.8971 30.1331 3.07196 30.1008 3.23547 30.0351C3.39896 29.9694 3.5478 29.8717 3.6733 29.7477C3.79881 29.6237 3.89847 29.4759 3.96651 29.3129C4.03457 29.1499 4.06961 28.9749 4.06961 28.7981C4.06961 28.6214 4.03457 28.4464 3.96651 28.2834C3.89847 28.1204 3.79881 27.9726 3.6733 27.8486C3.5478 27.7246 3.39896 27.6269 3.23547 27.5612C3.07196 27.4956 2.8971 27.4632 2.72101 27.466Z" fill="#F54966"/>
<path d="M12.3933 20.9069H12.3899C12.0494 20.9066 11.7121 20.9738 11.3975 21.1046C11.0829 21.2354 10.7971 21.4272 10.5565 21.6691C10.3159 21.911 10.1252 22.198 9.9954 22.514C9.86555 22.83 9.79915 23.1686 9.79994 23.5103L9.81 27.4663H6.60759C6.43151 27.4635 6.25665 27.4959 6.09315 27.5615C5.92965 27.6272 5.78083 27.7249 5.65533 27.8489C5.52979 27.9729 5.43012 28.1207 5.36207 28.2837C5.29405 28.4467 5.25897 28.6217 5.25897 28.7985C5.25897 28.9752 5.29405 29.1502 5.36207 29.3132C5.43012 29.4762 5.52979 29.624 5.65533 29.748C5.78083 29.872 5.92965 29.9697 6.09315 30.0353C6.25665 30.1011 6.43151 30.1334 6.60759 30.1306H9.81671L9.82677 34.0728C9.8302 34.76 10.1039 35.418 10.5884 35.9037C11.0728 36.3894 11.7287 36.6634 12.4134 36.6661L28.6905 36.69H28.6973C29.916 36.6903 31.0847 36.2049 31.947 35.3406C32.8093 34.4763 33.294 33.3037 33.2952 32.0807C33.2952 29.5378 31.2337 27.4714 28.6973 27.4714H12.467L12.457 23.5726L33.7864 23.5998C36.6594 24.443 39.3233 25.7531 41.705 27.4949C43.1174 28.5295 44.4194 29.7077 45.5908 31.0108C45.7198 31.1536 45.8768 31.2677 46.0528 31.3455C46.228 31.4234 46.4182 31.4633 46.6103 31.4626C46.776 31.4628 46.9401 31.4319 47.0948 31.3714C47.3516 31.2714 47.5726 31.0958 47.7288 30.8678C47.8847 30.6397 47.9687 30.3696 47.9691 30.0929V14.4518C47.9695 14.1745 47.8862 13.9035 47.73 13.6748C47.5734 13.4462 47.3516 13.2705 47.0936 13.1711C46.8356 13.0717 46.5539 13.0532 46.2852 13.1181C46.0161 13.183 45.7735 13.3283 45.5892 13.5346C44.419 14.8379 43.117 16.0156 41.7046 17.0488C39.3216 18.7898 36.6563 20.1031 33.8268 20.9305L12.3933 20.9069ZM28.6973 30.1306C29.081 30.1299 29.4563 30.2436 29.7757 30.4572C30.0951 30.6709 30.344 30.9748 30.491 31.3306C30.638 31.6864 30.6764 32.0779 30.6014 32.4557C30.5263 32.8334 30.3415 33.1803 30.0698 33.4524C29.8906 33.6345 29.6767 33.779 29.4411 33.8772C29.2055 33.9754 28.9527 34.0254 28.6976 34.0243H28.6953L12.4855 34.0008L12.4754 30.1293L28.6973 30.1306ZM45.3107 26.9838C44.6542 26.4038 43.9752 25.8553 43.2721 25.3382C41.6087 24.1221 39.8175 23.0927 37.9308 22.2685C39.8183 21.4454 41.6095 20.4163 43.2721 19.1997C43.9763 18.6836 44.6581 18.1339 45.3107 17.5539V26.9838Z" fill="#F54966"/>
<path d="M61.1515 19.5673V26.0533C61.1515 28.3329 61.4509 29.3913 62.4574 30.314C63.3286 31.1553 64.281 31.4809 65.914 31.4809C66.4308 31.4809 66.8936 31.4538 67.5194 31.3452L67.8457 28.6314C67.3016 28.74 67.0021 28.7942 66.5669 28.7942C65.016 28.7942 64.2538 27.8987 64.2538 26.0805V19.5673H67.4377L67.8729 17.1792H64.2538V13L61.1515 14.4926V17.1792H59.9268L59.4096 19.5673H61.1515ZM72.3975 31.0196V24.9407C72.3975 21.9012 74.0301 19.703 76.3433 19.703C76.4794 19.703 76.5883 19.703 76.8877 19.7302L77.8402 16.7722C77.4318 16.6908 77.2685 16.7179 76.969 16.7179C75.6903 16.7179 74.4929 17.1249 73.7038 17.8034C73.241 18.2376 72.7782 18.9432 72.2614 19.9201V16.8807L69.2952 17.2878V31.4538L72.3975 31.0196ZM88.1468 31.3995L91.1401 31.0196V16.8807L88.0923 17.2878V24.6422C88.0923 25.8091 88.0379 26.1076 87.9018 26.5418C87.4662 27.9258 86.2415 28.8214 84.7995 28.8214C83.5204 28.8214 82.568 28.2244 82.3774 27.166C82.2957 26.8132 82.2957 26.5147 82.2957 25.6462V16.8807L79.2207 17.2878V25.2121C79.2207 26.2704 79.2479 27.0032 79.3296 27.6273C79.6286 30.124 81.3161 31.5895 83.9011 31.5895C85.5341 31.5895 86.6227 31.1281 87.5755 30.0697C87.7929 29.8255 87.9018 29.6898 88.1468 29.337V31.3995ZM97.8008 31.2095V23.2581C97.8008 21.1142 99.0527 19.4317 100.686 19.4317C101.638 19.4317 102.454 19.9744 102.781 20.7343C102.917 21.0057 102.971 21.4127 102.971 21.9826V31.4538L105.965 31.0196V23.6924C105.965 22.0641 106.128 21.4127 106.7 20.6529C107.271 19.893 107.979 19.5131 108.85 19.5131C109.966 19.5131 110.864 20.1644 111.054 21.1142C111.135 21.5213 111.163 22.1998 111.163 22.8511V31.4538L114.211 31.0196V21.5756C114.211 18.509 112.632 16.7179 109.911 16.7179C108.251 16.7179 107.162 17.1792 106.21 18.3461C105.965 18.6447 105.883 18.8075 105.584 19.2146C105.258 18.3461 104.904 17.8305 104.278 17.3963C103.706 16.9893 102.672 16.7179 101.774 16.7179C100.25 16.7179 99.1071 17.2335 98.3453 18.2919C98.1275 18.5904 97.9914 18.7532 97.7467 19.2688V16.9078L94.7802 17.2878V31.4538L97.8008 31.2095ZM120.909 36.3929V29.2013C122.324 30.911 123.848 31.6438 125.835 31.6438C129.836 31.6438 132.911 28.4143 132.911 24.208C132.911 19.9473 129.835 16.745 125.699 16.745C123.604 16.745 122.297 17.4506 120.855 19.2146V16.8264L117.834 17.3421V36.7728L120.909 36.3929ZM125.345 19.5673C127.849 19.5673 129.835 21.6027 129.835 24.208C129.835 26.786 127.849 28.7942 125.345 28.7942C122.842 28.7942 120.855 26.786 120.855 24.208C120.855 21.6027 122.814 19.5673 125.345 19.5673ZM149.526 20.5443C147.539 17.912 145.525 16.7722 142.804 16.7722C138.504 16.7722 135.32 19.9473 135.32 24.208C135.32 28.4143 138.613 31.6166 142.994 31.6166C144.872 31.6166 146.668 30.9924 148.165 29.8255C148.6 29.4998 148.818 29.3099 149.335 28.6857L147.376 26.786C145.988 28.2786 144.681 28.9028 143.048 28.9028C141.525 28.9028 140.409 28.3057 139.456 27.0032L149.526 20.5443ZM138.368 24.9407C138.286 24.425 138.259 24.2622 138.259 23.9094C138.259 21.4127 140.246 19.3502 142.695 19.3502C143.783 19.3502 144.545 19.6216 145.525 20.3815L138.368 24.9407ZM152.117 19.5673V26.0533C152.117 28.3329 152.417 29.3913 153.424 30.314C154.294 31.1553 155.247 31.4809 156.88 31.4809C157.397 31.4809 157.859 31.4538 158.485 31.3452L158.812 28.6314C158.267 28.74 157.968 28.7942 157.533 28.7942C155.982 28.7942 155.22 27.8987 155.22 26.0805V19.5673H158.404L158.839 17.1792H155.22V13L152.117 14.4926V17.1792H150.893L150.376 19.5673H152.117Z" fill="#F54966"/>
</g>
<defs>
<clipPath id="clip0_1017_1215">
<rect width="160" height="48" fill="white"/>
</clipPath>
</defs>
</svg>
