<svg width="152" height="48" viewBox="0 0 152 48" fill="none" xmlns="http://www.w3.org/2000/svg">
<g clip-path="url(#clip0_1028_1023)">
<path d="M49.7966 30.4657C49.9109 31.1524 49.6253 31.7247 48.9398 32.068C47.6259 32.6975 46.3119 32.6975 45.1123 31.9536C44.5982 31.6102 44.3125 30.9807 43.9126 30.4657C43.6841 30.1796 43.5128 29.8362 43.2843 29.5501C42.9986 29.779 42.6559 29.9507 42.4845 30.2368C40.8278 32.2969 38.0286 33.0981 35.5722 32.068C34.2012 31.4958 33.5157 30.3512 33.1729 28.9778C32.6588 26.8032 33.0015 24.5142 32.8873 22.3397C32.8301 21.6529 32.8301 20.9662 32.7159 20.2795C32.6016 19.5928 32.1446 19.2495 31.4591 19.1922C31.0592 19.1922 30.7736 19.135 30.7736 18.5628C30.7736 18.0477 30.8307 17.7616 31.402 17.7044C32.9444 17.4755 34.5439 17.1893 36.0863 16.9604C36.2006 16.9604 36.372 16.9604 36.4862 16.9604C37.4002 16.9604 37.8001 17.361 37.8001 18.2194C37.8001 20.6229 37.743 23.0836 37.8573 25.4871C37.8573 26.3454 38.1429 27.2611 38.4285 28.0622C38.8855 29.1495 39.9138 29.6645 40.9421 29.4929C41.9704 29.3784 42.8844 28.52 43.1129 27.4327C43.2271 26.746 43.3414 26.0021 43.3414 25.3154C43.3985 23.7703 43.3414 22.2252 43.3414 20.7373C43.3414 19.8217 42.8844 19.3639 41.9703 19.2495C41.2848 19.1922 40.9992 18.7344 41.2848 18.105C41.342 17.9905 41.5705 17.8761 41.7418 17.8188C42.9415 17.5899 44.1411 17.4182 45.3408 17.1893C45.8549 17.0749 46.4262 16.9604 46.9403 16.9604C47.9115 16.9032 48.4256 17.4182 48.4256 18.3911C48.4256 20.394 48.4256 22.3969 48.4256 24.3998C48.4256 25.9449 48.4256 27.5472 48.4256 29.0923C48.4827 30.1223 48.7112 30.4085 49.7966 30.4657Z" fill="black"/>
<path d="M57.7372 16.9602C58.9369 16.903 60.2508 17.3036 61.5075 17.7042C62.7643 18.1048 63.1642 19.1348 63.3927 20.2793C63.4498 20.6227 63.4498 21.0233 63.3927 21.3666C63.3356 21.9389 62.9928 22.2822 62.4787 22.3395C61.9645 22.3967 61.5647 22.225 61.279 21.71C60.9363 21.0233 60.6506 20.2793 60.1936 19.6498C59.3367 18.4481 58.0228 18.1048 56.6518 18.3909C55.395 18.6198 54.9951 20.2793 55.9092 21.3094C56.5947 22.1105 57.6229 22.2822 58.537 22.6256C59.5652 22.9689 60.6506 23.3123 61.6218 23.7701C63.507 24.6857 64.421 26.3452 64.0782 28.4054C63.8497 29.7216 63.0499 30.7516 61.8503 31.3811C59.5081 32.6401 56.9946 32.9262 54.4239 32.2395C53.567 32.0106 52.7672 31.61 51.9674 31.2666C51.8532 31.2094 51.7389 31.1522 51.6818 31.095C51.1105 30.5227 50.7678 28.4054 51.0534 27.6614C51.2248 27.2036 51.5104 27.032 51.9674 27.032C52.4245 27.032 52.7101 27.2609 52.9386 27.6614C53.2813 28.3481 53.567 29.0921 54.024 29.7216C54.9951 31.0377 57.2231 31.4956 58.6512 30.7516C59.3367 30.4083 59.5652 29.7788 59.5652 29.1493C59.5652 28.577 59.2225 28.1192 58.5941 27.8903C57.5658 27.4898 56.5376 27.2036 55.4522 26.803C54.1382 26.3452 52.8815 25.7158 51.9103 24.5712C50.3679 22.7973 50.5964 19.5354 52.9386 18.162C54.3667 17.2464 55.9092 16.903 57.7372 16.9602Z" fill="black"/>
<path d="M18.7771 32.2968C17.3489 32.2968 15.9208 32.2968 14.4926 32.2968C14.207 32.2968 13.9785 32.2396 14.0356 31.8962C14.0927 31.5529 13.8642 31.0378 14.3784 30.9806C15.9779 30.8089 16.1493 29.9506 16.2064 28.5199C16.2635 26.0592 16.2064 23.5413 16.2064 21.0806C16.2064 20.7945 16.1493 20.5656 16.035 20.2794C15.8065 19.4783 15.5209 19.2494 14.664 19.1921C14.3212 19.1921 14.0356 19.1349 14.0356 18.7343C14.0356 18.3338 13.9214 17.876 14.6069 17.8187C16.2064 17.5898 17.8059 17.3037 19.4055 17.0176C19.634 16.9603 19.8625 16.9603 20.091 17.0176C20.6623 17.0748 21.0621 17.4181 21.0621 18.0476C21.0621 18.1621 21.0621 18.2765 21.0621 18.3338C21.1764 18.6199 21.2906 18.906 21.4049 19.1921C21.6905 19.0777 21.9762 19.0205 22.2047 18.7916C23.1187 17.8187 24.2041 17.132 25.518 16.9031C27.1746 16.5598 29.0598 17.4754 29.7453 18.9632C30.2023 19.9361 30.031 21.5384 29.3454 22.2251C28.4886 23.0835 27.4603 23.1979 26.3178 22.7974C25.5751 22.5685 25.0038 21.8245 25.0038 21.0234C25.0038 20.3939 24.8896 19.7644 24.2041 19.4783C23.4614 19.1921 22.7759 19.5355 22.2618 20.1078C21.6334 20.7945 21.2906 21.6528 21.2335 22.5685C21.1193 24.4569 21.0621 26.2881 21.005 28.1766C21.005 28.7488 21.0621 29.3211 21.2335 29.8933C21.4049 30.58 21.9762 30.8089 22.6617 30.9234C23.2329 31.0378 23.5757 31.6101 23.2901 32.1251C23.2329 32.2396 22.9473 32.2968 22.7759 32.2968C21.5191 32.2968 20.1481 32.2968 18.7771 32.2968Z" fill="black"/>
<path d="M3.52437 23.9417C3.52437 22.5683 3.52437 21.2521 3.52437 19.8786C3.52437 19.0775 3.23874 18.8486 2.4961 18.7914C2.21047 18.7914 1.86771 18.7914 1.58208 18.7914C1.29645 18.7914 1.01082 18.8486 1.01082 18.3908C1.01082 18.0474 0.896565 17.7041 1.4107 17.5896C3.52437 17.0746 5.18103 15.8156 6.26643 13.9272C6.60919 13.4121 7.75172 13.126 8.20873 13.5266C8.3801 13.6983 8.55148 13.9844 8.55148 14.2705C8.60861 14.9 8.60861 15.5867 8.55148 16.2734C8.55148 16.7312 8.72286 16.9601 9.12275 17.0746C9.35125 17.1318 9.63688 17.189 9.86539 17.189C10.608 17.189 11.4078 17.2463 12.1504 17.189C12.6646 17.189 12.7788 17.3607 12.7788 17.8185C12.7217 19.0775 12.8931 18.963 11.6363 18.8486C11.0079 18.7914 10.3795 18.7914 9.69401 18.7914C8.89424 18.7914 8.55148 19.1919 8.55148 19.9359C8.55148 22.6827 8.55148 25.4295 8.55148 28.1764C8.55148 30.6371 9.97964 30.6371 11.4649 30.0648C12.0362 29.8359 12.4361 29.9504 12.5503 30.5798C12.6074 30.6943 12.4361 30.9804 12.3218 31.0949C11.3507 32.0105 10.151 32.2966 8.83712 32.3538C7.69459 32.4111 6.60919 32.2966 5.63804 31.7244C4.55264 31.1521 3.86713 30.2365 3.69575 29.0347C3.5815 28.1764 3.52437 27.318 3.46725 26.4596C3.46725 25.6584 3.52437 24.8001 3.52437 23.9417Z" fill="black"/>
<path d="M72.0188 24.3422C72.0188 25.7157 72.0188 27.0319 72.0188 28.4053C72.0188 28.8058 72.133 29.1492 72.2473 29.5498C72.4758 30.1793 72.8757 30.5226 73.5612 30.4654C74.0753 30.4082 74.5894 30.2937 75.0465 30.122C75.5035 29.9504 75.6749 30.1793 75.9034 30.4654C76.1319 30.7515 76.1319 30.9804 75.8462 31.2665C74.6466 32.2966 73.2184 32.5827 71.676 32.5255C70.4764 32.4683 69.3338 32.2394 68.4198 31.381C67.3915 30.4654 66.9917 29.2636 66.9917 27.9475C66.9345 25.3151 66.9917 22.6827 66.9917 20.1076C66.9917 19.0775 66.8203 18.8486 65.7349 18.8486C65.5064 18.8486 65.335 18.8486 65.1065 18.8486C64.8208 18.8486 64.4781 18.963 64.4781 18.5052C64.4781 18.1619 64.421 17.8185 64.9351 17.6468C67.0488 17.1318 68.6483 15.8729 69.7908 14.0416C70.1336 13.4694 71.2761 13.2404 71.7331 13.641C71.9616 13.8127 72.0759 14.1561 72.0759 14.4422C72.133 15.0717 72.133 15.7012 72.0759 16.3307C72.0188 16.9029 72.3044 17.189 72.8185 17.2463C73.5612 17.3035 74.3038 17.3035 75.1036 17.3607C76.4175 17.3607 76.4175 17.3607 76.3032 18.6769C76.3032 19.0203 76.1319 19.1347 75.7891 19.1347C74.9893 19.0775 74.1896 19.0203 73.3327 19.0203C72.4186 19.0203 72.0759 19.3636 72.0759 20.2792C72.0188 21.481 72.0188 22.9116 72.0188 24.3422Z" fill="black"/>
<path fill-rule="evenodd" clip-rule="evenodd" d="M81.4073 43C81.293 43 81.1788 43 81.0645 42.9428C80.6647 42.8283 80.2648 42.485 80.379 41.6266L80.4361 41.0543C80.5504 40.0815 80.6647 39.1087 80.836 38.1358C80.9884 37.3728 81.1915 36.6098 81.3946 35.8468C81.4962 35.4653 81.5977 35.0838 81.6929 34.7023L81.9214 33.7867C82.1499 32.9855 82.3784 32.1844 82.6069 31.326L82.8354 30.4676C82.6641 30.4104 82.4927 30.3531 82.2642 30.2387C81.5787 30.0098 81.1217 29.552 80.836 29.0369C80.6075 28.4647 80.6075 27.778 80.9503 27.1485C81.5215 25.9468 82.3213 24.8595 83.5781 23.6577L83.9209 23.3144C84.2065 23.0283 84.4921 22.7421 84.8349 22.456C85.7489 21.7693 86.1488 20.7965 86.4915 19.7092L86.9485 18.5074C87.9768 15.7034 89.0622 12.7849 90.8903 10.2097L91.0045 10.038C91.1759 9.75191 91.4044 9.46578 91.69 9.2941C91.9757 9.0652 92.4898 8.95075 92.8897 9.12243C93.2324 9.23688 93.6323 9.80914 93.5752 10.2097C93.3928 11.0774 93.1377 11.9815 92.897 12.8348L92.8966 12.836C92.8358 13.0516 92.7759 13.2639 92.7183 13.4716V13.586C92.63 13.9397 92.4736 14.4984 91.9591 14.7341C91.8077 14.8036 91.6253 14.845 91.4044 14.845C91.433 14.845 91.4187 14.8593 91.3972 14.8808C91.3824 14.8957 91.364 14.9141 91.3542 14.9335C91.3499 14.942 91.3473 14.9507 91.3473 14.9594C91.0902 15.5603 90.8189 16.1755 90.5475 16.7907C90.2762 17.4058 90.0048 18.021 89.7477 18.6219C89.7763 18.5933 89.8049 18.579 89.8334 18.5647C89.862 18.5503 89.8905 18.536 89.9191 18.5074C90.2333 18.3358 90.5332 18.1498 90.8331 17.9638C91.133 17.7778 91.433 17.5918 91.7472 17.4201C92.3202 17.0889 92.8933 16.7492 93.4697 16.4076C94.3871 15.8637 95.3128 15.315 96.2601 14.7878C96.9456 14.4444 97.6883 14.2155 98.4309 13.9866L98.7737 13.8722C99.5163 13.6433 100.259 13.8722 100.887 14.4444C101.573 15.0739 101.23 15.5889 101.059 15.8178C101.031 15.8455 101.002 15.8773 100.97 15.9115C100.855 16.0368 100.711 16.1938 100.512 16.2931C100.317 16.391 100.069 16.4328 99.7448 16.3329C99.4021 16.2756 99.0593 16.2756 98.7737 16.3901C97.5272 16.9532 96.333 17.6211 95.1731 18.3399C93.8623 19.1523 92.5955 20.0299 91.3467 20.8948L91.144 21.0352C90.983 21.1467 90.8223 21.2579 90.6617 21.3687C90.4932 21.4869 90.3296 21.6051 90.168 21.7218L90.0573 21.8018C89.7618 22.015 89.4709 22.2221 89.1664 22.4139C89.1131 22.4475 89.0593 22.4806 89.0051 22.5132C88.9046 22.5819 88.8088 22.6527 88.7175 22.7257C87.6661 23.5656 87.1931 24.6923 86.72 26.0612L86.2059 27.4346L86.1488 27.8352H86.5487C86.8342 27.8066 87.1201 27.7923 87.4057 27.778C87.6913 27.7637 87.9769 27.7494 88.2624 27.7208C88.8337 27.6635 89.405 27.592 89.9762 27.5205C90.5475 27.4489 91.1188 27.3774 91.69 27.3202C93.5181 27.0913 95.4032 26.8624 97.2313 26.6907C97.9168 26.6335 98.6023 26.6335 99.2878 26.6335H99.802C99.802 26.6335 99.802 26.5762 99.7448 26.5762C99.3449 25.7179 99.5734 24.8595 100.259 24.4589C100.741 24.1908 100.972 23.772 101.234 23.2966C101.251 23.2646 101.269 23.2324 101.287 23.1999C101.301 23.173 101.314 23.1426 101.328 23.1108C101.375 23.0076 101.428 22.8868 101.516 22.7993L101.63 22.6277C102.316 21.3115 103.058 19.9953 103.915 18.7936C104.658 17.7063 105.8 17.1912 107.057 17.2485C107.685 17.2485 108.2 17.5346 108.599 17.9924C108.999 18.5074 109.171 19.1941 109.056 19.8808C108.714 22.1126 107.685 23.8866 106.029 25.2028C105.407 25.7299 104.705 26.177 104.023 26.6108C103.891 26.695 103.759 26.7787 103.629 26.8624L103.287 27.0913C102.944 27.3202 102.83 27.4919 102.773 27.8352C102.658 29.1514 103.001 30.1815 103.744 30.8109C104.486 31.4404 105.572 31.5549 106.886 31.1543C108.356 30.7011 109.323 29.6308 110.395 28.4434L110.427 28.4075L110.827 27.9497C111.341 27.3774 111.513 26.6335 111.684 25.8895C111.709 25.8029 111.734 25.7135 111.759 25.622C111.851 25.291 111.95 24.9318 112.084 24.5733C112.541 23.4861 112.998 22.3988 113.512 21.3115L114.026 20.1097C114.055 20.0811 114.069 20.0525 114.084 20.0239C114.098 19.9953 114.112 19.9667 114.141 19.9381C114.369 19.5947 115.112 18.6219 116.083 19.0797C116.654 19.3086 116.94 20.167 116.711 21.1398C116.711 21.2069 116.692 21.2739 116.675 21.3294C116.664 21.3687 116.654 21.4022 116.654 21.4259C116.654 21.5118 116.64 21.5976 116.626 21.6835C116.611 21.7693 116.597 21.8551 116.597 21.941L116.54 22.0554L116.532 22.085C116.417 22.4888 116.232 23.1399 115.34 23.0283C115.34 23.0283 115.283 23.1427 115.226 23.1427C115.169 23.343 115.098 23.5433 115.026 23.7436C114.955 23.9439 114.883 24.1442 114.826 24.3444C114.712 24.7019 114.594 25.0594 114.476 25.4168C114.123 26.4898 113.769 27.5634 113.512 28.6364C113.341 29.4375 113.398 30.3531 113.455 31.2115V31.3832C113.455 31.6693 113.569 31.8982 113.741 32.0127C113.969 32.1844 114.312 32.1271 114.598 32.0699C115.626 31.7838 116.597 31.2687 117.397 30.4676C118.111 29.7812 118.825 29.066 119.538 28.3511L119.539 28.3501C120.253 27.6348 120.967 26.9195 121.681 26.2329L121.967 25.9468C122.522 25.3907 122.7 24.6184 122.866 23.8926L122.881 23.8294C123.066 22.9965 123.325 22.1262 123.569 21.3092C123.626 21.1158 123.683 20.9254 123.738 20.7392C123.795 20.5389 123.852 20.353 123.909 20.167C123.966 19.981 124.023 19.795 124.081 19.5947C124.166 19.3089 124.252 19.0373 124.337 18.7657L124.338 18.7642C124.424 18.4926 124.509 18.221 124.595 17.9352L124.709 17.5918L124.366 17.649C123.78 17.7557 123.294 17.8624 122.814 18.0155C122.779 18.0266 122.744 18.038 122.71 18.0496C122.409 18.1164 122.109 18.2028 121.82 18.2858C121.615 18.345 121.414 18.4026 121.224 18.4502C120.992 18.5188 120.759 18.584 120.526 18.6468C119.788 18.846 119.049 19.0201 118.311 19.1941C118.218 19.2097 118.124 19.221 118.029 19.2285C117.426 19.2765 116.798 19.1709 116.254 19.0225C115.912 18.9652 115.683 18.7363 115.626 18.4502C115.569 18.1641 115.626 17.8207 115.912 17.5918C116.254 17.2485 116.597 16.9051 117.054 16.6762C117.511 16.4473 118.025 16.3329 118.539 16.2184L118.939 16.104C119.282 15.9895 119.91 15.8178 120.196 16.5618C120.213 16.5618 120.236 16.567 120.26 16.5727C120.317 16.5859 120.385 16.6017 120.425 16.5618C120.655 16.5063 120.894 16.4493 121.138 16.3908L121.141 16.39C122.409 16.0868 123.845 15.7435 125.28 15.36C125.395 15.3028 125.623 15.1311 125.68 14.9594C126.031 14.2559 126.349 13.5185 126.658 12.7993L126.659 12.7987L126.66 12.7959C126.753 12.5803 126.845 12.3663 126.937 12.1554C127.565 10.7247 128.194 9.2941 128.879 7.86346C129.165 7.2912 129.565 6.77618 129.965 6.26115C130.05 6.14682 130.122 6.04676 130.193 5.94673C130.265 5.84669 130.336 5.74599 130.422 5.63166C130.879 5.00218 131.507 4.8305 132.021 5.17386C132.421 5.40276 132.764 5.91779 132.821 6.43282C132.978 7.43055 132.654 8.28371 132.335 9.12497C132.306 9.20018 132.278 9.27621 132.25 9.35133L131.907 10.2097L131.45 11.5259C131.336 11.8979 131.207 12.2555 131.079 12.6132C130.95 12.9708 130.822 13.3285 130.707 13.7005C130.707 13.7577 130.707 13.8722 130.65 13.9866L130.936 13.9294C131.164 13.9008 131.378 13.8579 131.593 13.8149C131.807 13.772 132.021 13.7291 132.25 13.7005C132.707 13.586 133.164 13.4716 133.564 13.3571C134.478 13.1282 135.449 12.8993 136.363 12.7849C137.334 12.6704 137.62 12.2126 137.962 11.2398C138.019 11.0967 138.062 10.9536 138.105 10.8106C138.148 10.6675 138.191 10.5245 138.248 10.3814C138.419 9.80913 138.591 9.2941 138.819 8.72184C138.933 8.43572 139.105 8.14959 139.333 7.92069C139.562 7.63456 140.076 7.11953 140.761 7.52011C141.276 7.80624 141.39 8.32126 141.161 9.00797C141.104 9.17965 141.047 9.33702 140.99 9.49439C140.933 9.65176 140.876 9.80913 140.819 9.98081C140.79 10.0667 140.747 10.1668 140.704 10.2669C140.662 10.3671 140.619 10.4672 140.59 10.5531L140.533 10.6675L140.19 11.6976C140.133 11.812 140.133 11.8693 140.133 11.9265H140.362C141.542 11.7526 142.722 11.5999 143.838 11.4555C144.559 11.3622 145.253 11.2724 145.903 11.1825C146.417 11.1253 146.988 11.0681 147.731 11.0681C147.911 11.0681 148.056 11.175 148.193 11.2763C148.23 11.3034 148.266 11.3301 148.302 11.3542C148.331 11.3828 148.359 11.3972 148.388 11.4114C148.416 11.4258 148.445 11.4401 148.474 11.4687L148.759 11.6404L148.531 11.9265C148.502 11.9551 148.488 11.9837 148.474 12.0123C148.459 12.0409 148.445 12.0695 148.416 12.0982C148.302 12.2698 148.188 12.4415 148.017 12.556C147.845 12.6704 147.674 12.7276 147.502 12.7276H147.388L145.56 13.0138C144.618 13.1568 143.647 13.2999 142.676 13.4429L142.675 13.443C141.704 13.5861 140.733 13.7291 139.79 13.8722C139.733 13.8722 139.505 14.1011 139.448 14.2727C139.273 14.862 139.091 15.4512 138.906 16.0468C138.607 17.0126 138.302 17.9961 138.019 19.0225C137.677 20.2242 137.334 21.5404 137.048 22.7993C136.877 23.6577 136.706 24.5733 136.591 25.4317L136.42 26.4618C136.391 26.6049 136.363 26.7622 136.334 26.9196C136.306 27.077 136.277 27.2343 136.249 27.3774C136.363 27.2343 136.463 27.1056 136.563 26.9768C136.663 26.8481 136.763 26.7193 136.877 26.5762C137.62 25.4892 138.362 24.4014 139.105 23.2572C139.362 22.8852 139.605 22.5131 139.848 22.1411C140.09 21.7692 140.333 21.3973 140.59 21.0254C140.629 20.9734 140.668 20.9186 140.707 20.8628C140.842 20.6725 140.985 20.4714 141.161 20.3387C141.504 19.9953 142.133 19.3658 142.989 19.7092C143.675 19.9381 144.018 20.5676 144.075 21.4832V23.1427C144.075 23.8294 144.075 24.5161 144.132 25.1456C144.246 27.3202 144.875 29.0369 145.96 30.4676C146.417 31.0971 147.102 31.4977 147.731 31.4977C148.302 31.4977 148.816 31.2687 149.273 30.8109C149.559 30.5248 149.845 30.2959 150.187 30.067C150.244 30.0098 150.316 29.9669 150.387 29.9239C150.459 29.881 150.53 29.8381 150.587 29.7809L150.759 29.6664L151.273 30.067V30.2387V30.4104C151.273 30.582 151.273 30.8109 151.101 30.9826C150.187 32.2988 148.988 33.0427 147.788 33.1C146.645 33.1572 145.56 32.6994 144.646 31.6693C143.561 30.5248 142.875 29.0942 142.532 27.3774C142.304 26.2901 142.133 25.1456 142.018 24.0011L142.005 23.9236L141.997 23.8727C141.948 23.5841 141.904 23.328 141.904 23.0283C141.847 23.0855 141.79 23.1427 141.79 23.1999L140.419 25.2601C139.733 26.3473 138.991 27.4346 138.248 28.5219C137.791 29.2086 137.22 29.9526 136.477 30.5248C136.02 30.9254 135.449 30.9826 134.992 30.8109C134.478 30.582 134.192 30.067 134.135 29.4375C134.021 27.6063 134.135 25.8323 134.592 24.1728C134.741 23.6265 134.846 23.037 134.946 22.4793C134.962 22.3944 134.977 22.3102 134.992 22.2271C134.877 22.3988 134.763 22.5705 134.706 22.7421L133.621 24.5161C133.166 25.2537 132.711 25.9996 132.253 26.7505C131.503 27.9802 130.745 29.2243 129.965 30.4676C129.508 31.1543 128.936 31.7838 128.365 32.4133L128.137 32.6422C127.794 32.9855 127.394 33.3289 126.88 33.615C125.966 34.13 125.166 34.2445 124.423 33.9583C123.681 33.6722 123.109 32.9283 122.824 31.8982C122.595 31.0398 122.538 30.1815 122.538 29.3231C122.538 28.9797 122.538 28.6364 122.481 28.293V27.8352L122.253 28.1213L122.097 28.2931C121.587 28.8553 121.12 29.3703 120.653 29.8381C119.339 31.2687 117.682 32.8711 115.569 33.8439C114.598 34.3017 113.627 34.3017 112.884 33.9011C112.084 33.4433 111.57 32.5849 111.456 31.4977L111.438 31.3778C111.388 31.0265 111.341 30.7075 111.341 30.2959V30.2387L111.227 30.3531C109.856 31.841 108.428 32.7566 106.886 33.1572C105.229 33.615 103.629 33.3861 102.373 32.4133C101.173 31.4976 100.43 30.1242 100.373 28.6364C100.373 28.293 100.373 28.293 100.03 28.293C97.6883 28.1786 95.4032 28.5791 93.2324 28.9797C92.6897 29.0656 92.1327 29.1514 91.5758 29.2372C91.0188 29.3231 90.4618 29.4089 89.9191 29.4948C89.2087 29.6185 88.4981 29.7256 87.7787 29.834C87.1676 29.926 86.5499 30.0191 85.9203 30.1242C85.6918 30.1815 85.4633 30.3531 85.4061 30.4676C84.8349 31.841 84.3207 33.2716 83.8066 34.7595C83.4067 35.9612 83.0068 37.2774 82.6069 38.7081C82.4356 39.2231 82.3213 39.7954 82.2642 40.3676V40.4248C82.3023 40.3867 82.334 40.3486 82.3657 40.3104C82.4292 40.2341 82.4927 40.1578 82.6069 40.0815C82.8355 39.9098 83.1211 39.7381 83.4067 39.6237L83.7495 39.452L84.4921 39.0514L84.2065 39.8526C84.1779 39.9098 84.1636 39.967 84.1494 40.0243C84.1351 40.0815 84.1208 40.1387 84.0922 40.1959C84.058 40.2816 84.0289 40.3673 84.0004 40.4514C83.9335 40.6483 83.8695 40.8367 83.7495 40.9971C83.5781 41.2832 83.3496 41.5694 83.1211 41.7983C83.064 41.8555 83.0068 41.927 82.9497 41.9985C82.8926 42.0701 82.8355 42.1416 82.7783 42.1988C82.6661 42.2831 82.5608 42.3743 82.4573 42.464C82.1392 42.7394 81.8383 43 81.4073 43ZM106.6 19.3658C106.714 19.3086 106.943 19.2514 107.057 19.2514C107.114 19.2514 107.114 19.2514 107.171 19.3086C107.228 19.3658 107.285 19.6519 107.228 19.9381C107.057 21.1398 106.371 22.2271 105 23.3144C104.601 23.6577 104.201 23.9439 103.744 24.23C103.715 24.23 103.701 24.2443 103.687 24.2586C103.672 24.2729 103.658 24.2872 103.629 24.2872C104.144 22.7994 104.715 21.2543 105.743 20.0525C105.972 19.7664 106.314 19.5375 106.6 19.3658ZM128.879 16.5045C128.594 16.5045 127.851 16.8479 127.737 17.0768C127.68 17.2199 127.637 17.3486 127.594 17.4774C127.551 17.6061 127.508 17.7349 127.451 17.8779C127.31 18.2068 127.208 18.5743 127.113 18.917C127.092 18.9917 127.072 19.0652 127.051 19.1369L126.766 19.9953C126.566 20.652 126.367 21.3229 126.167 21.9938L126.166 21.9959V21.9982L126.165 22.0003C125.965 22.6719 125.766 23.3437 125.566 24.0011C125.542 24.0969 125.518 24.1923 125.494 24.2874C125.234 25.3273 124.985 26.3191 124.88 27.2629C124.766 28.4647 124.766 29.7809 124.823 31.2115C124.823 31.4977 124.938 31.7266 125.052 31.7838C125.166 31.841 125.452 31.7838 125.737 31.6121C126.194 31.326 126.823 30.8682 127.28 30.3531C128.022 29.4948 128.765 28.5219 129.508 27.3774C131.964 23.8294 133.849 19.9381 135.563 16.2756L136.42 14.6733C136.334 14.7019 136.249 14.7162 136.163 14.7305C136.077 14.7449 135.991 14.7592 135.906 14.7878C135.592 14.8736 135.263 14.9594 134.935 15.0453C134.606 15.1311 134.278 15.217 133.963 15.3028C133.506 15.4172 133.035 15.5317 132.564 15.6461C132.093 15.7606 131.621 15.8751 131.164 15.9895L130.993 16.0467C130.479 16.1612 130.307 16.2184 130.364 16.619C130.364 16.8479 130.193 17.0196 130.022 17.134C130 17.1559 129.978 17.1694 129.959 17.1809C129.929 17.1996 129.907 17.2131 129.907 17.2485L129.679 17.4774L129.336 17.134L129.051 16.8479C129.032 16.8097 129.013 16.7779 128.993 16.7461C128.955 16.6826 128.917 16.619 128.879 16.5045ZM128.651 14.5589L129.336 13.0138C129.279 13.5288 129.222 13.9866 129.051 14.3872C129.051 14.5016 128.936 14.5589 128.651 14.5589Z" fill="black"/>
<path d="M118.005 11.6377C118.234 11.8666 118.52 11.981 118.805 11.981H118.919C119.205 11.9238 120.062 11.8093 120.062 10.8365C120.062 10.0926 119.548 9.63477 118.862 9.63477C118.12 9.63477 117.548 10.0926 117.548 10.7221C117.548 11.0654 117.72 11.4088 118.005 11.6377Z" fill="black"/>
</g>
<defs>
<clipPath id="clip0_1028_1023">
<rect width="152" height="48" fill="white"/>
</clipPath>
</defs>
</svg>
