<svg width="48" height="48" viewBox="0 0 48 48" fill="none" xmlns="http://www.w3.org/2000/svg">
<path d="M12 36L12.1766 35.4702C13.0566 32.8301 13.4966 31.5101 14.5442 30.755C15.5917 30 16.9832 30 19.7661 30H20.2339C23.0168 30 24.4083 30 25.4558 30.755C26.5034 31.5101 26.9434 32.8301 27.8234 35.4702L28 36" stroke="#F99E00" stroke-width="1.5"/>
<path d="M30.2426 13.7574C32 15.5147 32 18.3431 32 24C32 29.6569 32 32.4853 30.2426 34.2426C28.4853 36 25.6569 36 20 36C14.3431 36 11.5147 36 9.75736 34.2426C8 32.4853 8 29.6569 8 24C8 18.3431 8 15.5147 9.75736 13.7574C11.5147 12 14.3431 12 20 12C25.6569 12 28.4853 12 30.2426 13.7574Z" stroke="#1F0A38" stroke-width="1.5"/>
<path d="M32 20L34.2111 18.8944C36.8057 17.5972 38.1029 16.9485 39.0515 17.5348C40 18.121 40 19.5714 40 22.4721V24V25.5279C40 28.4286 40 29.879 39.0515 30.4652C38.1029 31.0515 36.8057 30.4028 34.2111 29.1056L32 28" stroke="#1F0A38" stroke-width="1.5" stroke-linecap="round" stroke-linejoin="round"/>
<circle cx="20" cy="22" r="4" stroke="#F99E00" stroke-width="1.5"/>
</svg>
