<svg width="166" height="48" viewBox="0 0 166 48" fill="none" xmlns="http://www.w3.org/2000/svg">
<g clip-path="url(#clip0_1017_1235)">
<path d="M17.1313 31.6226H13.8525L11.2169 23.8498L8.58089 31.6226H5.32466L0.830875 15.8555H5.02735L7.15912 24.1825L9.79617 15.8555H12.639L15.2743 24.1825L17.4075 15.8555H21.6034L17.1313 31.6226Z" fill="#2C2D31"/>
<path d="M27.0127 21.8346L25.5449 26.0421H28.3874L27.0127 21.8346ZM30.1996 31.6226L29.4418 29.2749H24.4219L23.6194 31.6226H19.4236L25.3622 15.8555H28.4575L34.3953 31.6226H30.1996Z" fill="#2C2D31"/>
<path d="M40.1259 31.7544C37.6275 31.7544 35.5851 31.3116 33.9338 29.6729L36.5031 27.1923C37.351 28.0121 38.842 28.2999 40.149 28.2999C41.7294 28.2999 42.4872 27.7911 42.4872 26.8826C42.4872 26.5055 42.3964 26.1962 42.1668 25.953C41.9588 25.7529 41.6163 25.5981 41.0895 25.5311L39.1163 25.2663C37.6715 25.0663 36.5724 24.6013 35.8386 23.8707C35.082 23.118 34.7157 22.0549 34.7157 20.7034C34.7157 17.8247 36.962 15.7217 40.6765 15.7217C43.0155 15.7217 44.7807 16.2527 46.1793 17.6038L43.6572 20.0399C42.6243 19.043 41.2719 19.11 40.5618 19.11C39.1631 19.11 38.5896 19.8845 38.5896 20.571C38.5896 20.7704 38.6596 21.0583 38.9106 21.3021C39.1163 21.5008 39.4605 21.7011 40.0343 21.7673L42.0066 22.0327C43.4745 22.2321 44.5281 22.6755 45.2174 23.339C46.0863 24.1587 46.4303 25.3328 46.4303 26.7935C46.4303 30.0049 43.5661 31.7544 40.1259 31.7544Z" fill="#2C2D31"/>
<path d="M54.7515 19.309V31.6216H50.7405V19.309H46.728V15.8545H58.7656V19.309H54.7515Z" fill="#2C2D31"/>
<path d="M59.9567 31.6216V15.8545H71.0516V19.309H63.9683V21.9446H70.0217V25.3991H63.9683V28.1671H71.0516V31.6216H59.9567Z" fill="#2C2D31"/>
<path d="M149.63 31.7544C147.177 31.7544 145.572 31.1565 144.034 29.6729L145.229 28.5209C146.579 29.8277 147.842 30.249 149.675 30.249C152.059 30.249 153.529 29.1634 153.529 27.3253C153.529 26.5055 153.275 25.7976 152.747 25.3543C152.221 24.9114 151.808 24.7785 150.617 24.6013L148.713 24.3136C147.429 24.1139 146.42 23.7161 145.708 23.118C144.883 22.409 144.472 21.4346 144.472 20.1723C144.472 17.4928 146.465 15.7217 149.699 15.7217C151.785 15.7217 153.16 16.2305 154.56 17.4488L153.437 18.5334C152.427 17.6475 151.35 17.1827 149.63 17.1827C147.452 17.1827 146.191 18.3565 146.191 20.1061C146.191 20.8811 146.42 21.5008 146.924 21.9227C147.429 22.3428 148.278 22.6524 149.125 22.7855L150.913 23.051C152.45 23.2728 153.206 23.5823 153.896 24.1587C154.789 24.8892 155.269 25.9746 155.269 27.2816C155.269 30.0493 153.023 31.7544 149.63 31.7544ZM136.494 31.7544C134.887 31.7544 133.421 31.1789 132.319 30.1158C130.786 28.6319 130.786 27.0821 130.786 23.7376C130.786 20.394 130.786 18.8438 132.319 17.3598C133.421 16.2975 134.887 15.7217 136.494 15.7217C139.428 15.7217 141.606 17.4488 142.156 20.4162H140.367C139.932 18.4897 138.534 17.2274 136.494 17.2274C135.414 17.2274 134.384 17.626 133.672 18.3343C132.641 19.3531 132.525 20.4378 132.525 23.7376C132.525 27.0374 132.641 28.123 133.672 29.1414C134.384 29.8501 135.414 30.249 136.494 30.249C138.534 30.249 139.978 28.9865 140.414 27.0598H142.156C141.628 30.0273 139.405 31.7544 136.494 31.7544ZM125.511 15.8541H127.254V31.6213H125.511V15.8541ZM120.631 29.9386C119.484 31.135 117.946 31.7544 116.272 31.7544C114.667 31.7544 113.199 31.1789 112.099 30.1158C110.563 28.6319 110.563 27.0821 110.563 23.7376C110.563 20.394 110.563 18.8438 112.099 17.3598C113.199 16.2975 114.645 15.7217 116.272 15.7217C119.392 15.7217 121.501 17.67 121.981 20.4378H120.238C119.779 18.445 118.314 17.2274 116.272 17.2274C115.195 17.2274 114.162 17.6475 113.453 18.3565C112.421 19.3749 112.304 20.4378 112.304 23.7376C112.304 27.0374 112.421 28.123 113.453 29.1414C114.162 29.8501 115.195 30.249 116.272 30.249C117.464 30.249 118.611 29.7831 119.367 28.898C120.032 28.123 120.285 27.2585 120.285 26.0407V24.8451H116.272V23.3613H122.028V25.8636C122.028 27.6802 121.636 28.898 120.631 29.9386ZM104.765 18.3565C104.053 17.6475 103.021 17.2274 101.943 17.2274C100.866 17.2274 99.8353 17.6475 99.1246 18.3565C98.0909 19.3749 97.9761 20.4378 97.9761 23.7376C97.9761 27.0374 98.0909 28.1005 99.1246 29.1196C99.8353 29.8277 100.866 30.249 101.943 30.249C103.021 30.249 104.053 29.8277 104.765 29.1196C105.796 28.1005 105.91 27.0374 105.91 23.7376C105.91 20.4378 105.796 19.3749 104.765 18.3565ZM106.116 30.1158C105.016 31.1789 103.571 31.7544 101.943 31.7544C100.316 31.7544 98.8714 31.1789 97.7707 30.1158C96.2343 28.6319 96.2343 27.0821 96.2343 23.7376C96.2343 20.394 96.2343 18.8438 97.7707 17.3598C98.8714 16.2975 100.316 15.7217 101.943 15.7217C103.571 15.7217 105.016 16.2975 106.116 17.3598C107.654 18.8438 107.654 20.394 107.654 23.7376C107.654 27.0821 107.654 28.6319 106.116 30.1158ZM85.1192 31.6213V15.8541H86.8621V30.1158H95.2072V31.6213H85.1192Z" fill="#8F93A0"/>
<path d="M163.376 33.6858C162.601 34.9741 161.392 36.0531 160.337 37.0715L156.926 33.7763C157.701 33.0273 158.105 32.6976 158.693 31.7691C159.003 31.2596 159.189 30.4213 159.189 29.1934V17.9892C159.189 16.7613 159.003 15.9221 158.693 15.4132C158.105 14.4843 157.701 14.1551 156.926 13.406L160.337 10.1113C161.392 11.1297 162.601 12.2085 163.376 13.4959C164.183 14.7842 164.276 16.3417 164.276 17.8093V29.3728C164.276 30.8399 164.183 32.3982 163.376 33.6858ZM78.6019 37.0715C77.5466 36.0531 76.3382 34.9741 75.5617 33.6858C74.7548 32.3982 74.6637 30.8399 74.6637 29.3728V17.8093C74.6637 16.3417 74.7548 14.7842 75.5617 13.4959C76.3382 12.2085 77.5466 11.1297 78.6019 10.1113L82.0137 13.406C81.2371 14.1551 80.8349 14.4843 80.2462 15.4132C79.9356 15.9221 79.7485 16.7613 79.7485 17.9892V29.1934C79.7485 30.4213 79.9356 31.2596 80.2462 31.7691C80.8349 32.6976 81.2371 33.0273 82.0137 33.7763L78.6019 37.0715Z" fill="#FFAE42"/>
</g>
<defs>
<clipPath id="clip0_1017_1235">
<rect width="166" height="48" fill="white"/>
</clipPath>
</defs>
</svg>
