<svg width="48" height="48" viewBox="0 0 48 48" fill="none" xmlns="http://www.w3.org/2000/svg">
<path d="M26 34H22C16.3431 34 13.5147 34 11.7574 32.2426C10 30.4853 10 27.6569 10 22C10 16.3431 10 13.5147 11.7574 11.7574C13.5147 10 16.3431 10 22 10H26C31.6569 10 34.4853 10 36.2426 11.7574C38 13.5147 38 16.3431 38 22C38 27.6569 38 30.4853 36.2426 32.2426C34.4853 34 31.6569 34 26 34Z" stroke="#1F0A38" stroke-width="1.5"/>
<path d="M28 34L29.1056 36.2111C30.4028 38.8057 31.0515 40.1029 30.4652 41.0515C29.879 42 28.4286 42 25.5279 42L24 42L22.4721 42C19.5714 42 18.121 42 17.5348 41.0515C16.9485 40.1029 17.5972 38.8057 18.8944 36.2111L20 34" stroke="#1F0A38" stroke-width="1.5" stroke-linecap="round" stroke-linejoin="round"/>
<path d="M24 16C20.6863 16 18 18.6864 18 22.0001C18 25.3138 20.6863 28 24 28C27.3137 28 30 25.3138 30 22.0001C30 18.6864 27.3137 16 24 16Z" stroke="#0775A0" stroke-width="1.5" stroke-linecap="round"/>
</svg>
